<svg width="1653" height="1103" xmlns="http://www.w3.org/2000/svg" xmlns:xlink="http://www.w3.org/1999/xlink" overflow="hidden"><defs><clipPath id="clip0"><rect x="5045" y="1374" width="1653" height="1103"/></clipPath><clipPath id="clip1"><rect x="5046" y="1375" width="1650" height="1100"/></clipPath><clipPath id="clip2"><rect x="5306" y="1530" width="1343" height="744"/></clipPath><clipPath id="clip3"><rect x="5306" y="1530" width="1343" height="744"/></clipPath><clipPath id="clip4"><rect x="5306" y="1530" width="1343" height="744"/></clipPath><clipPath id="clip5"><rect x="5306" y="1530" width="1343" height="744"/></clipPath><clipPath id="clip6"><rect x="5046" y="1375" width="1650" height="1100"/></clipPath><clipPath id="clip7"><rect x="5046" y="1375" width="1650" height="1100"/></clipPath><clipPath id="clip8"><rect x="5046" y="1375" width="1650" height="1100"/></clipPath><clipPath id="clip9"><rect x="5046" y="1375" width="1650" height="1100"/></clipPath><clipPath id="clip10"><rect x="5046" y="1375" width="1650" height="1100"/></clipPath><clipPath id="clip11"><rect x="5046" y="1375" width="1650" height="1100"/></clipPath><clipPath id="clip12"><rect x="5046" y="1375" width="1650" height="1100"/></clipPath><clipPath id="clip13"><rect x="5046" y="1375" width="1650" height="1100"/></clipPath><clipPath id="clip14"><rect x="5046" y="1375" width="1650" height="1100"/></clipPath><clipPath id="clip15"><rect x="5046" y="1375" width="1650" height="1100"/></clipPath><clipPath id="clip16"><rect x="5046" y="1375" width="1650" height="1100"/></clipPath><clipPath id="clip17"><rect x="5046" y="1375" width="1650" height="1100"/></clipPath><clipPath id="clip18"><rect x="5046" y="1375" width="1650" height="1100"/></clipPath><clipPath id="clip19"><rect x="5046" y="1375" width="1650" height="1100"/></clipPath><clipPath id="clip20"><rect x="5046" y="1375" width="1650" height="1100"/></clipPath><clipPath id="clip21"><rect x="5046" y="1375" width="1650" height="1100"/></clipPath><clipPath id="clip22"><rect x="5046" y="1375" width="1650" height="1100"/></clipPath><clipPath id="clip23"><rect x="5046" y="1375" width="1650" height="1100"/></clipPath><clipPath id="clip24"><rect x="5046" y="1375" width="1650" height="1100"/></clipPath><clipPath id="clip25"><rect x="5046" y="1375" width="1650" height="1100"/></clipPath><clipPath id="clip26"><rect x="5046" y="1375" width="1650" height="1100"/></clipPath><clipPath id="clip27"><rect x="5046" y="1375" width="1650" height="1100"/></clipPath><clipPath id="clip28"><rect x="5046" y="1375" width="1650" height="1100"/></clipPath><clipPath id="clip29"><rect x="5046" y="1375" width="1650" height="1100"/></clipPath><clipPath id="clip30"><rect x="5046" y="1375" width="1650" height="1100"/></clipPath></defs><g clip-path="url(#clip0)" transform="translate(-5045 -1374)"><rect x="5046" y="1375" width="1650" height="1100" fill="#FFFFFF"/><g clip-path="url(#clip1)"><path d="M5306.5 2123.57 6645.5 2123.57M5306.5 1974.56 6645.5 1974.56M5306.5 1826.56 6645.5 1826.56M5306.5 1678.56 6645.5 1678.56M5306.5 1530.5 6645.5 1530.5" stroke="#D9D9D9" stroke-width="3.4375" stroke-linejoin="round" stroke-miterlimit="10" fill="none"/></g><g clip-path="url(#clip2)"><path d="M5329.17 2244.07 5359.18 2244.07 5359.18 2271 5329.17 2271ZM5496.18 2237.07 5527.18 2237.07 5527.18 2271 5496.18 2271ZM5664.19 2230.07 5694.19 2230.07 5694.19 2271 5664.19 2271ZM5831.19 2223.07 5862.19 2223.07 5862.19 2271 5831.19 2271ZM5999.2 2217.07 6029.2 2217.07 6029.2 2271 5999.2 2271ZM6166.2 2186.07 6197.2 2186.07 6197.2 2271 6166.2 2271ZM6334.21 2127.07 6364.21 2127.07 6364.21 2271 6334.21 2271ZM6501.21 2066.07 6531.21 2066.07 6531.21 2271 6501.21 2271Z" fill="#2F5597"/></g><g clip-path="url(#clip3)"><path d="M5359.18 2189.07 5390.18 2189.07 5390.18 2271 5359.18 2271ZM5527.18 2175.07 5557.18 2175.07 5557.18 2271 5527.18 2271ZM5694.19 2162.07 5725.19 2162.07 5725.19 2271 5694.19 2271ZM5862.19 2141.07 5892.19 2141.07 5892.19 2271 5862.19 2271ZM6029.2 2131.07 6060.2 2131.07 6060.2 2271 6029.2 2271ZM6197.2 2045.07 6227.2 2045.07 6227.2 2271 6197.2 2271ZM6364.21 1897.06 6394.21 1897.06 6394.21 2271 6364.21 2271ZM6531.21 1743.06 6562.22 1743.06 6562.22 2271 6531.21 2271Z" fill="#8FAADC"/></g><g clip-path="url(#clip4)"><path d="M5390.18 2244.07 5420.18 2244.07 5420.18 2271 5390.18 2271ZM5557.18 2237.07 5588.18 2237.07 5588.18 2271 5557.18 2271ZM5725.19 2227.07 5755.19 2227.07 5755.19 2271 5725.19 2271ZM5892.19 2220.07 5923.19 2220.07 5923.19 2271 5892.19 2271ZM6060.2 2210.07 6090.2 2210.07 6090.2 2271 6060.2 2271ZM6227.2 2162.07 6257.21 2162.07 6257.21 2271 6227.2 2271ZM6394.21 2066.07 6425.21 2066.07 6425.21 2271 6394.21 2271ZM6562.22 1980.06 6592.22 1980.06 6592.22 2271 6562.22 2271Z" fill="#548235"/></g><g clip-path="url(#clip5)"><path d="M5420.18 2189.07 5451.18 2189.07 5451.18 2271 5420.18 2271ZM5588.18 2175.07 5618.18 2175.07 5618.18 2271 5588.18 2271ZM5755.19 2162.07 5786.19 2162.07 5786.19 2271 5755.19 2271ZM5923.19 2138.07 5953.2 2138.07 5953.2 2271 5923.19 2271ZM6090.2 2117.07 6120.2 2117.07 6120.2 2271 6090.2 2271ZM6257.21 2024.07 6288.21 2024.07 6288.21 2271 6257.21 2271ZM6425.21 1805.06 6455.21 1805.06 6455.21 2271 6425.21 2271ZM6592.22 1599.05 6623.22 1599.05 6623.22 2271 6592.22 2271Z" fill="#A9D18E"/></g><g clip-path="url(#clip6)"><path d="M5306.5 2271.5 6645.5 2271.5" stroke="#D9D9D9" stroke-width="3.4375" stroke-linejoin="round" stroke-miterlimit="10" fill="none" fill-rule="evenodd"/></g><g clip-path="url(#clip7)"><text fill="#595959" font-family="Calibri,Calibri_MSFontService,sans-serif" font-weight="400" font-size="41" transform="matrix(1 0 0 1 5173.23 2283)">00:00</text></g><g clip-path="url(#clip8)"><text fill="#595959" font-family="Calibri,Calibri_MSFontService,sans-serif" font-weight="400" font-size="41" transform="matrix(1 0 0 1 5173.23 2135)">00:43</text></g><g clip-path="url(#clip9)"><text fill="#595959" font-family="Calibri,Calibri_MSFontService,sans-serif" font-weight="400" font-size="41" transform="matrix(1 0 0 1 5173.23 1987)">01:26</text></g><g clip-path="url(#clip10)"><text fill="#595959" font-family="Calibri,Calibri_MSFontService,sans-serif" font-weight="400" font-size="41" transform="matrix(1 0 0 1 5173.23 1838)">02:10</text></g><g clip-path="url(#clip11)"><text fill="#595959" font-family="Calibri,Calibri_MSFontService,sans-serif" font-weight="400" font-size="41" transform="matrix(1 0 0 1 5173.23 1690)">02:53</text></g><g clip-path="url(#clip12)"><text fill="#595959" font-family="Calibri,Calibri_MSFontService,sans-serif" font-weight="400" font-size="41" transform="matrix(1 0 0 1 5173.23 1542)">03:36</text></g><g clip-path="url(#clip13)"><text fill="#595959" font-family="Calibri,Calibri_MSFontService,sans-serif" font-weight="400" font-size="41" transform="matrix(1 0 0 1 5327.17 2337)">100000</text></g><g clip-path="url(#clip14)"><text fill="#595959" font-family="Calibri,Calibri_MSFontService,sans-serif" font-weight="400" font-size="41" transform="matrix(1 0 0 1 5494.64 2337)">250000</text></g><g clip-path="url(#clip15)"><text fill="#595959" font-family="Calibri,Calibri_MSFontService,sans-serif" font-weight="400" font-size="41" transform="matrix(1 0 0 1 5662.1 2337)">500000</text></g><g clip-path="url(#clip16)"><text fill="#595959" font-family="Calibri,Calibri_MSFontService,sans-serif" font-weight="400" font-size="41" transform="matrix(1 0 0 1 5829.56 2337)">750000</text></g><g clip-path="url(#clip17)"><text fill="#595959" font-family="Calibri,Calibri_MSFontService,sans-serif" font-weight="400" font-size="41" transform="matrix(1 0 0 1 5986.57 2337)">1000000</text></g><g clip-path="url(#clip18)"><text fill="#595959" font-family="Calibri,Calibri_MSFontService,sans-serif" font-weight="400" font-size="41" transform="matrix(1 0 0 1 6154.03 2337)">2500000</text></g><g clip-path="url(#clip19)"><text fill="#595959" font-family="Calibri,Calibri_MSFontService,sans-serif" font-weight="400" font-size="41" transform="matrix(1 0 0 1 6321.49 2337)">5000000</text></g><g clip-path="url(#clip20)"><text fill="#595959" font-family="Calibri,Calibri_MSFontService,sans-serif" font-weight="400" font-size="41" transform="matrix(1 0 0 1 6488.95 2337)">7500000</text></g><g clip-path="url(#clip21)"><text fill="#595959" font-family="Calibri,Calibri_MSFontService,sans-serif" font-weight="400" font-size="46" transform="matrix(6.12323e-17 -1 1 6.12323e-17 5147.54 1936)">Zeit</text></g><g clip-path="url(#clip22)"><text fill="#595959" font-family="Calibri,Calibri_MSFontService,sans-serif" font-weight="400" font-size="46" transform="matrix(1 0 0 1 5919.89 2406)">Zeilen</text></g><g clip-path="url(#clip23)"><rect x="5426" y="1430" width="22" height="23" fill="#2F5597"/></g><g clip-path="url(#clip24)"><text fill="#595959" font-family="Calibri,Calibri_MSFontService,sans-serif" font-weight="400" font-size="41" transform="matrix(1 0 0 1 5457.86 1453)">Paruqet S1</text></g><g clip-path="url(#clip25)"><rect x="5686" y="1430" width="23" height="23" fill="#8FAADC"/></g><g clip-path="url(#clip26)"><text fill="#595959" font-family="Calibri,Calibri_MSFontService,sans-serif" font-weight="400" font-size="41" transform="matrix(1 0 0 1 5718.4 1453)">Delta S1</text></g><g clip-path="url(#clip27)"><rect x="5902" y="1430" width="23" height="23" fill="#548235"/></g><g clip-path="url(#clip28)"><text fill="#595959" font-family="Calibri,Calibri_MSFontService,sans-serif" font-weight="400" font-size="41" transform="matrix(1 0 0 1 5934.73 1453)">Parquet S2</text></g><g clip-path="url(#clip29)"><rect x="6163" y="1430" width="23" height="23" fill="#A9D18E"/></g><g clip-path="url(#clip30)"><text fill="#595959" font-family="Calibri,Calibri_MSFontService,sans-serif" font-weight="400" font-size="41" transform="matrix(1 0 0 1 6195.27 1453)">Delta S2</text></g><rect x="5046.5" y="1375.5" width="1650" height="1100" stroke="#D9D9D9" stroke-width="3.4375" stroke-linejoin="round" stroke-miterlimit="10" fill="none"/></g></svg>