<svg width="1652" height="1101" xmlns="http://www.w3.org/2000/svg" xmlns:xlink="http://www.w3.org/1999/xlink" overflow="hidden"><defs><clipPath id="clip0"><rect x="2845" y="2612" width="1652" height="1101"/></clipPath><clipPath id="clip1"><rect x="2846" y="2612" width="1650" height="1100"/></clipPath><clipPath id="clip2"><rect x="2846" y="2612" width="1650" height="1100"/></clipPath><clipPath id="clip3"><rect x="3106" y="2767" width="1343" height="745"/></clipPath><clipPath id="clip4"><rect x="3106" y="2767" width="1343" height="745"/></clipPath><clipPath id="clip5"><rect x="3106" y="2767" width="1343" height="745"/></clipPath><clipPath id="clip6"><rect x="3106" y="2767" width="1343" height="745"/></clipPath><clipPath id="clip7"><rect x="2846" y="2612" width="1650" height="1100"/></clipPath><clipPath id="clip8"><rect x="2846" y="2612" width="1650" height="1100"/></clipPath><clipPath id="clip9"><rect x="2846" y="2612" width="1650" height="1100"/></clipPath><clipPath id="clip10"><rect x="2846" y="2612" width="1650" height="1100"/></clipPath><clipPath id="clip11"><rect x="2846" y="2612" width="1650" height="1100"/></clipPath><clipPath id="clip12"><rect x="2846" y="2612" width="1650" height="1100"/></clipPath><clipPath id="clip13"><rect x="2846" y="2612" width="1650" height="1100"/></clipPath><clipPath id="clip14"><rect x="2846" y="2612" width="1650" height="1100"/></clipPath><clipPath id="clip15"><rect x="2846" y="2612" width="1650" height="1100"/></clipPath><clipPath id="clip16"><rect x="2846" y="2612" width="1650" height="1100"/></clipPath><clipPath id="clip17"><rect x="2846" y="2612" width="1650" height="1100"/></clipPath><clipPath id="clip18"><rect x="2846" y="2612" width="1650" height="1100"/></clipPath><clipPath id="clip19"><rect x="2846" y="2612" width="1650" height="1100"/></clipPath><clipPath id="clip20"><rect x="2846" y="2612" width="1650" height="1100"/></clipPath><clipPath id="clip21"><rect x="2846" y="2612" width="1650" height="1100"/></clipPath><clipPath id="clip22"><rect x="2846" y="2612" width="1650" height="1100"/></clipPath><clipPath id="clip23"><rect x="2846" y="2612" width="1650" height="1100"/></clipPath><clipPath id="clip24"><rect x="2846" y="2612" width="1650" height="1100"/></clipPath><clipPath id="clip25"><rect x="2846" y="2612" width="1650" height="1100"/></clipPath><clipPath id="clip26"><rect x="2846" y="2612" width="1650" height="1100"/></clipPath><clipPath id="clip27"><rect x="2846" y="2612" width="1650" height="1100"/></clipPath><clipPath id="clip28"><rect x="2846" y="2612" width="1650" height="1100"/></clipPath><clipPath id="clip29"><rect x="2846" y="2612" width="1650" height="1100"/></clipPath><clipPath id="clip30"><rect x="2846" y="2612" width="1650" height="1100"/></clipPath><clipPath id="clip31"><rect x="2846" y="2612" width="1650" height="1100"/></clipPath></defs><g clip-path="url(#clip0)" transform="translate(-2845 -2612)"><rect x="2846" y="2613" width="1650" height="1099" fill="#FFFFFF"/><g clip-path="url(#clip1)"><rect x="3106" y="2768" width="1340" height="741" fill="#FFFFFF"/></g><g clip-path="url(#clip2)"><path d="M3106.5 3360.61 4445.5 3360.61M3106.5 3212.61 4445.5 3212.61M3106.5 3064.6 4445.5 3064.6M3106.5 2915.6 4445.5 2915.6M3106.5 2767.5 4445.5 2767.5" stroke="#D9D9D9" stroke-width="3.4375" stroke-linejoin="round" stroke-miterlimit="10" fill="none"/></g><g clip-path="url(#clip3)"><path d="M3129.1 3464.11 3159.1 3464.11 3159.1 3509 3129.1 3509ZM3296.11 3454.11 3327.11 3454.11 3327.11 3509 3296.11 3509ZM3464.11 3440.11 3494.11 3440.11 3494.11 3509 3464.11 3509ZM3631.12 3423.11 3662.12 3423.11 3662.12 3509 3631.12 3509ZM3799.12 3409.11 3829.13 3409.11 3829.13 3509 3799.12 3509ZM3966.13 3276.11 3997.13 3276.11 3997.13 3509 3966.13 3509ZM4134.14 3107.1 4164.14 3107.1 4164.14 3509 4134.14 3509ZM4301.14 2898.09 4332.14 2898.09 4332.14 3509 4301.14 3509Z" fill="#2F5597"/></g><g clip-path="url(#clip4)"><path d="M3159.1 3464.11 3190.1 3464.11 3190.1 3509 3159.1 3509ZM3327.11 3454.11 3357.11 3454.11 3357.11 3509 3327.11 3509ZM3494.11 3440.11 3525.12 3440.11 3525.12 3509 3494.11 3509ZM3662.12 3423.11 3692.12 3423.11 3692.12 3509 3662.12 3509ZM3829.13 3409.11 3860.13 3409.11 3860.13 3509 3829.13 3509ZM3997.13 3276.11 4027.13 3276.11 4027.13 3509 3997.13 3509ZM4164.14 3107.1 4195.14 3107.1 4195.14 3509 4164.14 3509ZM4332.14 2898.09 4362.14 2898.09 4362.14 3509 4332.14 3509Z" fill="#8FAADC"/></g><g clip-path="url(#clip5)"><path d="M3190.1 3468.11 3220.11 3468.11 3220.11 3509 3190.1 3509ZM3357.11 3461.11 3388.11 3461.11 3388.11 3509 3357.11 3509ZM3525.12 3451.11 3555.12 3451.11 3555.12 3509 3525.12 3509ZM3692.12 3437.11 3723.12 3437.11 3723.12 3509 3692.12 3509ZM3860.13 3406.11 3890.13 3406.11 3890.13 3509 3860.13 3509ZM4027.13 3344.11 4057.13 3344.11 4057.13 3509 4027.13 3509ZM4195.14 3183.1 4225.14 3183.1 4225.14 3509 4195.14 3509ZM4362.14 3035.1 4392.14 3035.1 4392.14 3509 4362.14 3509Z" fill="#548235"/></g><g clip-path="url(#clip6)"><path d="M3220.11 3468.11 3251.11 3468.11 3251.11 3509 3220.11 3509ZM3388.11 3461.11 3418.11 3461.11 3418.11 3509 3388.11 3509ZM3555.12 3451.11 3586.12 3451.11 3586.12 3509 3555.12 3509ZM3723.12 3437.11 3753.12 3437.11 3753.12 3509 3723.12 3509ZM3890.13 3406.11 3920.13 3406.11 3920.13 3509 3890.13 3509ZM4057.13 3344.11 4088.13 3344.11 4088.13 3509 4057.13 3509ZM4225.14 3183.1 4255.14 3183.1 4255.14 3509 4225.14 3509ZM4392.14 3035.1 4423.15 3035.1 4423.15 3509 4392.14 3509Z" fill="#A9D18E"/></g><g clip-path="url(#clip7)"><path d="M3106.5 3508.5 4445.5 3508.5" stroke="#D9D9D9" stroke-width="3.4375" stroke-linejoin="round" stroke-miterlimit="10" fill="none" fill-rule="evenodd"/></g><g clip-path="url(#clip8)"><text fill="#595959" font-family="Calibri,Calibri_MSFontService,sans-serif" font-weight="400" font-size="41" transform="matrix(1 0 0 1 2973.23 3521)">00:00</text></g><g clip-path="url(#clip9)"><text fill="#595959" font-family="Calibri,Calibri_MSFontService,sans-serif" font-weight="400" font-size="41" transform="matrix(1 0 0 1 2973.23 3372)">00:43</text></g><g clip-path="url(#clip10)"><text fill="#595959" font-family="Calibri,Calibri_MSFontService,sans-serif" font-weight="400" font-size="41" transform="matrix(1 0 0 1 2973.23 3224)">01:26</text></g><g clip-path="url(#clip11)"><text fill="#595959" font-family="Calibri,Calibri_MSFontService,sans-serif" font-weight="400" font-size="41" transform="matrix(1 0 0 1 2973.23 3076)">02:10</text></g><g clip-path="url(#clip12)"><text fill="#595959" font-family="Calibri,Calibri_MSFontService,sans-serif" font-weight="400" font-size="41" transform="matrix(1 0 0 1 2973.23 2928)">02:53</text></g><g clip-path="url(#clip13)"><text fill="#595959" font-family="Calibri,Calibri_MSFontService,sans-serif" font-weight="400" font-size="41" transform="matrix(1 0 0 1 2973.23 2779)">03:36</text></g><g clip-path="url(#clip14)"><text fill="#595959" font-family="Calibri,Calibri_MSFontService,sans-serif" font-weight="400" font-size="41" transform="matrix(1 0 0 1 3127.17 3574)">100000</text></g><g clip-path="url(#clip15)"><text fill="#595959" font-family="Calibri,Calibri_MSFontService,sans-serif" font-weight="400" font-size="41" transform="matrix(1 0 0 1 3294.64 3574)">250000</text></g><g clip-path="url(#clip16)"><text fill="#595959" font-family="Calibri,Calibri_MSFontService,sans-serif" font-weight="400" font-size="41" transform="matrix(1 0 0 1 3462.1 3574)">500000</text></g><g clip-path="url(#clip17)"><text fill="#595959" font-family="Calibri,Calibri_MSFontService,sans-serif" font-weight="400" font-size="41" transform="matrix(1 0 0 1 3629.56 3574)">750000</text></g><g clip-path="url(#clip18)"><text fill="#595959" font-family="Calibri,Calibri_MSFontService,sans-serif" font-weight="400" font-size="41" transform="matrix(1 0 0 1 3786.57 3574)">1000000</text></g><g clip-path="url(#clip19)"><text fill="#595959" font-family="Calibri,Calibri_MSFontService,sans-serif" font-weight="400" font-size="41" transform="matrix(1 0 0 1 3954.03 3574)">2500000</text></g><g clip-path="url(#clip20)"><text fill="#595959" font-family="Calibri,Calibri_MSFontService,sans-serif" font-weight="400" font-size="41" transform="matrix(1 0 0 1 4121.49 3574)">5000000</text></g><g clip-path="url(#clip21)"><text fill="#595959" font-family="Calibri,Calibri_MSFontService,sans-serif" font-weight="400" font-size="41" transform="matrix(1 0 0 1 4288.95 3574)">7500000</text></g><g clip-path="url(#clip22)"><text fill="#595959" font-family="Calibri,Calibri_MSFontService,sans-serif" font-weight="400" font-size="46" transform="matrix(6.12323e-17 -1 1 6.12323e-17 2947.54 3173)">Zeit</text></g><g clip-path="url(#clip23)"><text fill="#595959" font-family="Calibri,Calibri_MSFontService,sans-serif" font-weight="400" font-size="46" transform="matrix(1 0 0 1 3719.89 3643)">Zeilen</text></g><g clip-path="url(#clip24)"><rect x="3226" y="2667" width="22" height="22.9998" fill="#2F5597"/></g><g clip-path="url(#clip25)"><text fill="#595959" font-family="Calibri,Calibri_MSFontService,sans-serif" font-weight="400" font-size="41" transform="matrix(1 0 0 1 3257.86 2690)">Paruqet S1</text></g><g clip-path="url(#clip26)"><rect x="3486" y="2667" width="23" height="22.9998" fill="#8FAADC"/></g><g clip-path="url(#clip27)"><text fill="#595959" font-family="Calibri,Calibri_MSFontService,sans-serif" font-weight="400" font-size="41" transform="matrix(1 0 0 1 3518.4 2690)">Delta S1</text></g><g clip-path="url(#clip28)"><rect x="3702" y="2667" width="23" height="22.9998" fill="#548235"/></g><g clip-path="url(#clip29)"><text fill="#595959" font-family="Calibri,Calibri_MSFontService,sans-serif" font-weight="400" font-size="41" transform="matrix(1 0 0 1 3734.73 2690)">Parquet S2</text></g><g clip-path="url(#clip30)"><rect x="3963" y="2667" width="23" height="22.9998" fill="#A9D18E"/></g><g clip-path="url(#clip31)"><text fill="#595959" font-family="Calibri,Calibri_MSFontService,sans-serif" font-weight="400" font-size="41" transform="matrix(1 0 0 1 3995.27 2690)">Delta S2</text></g><rect x="2846" y="2613" width="1650" height="1099" stroke="#898989" stroke-width="2.29167" stroke-linejoin="round" stroke-miterlimit="10" fill="none"/></g></svg>