<svg width="1653" height="1102" xmlns="http://www.w3.org/2000/svg" xmlns:xlink="http://www.w3.org/1999/xlink" overflow="hidden"><defs><clipPath id="clip0"><rect x="5045" y="137" width="1653" height="1102"/></clipPath><clipPath id="clip1"><rect x="5046" y="137" width="1650" height="1100"/></clipPath><clipPath id="clip2"><rect x="5306" y="292" width="1343" height="745"/></clipPath><clipPath id="clip3"><rect x="5306" y="292" width="1343" height="745"/></clipPath><clipPath id="clip4"><rect x="5046" y="137" width="1650" height="1100"/></clipPath><clipPath id="clip5"><rect x="5046" y="137" width="1650" height="1100"/></clipPath><clipPath id="clip6"><rect x="5046" y="137" width="1650" height="1100"/></clipPath><clipPath id="clip7"><rect x="5046" y="137" width="1650" height="1100"/></clipPath><clipPath id="clip8"><rect x="5046" y="137" width="1650" height="1100"/></clipPath><clipPath id="clip9"><rect x="5046" y="137" width="1650" height="1100"/></clipPath><clipPath id="clip10"><rect x="5046" y="137" width="1650" height="1100"/></clipPath><clipPath id="clip11"><rect x="5046" y="137" width="1650" height="1100"/></clipPath><clipPath id="clip12"><rect x="5046" y="137" width="1650" height="1100"/></clipPath><clipPath id="clip13"><rect x="5046" y="137" width="1650" height="1100"/></clipPath><clipPath id="clip14"><rect x="5046" y="137" width="1650" height="1100"/></clipPath><clipPath id="clip15"><rect x="5046" y="137" width="1650" height="1100"/></clipPath><clipPath id="clip16"><rect x="5046" y="137" width="1650" height="1100"/></clipPath><clipPath id="clip17"><rect x="5046" y="137" width="1650" height="1100"/></clipPath><clipPath id="clip18"><rect x="5046" y="137" width="1650" height="1100"/></clipPath><clipPath id="clip19"><rect x="5046" y="137" width="1650" height="1100"/></clipPath><clipPath id="clip20"><rect x="5046" y="137" width="1650" height="1100"/></clipPath><clipPath id="clip21"><rect x="5046" y="137" width="1650" height="1100"/></clipPath><clipPath id="clip22"><rect x="5046" y="137" width="1650" height="1100"/></clipPath><clipPath id="clip23"><rect x="5046" y="137" width="1650" height="1100"/></clipPath><clipPath id="clip24"><rect x="5046" y="137" width="1650" height="1100"/></clipPath><clipPath id="clip25"><rect x="5046" y="137" width="1650" height="1100"/></clipPath><clipPath id="clip26"><rect x="5046" y="137" width="1650" height="1100"/></clipPath></defs><g clip-path="url(#clip0)" transform="translate(-5045 -137)"><rect x="5046" y="138" width="1650" height="1099" fill="#FFFFFF"/><g clip-path="url(#clip1)"><path d="M5306.5 928.531 6645.5 928.531M5306.5 822.527 6645.5 822.527M5306.5 716.524 6645.5 716.524M5306.5 610.52 6645.5 610.52M5306.5 504.517 6645.5 504.517M5306.5 398.513 6645.5 398.513M5306.5 292.5 6645.5 292.5" stroke="#D9D9D9" stroke-width="3.4375" stroke-linejoin="round" stroke-miterlimit="10" fill="none"/></g><g clip-path="url(#clip2)"><path d="M5342.18 936.031 5390.18 936.031 5390.18 1034 5342.18 1034ZM5509.18 924.03 5557.18 924.03 5557.18 1034 5509.18 1034ZM5677.19 893.029 5725.19 893.029 5725.19 1034 5677.19 1034ZM5844.19 881.029 5892.19 881.029 5892.19 1034 5844.19 1034ZM6012.2 862.028 6060.2 862.028 6060.2 1034 6012.2 1034ZM6179.2 764.025 6227.2 764.025 6227.2 1034 6179.2 1034ZM6347.21 581.019 6394.21 581.019 6394.21 1034 6347.21 1034ZM6514.21 415.014 6562.22 415.014 6562.22 1034 6514.21 1034Z" fill="#2F5597"/></g><g clip-path="url(#clip3)"><path d="M5390.18 869.029 5438.18 869.029 5438.18 1034 5390.18 1034ZM5557.18 862.028 5605.18 862.028 5605.18 1034 5557.18 1034ZM5725.19 838.028 5772.19 838.028 5772.19 1034 5725.19 1034ZM5892.19 819.027 5940.19 819.027 5940.19 1034 5892.19 1034ZM6060.2 801.026 6107.2 801.026 6107.2 1034 6060.2 1034ZM6227.2 691.023 6275.21 691.023 6275.21 1034 6227.2 1034ZM6394.21 507.017 6442.21 507.017 6442.21 1034 6394.21 1034ZM6562.22 348.011 6610.22 348.011 6610.22 1034 6562.22 1034Z" fill="#8FAADC"/></g><g clip-path="url(#clip4)"><path d="M5306.5 1033.5 6645.5 1033.5" stroke="#D9D9D9" stroke-width="3.4375" stroke-linejoin="round" stroke-miterlimit="10" fill="none" fill-rule="evenodd"/></g><g clip-path="url(#clip5)"><text fill="#595959" font-family="Calibri,Calibri_MSFontService,sans-serif" font-weight="400" font-size="41" transform="matrix(1 0 0 1 5173.23 1046)">00:00</text></g><g clip-path="url(#clip6)"><text fill="#595959" font-family="Calibri,Calibri_MSFontService,sans-serif" font-weight="400" font-size="41" transform="matrix(1 0 0 1 5173.23 940)">00:09</text></g><g clip-path="url(#clip7)"><text fill="#595959" font-family="Calibri,Calibri_MSFontService,sans-serif" font-weight="400" font-size="41" transform="matrix(1 0 0 1 5173.23 834)">00:17</text></g><g clip-path="url(#clip8)"><text fill="#595959" font-family="Calibri,Calibri_MSFontService,sans-serif" font-weight="400" font-size="41" transform="matrix(1 0 0 1 5173.23 728)">00:26</text></g><g clip-path="url(#clip9)"><text fill="#595959" font-family="Calibri,Calibri_MSFontService,sans-serif" font-weight="400" font-size="41" transform="matrix(1 0 0 1 5173.23 622)">00:35</text></g><g clip-path="url(#clip10)"><text fill="#595959" font-family="Calibri,Calibri_MSFontService,sans-serif" font-weight="400" font-size="41" transform="matrix(1 0 0 1 5173.23 516)">00:43</text></g><g clip-path="url(#clip11)"><text fill="#595959" font-family="Calibri,Calibri_MSFontService,sans-serif" font-weight="400" font-size="41" transform="matrix(1 0 0 1 5173.23 410)">00:52</text></g><g clip-path="url(#clip12)"><text fill="#595959" font-family="Calibri,Calibri_MSFontService,sans-serif" font-weight="400" font-size="41" transform="matrix(1 0 0 1 5173.23 304)">01:00</text></g><g clip-path="url(#clip13)"><text fill="#595959" font-family="Calibri,Calibri_MSFontService,sans-serif" font-weight="400" font-size="41" transform="matrix(1 0 0 1 5327.17 1099)">100000</text></g><g clip-path="url(#clip14)"><text fill="#595959" font-family="Calibri,Calibri_MSFontService,sans-serif" font-weight="400" font-size="41" transform="matrix(1 0 0 1 5494.64 1099)">250000</text></g><g clip-path="url(#clip15)"><text fill="#595959" font-family="Calibri,Calibri_MSFontService,sans-serif" font-weight="400" font-size="41" transform="matrix(1 0 0 1 5662.1 1099)">500000</text></g><g clip-path="url(#clip16)"><text fill="#595959" font-family="Calibri,Calibri_MSFontService,sans-serif" font-weight="400" font-size="41" transform="matrix(1 0 0 1 5829.56 1099)">750000</text></g><g clip-path="url(#clip17)"><text fill="#595959" font-family="Calibri,Calibri_MSFontService,sans-serif" font-weight="400" font-size="41" transform="matrix(1 0 0 1 5986.57 1099)">1000000</text></g><g clip-path="url(#clip18)"><text fill="#595959" font-family="Calibri,Calibri_MSFontService,sans-serif" font-weight="400" font-size="41" transform="matrix(1 0 0 1 6154.03 1099)">2500000</text></g><g clip-path="url(#clip19)"><text fill="#595959" font-family="Calibri,Calibri_MSFontService,sans-serif" font-weight="400" font-size="41" transform="matrix(1 0 0 1 6321.49 1099)">5000000</text></g><g clip-path="url(#clip20)"><text fill="#595959" font-family="Calibri,Calibri_MSFontService,sans-serif" font-weight="400" font-size="41" transform="matrix(1 0 0 1 6488.95 1099)">7500000</text></g><g clip-path="url(#clip21)"><text fill="#595959" font-family="Calibri,Calibri_MSFontService,sans-serif" font-weight="400" font-size="46" transform="matrix(6.12323e-17 -1 1 6.12323e-17 5147.54 698)">Zeit</text></g><g clip-path="url(#clip22)"><text fill="#595959" font-family="Calibri,Calibri_MSFontService,sans-serif" font-weight="400" font-size="46" transform="matrix(1 0 0 1 5919.89 1168)">Zeilen</text></g><g clip-path="url(#clip23)"><rect x="5719" y="192" width="23" height="22.9997" fill="#2F5597"/></g><g clip-path="url(#clip24)"><text fill="#595959" font-family="Calibri,Calibri_MSFontService,sans-serif" font-weight="400" font-size="41" transform="matrix(1 0 0 1 5751.49 215)">Paruqet</text></g><g clip-path="url(#clip25)"><rect x="5919" y="192" width="22" height="22.9997" fill="#8FAADC"/></g><g clip-path="url(#clip26)"><text fill="#595959" font-family="Calibri,Calibri_MSFontService,sans-serif" font-weight="400" font-size="41" transform="matrix(1 0 0 1 5950.82 215)">Delta</text></g><rect x="5046.5" y="138.5" width="1650" height="1099" stroke="#D9D9D9" stroke-width="3.4375" stroke-linejoin="round" stroke-miterlimit="10" fill="none"/></g></svg>