<svg width="1928" height="1584" xmlns="http://www.w3.org/2000/svg" xmlns:xlink="http://www.w3.org/1999/xlink" overflow="hidden"><defs><clipPath id="clip0"><rect x="6070" y="1855" width="1928" height="1584"/></clipPath><clipPath id="clip1"><rect x="6070" y="1856" width="1925" height="1581"/></clipPath><clipPath id="clip2"><rect x="6382" y="2011" width="1483" height="1226"/></clipPath><clipPath id="clip3"><rect x="6382" y="2011" width="1483" height="1226"/></clipPath><clipPath id="clip4"><rect x="6382" y="2011" width="1483" height="1226"/></clipPath><clipPath id="clip5"><rect x="6382" y="2011" width="1483" height="1226"/></clipPath><clipPath id="clip6"><rect x="6070" y="1856" width="1925" height="1581"/></clipPath><clipPath id="clip7"><rect x="6070" y="1856" width="1925" height="1581"/></clipPath><clipPath id="clip8"><rect x="6070" y="1856" width="1925" height="1581"/></clipPath><clipPath id="clip9"><rect x="6070" y="1856" width="1925" height="1581"/></clipPath><clipPath id="clip10"><rect x="6070" y="1856" width="1925" height="1581"/></clipPath><clipPath id="clip11"><rect x="6070" y="1856" width="1925" height="1581"/></clipPath><clipPath id="clip12"><rect x="6070" y="1856" width="1925" height="1581"/></clipPath><clipPath id="clip13"><rect x="6070" y="1856" width="1925" height="1581"/></clipPath><clipPath id="clip14"><rect x="6070" y="1856" width="1925" height="1581"/></clipPath><clipPath id="clip15"><rect x="6070" y="1856" width="1925" height="1581"/></clipPath><clipPath id="clip16"><rect x="6070" y="1856" width="1925" height="1581"/></clipPath><clipPath id="clip17"><rect x="6070" y="1856" width="1925" height="1581"/></clipPath><clipPath id="clip18"><rect x="6070" y="1856" width="1925" height="1581"/></clipPath><clipPath id="clip19"><rect x="6070" y="1856" width="1925" height="1581"/></clipPath><clipPath id="clip20"><rect x="6070" y="1856" width="1925" height="1581"/></clipPath><clipPath id="clip21"><rect x="6070" y="1856" width="1925" height="1581"/></clipPath><clipPath id="clip22"><rect x="6070" y="1856" width="1925" height="1581"/></clipPath><clipPath id="clip23"><rect x="6070" y="1856" width="1925" height="1581"/></clipPath><clipPath id="clip24"><rect x="6070" y="1856" width="1925" height="1581"/></clipPath><clipPath id="clip25"><rect x="6070" y="1856" width="1925" height="1581"/></clipPath><clipPath id="clip26"><rect x="6070" y="1856" width="1925" height="1581"/></clipPath><clipPath id="clip27"><rect x="6070" y="1856" width="1925" height="1581"/></clipPath><clipPath id="clip28"><rect x="6070" y="1856" width="1925" height="1581"/></clipPath><clipPath id="clip29"><rect x="6070" y="1856" width="1925" height="1581"/></clipPath><clipPath id="clip30"><rect x="6070" y="1856" width="1925" height="1581"/></clipPath><clipPath id="clip31"><rect x="6070" y="1856" width="1925" height="1581"/></clipPath></defs><g clip-path="url(#clip0)" transform="translate(-6070 -1855)"><rect x="6071" y="1856" width="1925" height="1581" fill="#FFFFFF"/><g clip-path="url(#clip1)"><path d="M6628.72 2011.5 6628.72 3233.5M6875.73 2011.5 6875.73 3233.5M7121.73 2011.5 7121.73 3233.5M7368.74 2011.5 7368.74 3233.5M7614.75 2011.5 7614.75 3233.5M7861.5 2011.5 7861.5 3233.5" stroke="#D9D9D9" stroke-width="3.4375" stroke-linejoin="round" stroke-miterlimit="10" fill="none"/></g><g clip-path="url(#clip2)"><path d="M6391.21 3213.11 6382 3213.11 6382 3185.1 6391.21 3185.1ZM6406.21 3060.1 6382 3060.1 6382 3032.1 6406.21 3032.1ZM6429.21 2907.1 6382 2907.1 6382 2880.09 6429.21 2880.09ZM6453.21 2755.09 6382 2755.09 6382 2727.09 6453.21 2727.09ZM6476.21 2602.09 6382 2602.09 6382 2574.08 6476.21 2574.08ZM6617.22 2449.08 6382 2449.08 6382 2421.08 6617.22 2421.08ZM6852.22 2296.08 6382 2296.08 6382 2268.07 6852.22 2268.07ZM7090.23 2143.07 6382 2143.07 6382 2116.07 7090.23 2116.07Z" fill="#A9D18E"/></g><g clip-path="url(#clip3)"><path d="M6391.21 3185.1 6382 3185.1 6382 3157.1 6391.21 3157.1ZM6406.21 3032.1 6382 3032.1 6382 3005.1 6406.21 3005.1ZM6429.21 2880.09 6382 2880.09 6382 2852.09 6429.21 2852.09ZM6453.21 2727.09 6382 2727.09 6382 2699.09 6453.21 2699.09ZM6476.21 2574.08 6382 2574.08 6382 2546.08 6476.21 2546.08ZM6617.22 2421.08 6382 2421.08 6382 2393.08 6617.22 2393.08ZM6852.22 2268.07 6382 2268.07 6382 2241.07 6852.22 2241.07ZM7090.23 2116.07 6382 2116.07 6382 2088.07 7090.23 2088.07Z" fill="#548235"/></g><g clip-path="url(#clip4)"><path d="M6400.21 3157.1 6382 3157.1 6382 3130.1 6400.21 3130.1ZM6426.21 3005.1 6382 3005.1 6382 2977.1 6426.21 2977.1ZM6469.21 2852.09 6382 2852.09 6382 2824.09 6469.21 2824.09ZM6512.21 2699.09 6382 2699.09 6382 2671.09 6512.21 2671.09ZM6555.21 2546.08 6382 2546.08 6382 2518.08 6555.21 2518.08ZM6813.22 2393.08 6382 2393.08 6382 2366.08 6813.22 2366.08ZM7233.24 2241.07 6382 2241.07 6382 2213.07 7233.24 2213.07ZM7659.25 2088.07 6382 2088.07 6382 2060.07 7659.25 2060.07Z" fill="#8FAADC"/></g><g clip-path="url(#clip5)"><path d="M6391.21 3130.1 6382 3130.1 6382 3102.1 6391.21 3102.1ZM6406.21 2977.1 6382 2977.1 6382 2949.1 6406.21 2949.1ZM6429.21 2824.09 6382 2824.09 6382 2796.09 6429.21 2796.09ZM6453.21 2671.09 6382 2671.09 6382 2643.09 6453.21 2643.09ZM6476.21 2518.08 6382 2518.08 6382 2491.08 6476.21 2491.08ZM6617.22 2366.08 6382 2366.08 6382 2338.08 6617.22 2338.08ZM6853.22 2213.07 6382 2213.07 6382 2185.07 6853.22 2185.07ZM7088.23 2060.07 6382 2060.07 6382 2032.07 7088.23 2032.07Z" fill="#2F5597"/></g><g clip-path="url(#clip6)"><path d="M0 0 0.000360892 1222" stroke="#D9D9D9" stroke-width="3.4375" stroke-linejoin="round" stroke-miterlimit="10" fill="none" fill-rule="evenodd" transform="matrix(1 0 0 -1 6382.5 3233.5)"/></g><g clip-path="url(#clip7)"><text fill="#595959" font-family="Calibri,Calibri_MSFontService,sans-serif" font-weight="400" font-size="41" transform="matrix(1 0 0 1 6345.68 3299)">0,00</text></g><g clip-path="url(#clip8)"><text fill="#595959" font-family="Calibri,Calibri_MSFontService,sans-serif" font-weight="400" font-size="41" transform="matrix(1 0 0 1 6555.72 3299)">2.000,00</text></g><g clip-path="url(#clip9)"><text fill="#595959" font-family="Calibri,Calibri_MSFontService,sans-serif" font-weight="400" font-size="41" transform="matrix(1 0 0 1 6802.31 3299)">4.000,00</text></g><g clip-path="url(#clip10)"><text fill="#595959" font-family="Calibri,Calibri_MSFontService,sans-serif" font-weight="400" font-size="41" transform="matrix(1 0 0 1 7048.9 3299)">6.000,00</text></g><g clip-path="url(#clip11)"><text fill="#595959" font-family="Calibri,Calibri_MSFontService,sans-serif" font-weight="400" font-size="41" transform="matrix(1 0 0 1 7295.48 3299)">8.000,00</text></g><g clip-path="url(#clip12)"><text fill="#595959" font-family="Calibri,Calibri_MSFontService,sans-serif" font-weight="400" font-size="41" transform="matrix(1 0 0 1 7531.62 3299)">10.000,00</text></g><g clip-path="url(#clip13)"><text fill="#595959" font-family="Calibri,Calibri_MSFontService,sans-serif" font-weight="400" font-size="41" transform="matrix(1 0 0 1 7778.21 3299)">12.000,00</text></g><g clip-path="url(#clip14)"><text fill="#595959" font-family="Calibri,Calibri_MSFontService,sans-serif" font-weight="400" font-size="41" transform="matrix(1 0 0 1 6218.51 3169)">100000</text></g><g clip-path="url(#clip15)"><text fill="#595959" font-family="Calibri,Calibri_MSFontService,sans-serif" font-weight="400" font-size="41" transform="matrix(1 0 0 1 6218.51 3016)">250000</text></g><g clip-path="url(#clip16)"><text fill="#595959" font-family="Calibri,Calibri_MSFontService,sans-serif" font-weight="400" font-size="41" transform="matrix(1 0 0 1 6218.51 2864)">500000</text></g><g clip-path="url(#clip17)"><text fill="#595959" font-family="Calibri,Calibri_MSFontService,sans-serif" font-weight="400" font-size="41" transform="matrix(1 0 0 1 6218.51 2711)">750000</text></g><g clip-path="url(#clip18)"><text fill="#595959" font-family="Calibri,Calibri_MSFontService,sans-serif" font-weight="400" font-size="41" transform="matrix(1 0 0 1 6197.61 2558)">1000000</text></g><g clip-path="url(#clip19)"><text fill="#595959" font-family="Calibri,Calibri_MSFontService,sans-serif" font-weight="400" font-size="41" transform="matrix(1 0 0 1 6197.61 2405)">2500000</text></g><g clip-path="url(#clip20)"><text fill="#595959" font-family="Calibri,Calibri_MSFontService,sans-serif" font-weight="400" font-size="41" transform="matrix(1 0 0 1 6197.61 2252)">5000000</text></g><g clip-path="url(#clip21)"><text fill="#595959" font-family="Calibri,Calibri_MSFontService,sans-serif" font-weight="400" font-size="41" transform="matrix(1 0 0 1 6197.61 2099)">7500000</text></g><g clip-path="url(#clip22)"><text fill="#595959" font-family="Calibri,Calibri_MSFontService,sans-serif" font-weight="400" font-size="46" transform="matrix(1 0 0 1 6981.86 3368)">Speicher in MB</text></g><g clip-path="url(#clip23)"><text fill="#595959" font-family="Calibri,Calibri_MSFontService,sans-serif" font-weight="400" font-size="46" transform="matrix(6.12323e-17 -1 1 6.12323e-17 6171.92 2679)">Zeilen</text></g><g clip-path="url(#clip24)"><rect x="6390" y="1911" width="22" height="23" fill="#2F5597"/></g><g clip-path="url(#clip25)"><text fill="#595959" font-family="Calibri,Calibri_MSFontService,sans-serif" font-weight="400" font-size="41" transform="matrix(1 0 0 1 6421.84 1934)">Parquet aktualisiert</text></g><g clip-path="url(#clip26)"><rect x="6811" y="1911" width="23" height="23" fill="#8FAADC"/></g><g clip-path="url(#clip27)"><text fill="#595959" font-family="Calibri,Calibri_MSFontService,sans-serif" font-weight="400" font-size="41" transform="matrix(1 0 0 1 6843.69 1934)">Delta aktualisiert</text></g><g clip-path="url(#clip28)"><rect x="7189" y="1911" width="23" height="23" fill="#548235"/></g><g clip-path="url(#clip29)"><text fill="#595959" font-family="Calibri,Calibri_MSFontService,sans-serif" font-weight="400" font-size="41" transform="matrix(1 0 0 1 7221.32 1934)">Parquet CDC</text></g><g clip-path="url(#clip30)"><rect x="7493" y="1911" width="23" height="23" fill="#A9D18E"/></g><g clip-path="url(#clip31)"><text fill="#595959" font-family="Calibri,Calibri_MSFontService,sans-serif" font-weight="400" font-size="41" transform="matrix(1 0 0 1 7525.52 1934)">Delta CDC</text></g><rect x="6071.5" y="1856.5" width="1925" height="1581" stroke="#D9D9D9" stroke-width="3.4375" stroke-linejoin="round" stroke-miterlimit="10" fill="none"/></g></svg>