<svg width="1652" height="1101" xmlns="http://www.w3.org/2000/svg" xmlns:xlink="http://www.w3.org/1999/xlink" overflow="hidden"><defs><clipPath id="clip0"><rect x="5045" y="2612" width="1652" height="1101"/></clipPath><clipPath id="clip1"><rect x="5046" y="2612" width="1650" height="1100"/></clipPath><clipPath id="clip2"><rect x="5046" y="2612" width="1650" height="1100"/></clipPath><clipPath id="clip3"><rect x="5306" y="2767" width="1343" height="745"/></clipPath><clipPath id="clip4"><rect x="5306" y="2767" width="1343" height="745"/></clipPath><clipPath id="clip5"><rect x="5306" y="2767" width="1343" height="745"/></clipPath><clipPath id="clip6"><rect x="5306" y="2767" width="1343" height="745"/></clipPath><clipPath id="clip7"><rect x="5046" y="2612" width="1650" height="1100"/></clipPath><clipPath id="clip8"><rect x="5046" y="2612" width="1650" height="1100"/></clipPath><clipPath id="clip9"><rect x="5046" y="2612" width="1650" height="1100"/></clipPath><clipPath id="clip10"><rect x="5046" y="2612" width="1650" height="1100"/></clipPath><clipPath id="clip11"><rect x="5046" y="2612" width="1650" height="1100"/></clipPath><clipPath id="clip12"><rect x="5046" y="2612" width="1650" height="1100"/></clipPath><clipPath id="clip13"><rect x="5046" y="2612" width="1650" height="1100"/></clipPath><clipPath id="clip14"><rect x="5046" y="2612" width="1650" height="1100"/></clipPath><clipPath id="clip15"><rect x="5046" y="2612" width="1650" height="1100"/></clipPath><clipPath id="clip16"><rect x="5046" y="2612" width="1650" height="1100"/></clipPath><clipPath id="clip17"><rect x="5046" y="2612" width="1650" height="1100"/></clipPath><clipPath id="clip18"><rect x="5046" y="2612" width="1650" height="1100"/></clipPath><clipPath id="clip19"><rect x="5046" y="2612" width="1650" height="1100"/></clipPath><clipPath id="clip20"><rect x="5046" y="2612" width="1650" height="1100"/></clipPath><clipPath id="clip21"><rect x="5046" y="2612" width="1650" height="1100"/></clipPath><clipPath id="clip22"><rect x="5046" y="2612" width="1650" height="1100"/></clipPath><clipPath id="clip23"><rect x="5046" y="2612" width="1650" height="1100"/></clipPath><clipPath id="clip24"><rect x="5046" y="2612" width="1650" height="1100"/></clipPath><clipPath id="clip25"><rect x="5046" y="2612" width="1650" height="1100"/></clipPath><clipPath id="clip26"><rect x="5046" y="2612" width="1650" height="1100"/></clipPath><clipPath id="clip27"><rect x="5046" y="2612" width="1650" height="1100"/></clipPath><clipPath id="clip28"><rect x="5046" y="2612" width="1650" height="1100"/></clipPath><clipPath id="clip29"><rect x="5046" y="2612" width="1650" height="1100"/></clipPath><clipPath id="clip30"><rect x="5046" y="2612" width="1650" height="1100"/></clipPath><clipPath id="clip31"><rect x="5046" y="2612" width="1650" height="1100"/></clipPath><clipPath id="clip32"><rect x="5046" y="2612" width="1650" height="1100"/></clipPath><clipPath id="clip33"><rect x="5046" y="2612" width="1650" height="1100"/></clipPath></defs><g clip-path="url(#clip0)" transform="translate(-5045 -2612)"><rect x="5046" y="2613" width="1650" height="1099" fill="#FFFFFF"/><g clip-path="url(#clip1)"><rect x="5306" y="2768" width="1340" height="741" fill="#FFFFFF"/></g><g clip-path="url(#clip2)"><path d="M5306.5 3402.61 6645.5 3402.61M5306.5 3297.61 6645.5 3297.61M5306.5 3191.6 6645.5 3191.6M5306.5 3085.6 6645.5 3085.6M5306.5 2979.6 6645.5 2979.6M5306.5 2873.59 6645.5 2873.59M5306.5 2767.5 6645.5 2767.5" stroke="#D9D9D9" stroke-width="3.4375" stroke-linejoin="round" stroke-miterlimit="10" fill="none"/></g><g clip-path="url(#clip3)"><path d="M5329.17 3435.11 5359.18 3435.11 5359.18 3509 5329.17 3509ZM5496.18 3423.11 5527.18 3423.11 5527.18 3509 5496.18 3509ZM5664.19 3405.11 5694.19 3405.11 5694.19 3509 5664.19 3509ZM5831.19 3392.11 5862.19 3392.11 5862.19 3509 5831.19 3509ZM5999.2 3374.11 6029.2 3374.11 6029.2 3509 5999.2 3509ZM6166.2 3282.11 6197.2 3282.11 6197.2 3509 6166.2 3509ZM6334.21 3074.1 6364.21 3074.1 6364.21 3509 6334.21 3509ZM6501.21 2884.09 6531.21 2884.09 6531.21 3509 6501.21 3509Z" fill="#2F5597"/></g><g clip-path="url(#clip4)"><path d="M5359.18 3435.11 5390.18 3435.11 5390.18 3509 5359.18 3509ZM5527.18 3423.11 5557.18 3423.11 5557.18 3509 5527.18 3509ZM5694.19 3405.11 5725.19 3405.11 5725.19 3509 5694.19 3509ZM5862.19 3392.11 5892.19 3392.11 5892.19 3509 5862.19 3509ZM6029.2 3374.11 6060.2 3374.11 6060.2 3509 6029.2 3509ZM6197.2 3282.11 6227.2 3282.11 6227.2 3509 6197.2 3509ZM6364.21 3074.1 6394.21 3074.1 6394.21 3509 6364.21 3509ZM6531.21 2884.09 6562.22 2884.09 6562.22 3509 6531.21 3509Z" fill="#8FAADC"/></g><g clip-path="url(#clip5)"><path d="M5390.18 3435.11 5420.18 3435.11 5420.18 3509 5390.18 3509ZM5557.18 3423.11 5588.18 3423.11 5588.18 3509 5557.18 3509ZM5725.19 3405.11 5755.19 3405.11 5755.19 3509 5725.19 3509ZM5892.19 3399.11 5923.19 3399.11 5923.19 3509 5892.19 3509ZM6060.2 3380.11 6090.2 3380.11 6090.2 3509 6060.2 3509ZM6227.2 3288.11 6257.21 3288.11 6257.21 3509 6227.2 3509ZM6394.21 3086.1 6425.21 3086.1 6425.21 3509 6394.21 3509ZM6562.22 2921.1 6592.22 2921.1 6592.22 3509 6562.22 3509Z" fill="#548235"/></g><g clip-path="url(#clip6)"><path d="M5420.18 3435.11 5451.18 3435.11 5451.18 3509 5420.18 3509ZM5588.18 3423.11 5618.18 3423.11 5618.18 3509 5588.18 3509ZM5755.19 3405.11 5786.19 3405.11 5786.19 3509 5755.19 3509ZM5923.19 3399.11 5953.2 3399.11 5953.2 3509 5923.19 3509ZM6090.2 3380.11 6120.2 3380.11 6120.2 3509 6090.2 3509ZM6257.21 3288.11 6288.21 3288.11 6288.21 3509 6257.21 3509ZM6425.21 3086.1 6455.21 3086.1 6455.21 3509 6425.21 3509ZM6592.22 2921.1 6623.22 2921.1 6623.22 3509 6592.22 3509Z" fill="#A9D18E"/></g><g clip-path="url(#clip7)"><path d="M5306.5 3508.5 6645.5 3508.5" stroke="#D9D9D9" stroke-width="3.4375" stroke-linejoin="round" stroke-miterlimit="10" fill="none" fill-rule="evenodd"/></g><g clip-path="url(#clip8)"><text fill="#595959" font-family="Calibri,Calibri_MSFontService,sans-serif" font-weight="400" font-size="41" transform="matrix(1 0 0 1 5173.23 3521)">00:00</text></g><g clip-path="url(#clip9)"><text fill="#595959" font-family="Calibri,Calibri_MSFontService,sans-serif" font-weight="400" font-size="41" transform="matrix(1 0 0 1 5173.23 3415)">00:17</text></g><g clip-path="url(#clip10)"><text fill="#595959" font-family="Calibri,Calibri_MSFontService,sans-serif" font-weight="400" font-size="41" transform="matrix(1 0 0 1 5173.23 3309)">00:35</text></g><g clip-path="url(#clip11)"><text fill="#595959" font-family="Calibri,Calibri_MSFontService,sans-serif" font-weight="400" font-size="41" transform="matrix(1 0 0 1 5173.23 3203)">00:52</text></g><g clip-path="url(#clip12)"><text fill="#595959" font-family="Calibri,Calibri_MSFontService,sans-serif" font-weight="400" font-size="41" transform="matrix(1 0 0 1 5173.23 3097)">01:09</text></g><g clip-path="url(#clip13)"><text fill="#595959" font-family="Calibri,Calibri_MSFontService,sans-serif" font-weight="400" font-size="41" transform="matrix(1 0 0 1 5173.23 2991)">01:26</text></g><g clip-path="url(#clip14)"><text fill="#595959" font-family="Calibri,Calibri_MSFontService,sans-serif" font-weight="400" font-size="41" transform="matrix(1 0 0 1 5173.23 2885)">01:44</text></g><g clip-path="url(#clip15)"><text fill="#595959" font-family="Calibri,Calibri_MSFontService,sans-serif" font-weight="400" font-size="41" transform="matrix(1 0 0 1 5173.23 2779)">02:01</text></g><g clip-path="url(#clip16)"><text fill="#595959" font-family="Calibri,Calibri_MSFontService,sans-serif" font-weight="400" font-size="41" transform="matrix(1 0 0 1 5327.17 3574)">100000</text></g><g clip-path="url(#clip17)"><text fill="#595959" font-family="Calibri,Calibri_MSFontService,sans-serif" font-weight="400" font-size="41" transform="matrix(1 0 0 1 5494.64 3574)">250000</text></g><g clip-path="url(#clip18)"><text fill="#595959" font-family="Calibri,Calibri_MSFontService,sans-serif" font-weight="400" font-size="41" transform="matrix(1 0 0 1 5662.1 3574)">500000</text></g><g clip-path="url(#clip19)"><text fill="#595959" font-family="Calibri,Calibri_MSFontService,sans-serif" font-weight="400" font-size="41" transform="matrix(1 0 0 1 5829.56 3574)">750000</text></g><g clip-path="url(#clip20)"><text fill="#595959" font-family="Calibri,Calibri_MSFontService,sans-serif" font-weight="400" font-size="41" transform="matrix(1 0 0 1 5986.57 3574)">1000000</text></g><g clip-path="url(#clip21)"><text fill="#595959" font-family="Calibri,Calibri_MSFontService,sans-serif" font-weight="400" font-size="41" transform="matrix(1 0 0 1 6154.03 3574)">2500000</text></g><g clip-path="url(#clip22)"><text fill="#595959" font-family="Calibri,Calibri_MSFontService,sans-serif" font-weight="400" font-size="41" transform="matrix(1 0 0 1 6321.49 3574)">5000000</text></g><g clip-path="url(#clip23)"><text fill="#595959" font-family="Calibri,Calibri_MSFontService,sans-serif" font-weight="400" font-size="41" transform="matrix(1 0 0 1 6488.95 3574)">7500000</text></g><g clip-path="url(#clip24)"><text fill="#595959" font-family="Calibri,Calibri_MSFontService,sans-serif" font-weight="400" font-size="46" transform="matrix(6.12323e-17 -1 1 6.12323e-17 5147.54 3173)">Zeit</text></g><g clip-path="url(#clip25)"><text fill="#595959" font-family="Calibri,Calibri_MSFontService,sans-serif" font-weight="400" font-size="46" transform="matrix(1 0 0 1 5919.89 3643)">Zeilen</text></g><g clip-path="url(#clip26)"><rect x="5426" y="2667" width="22" height="22.9998" fill="#2F5597"/></g><g clip-path="url(#clip27)"><text fill="#595959" font-family="Calibri,Calibri_MSFontService,sans-serif" font-weight="400" font-size="41" transform="matrix(1 0 0 1 5457.86 2690)">Paruqet S1</text></g><g clip-path="url(#clip28)"><rect x="5686" y="2667" width="23" height="22.9998" fill="#8FAADC"/></g><g clip-path="url(#clip29)"><text fill="#595959" font-family="Calibri,Calibri_MSFontService,sans-serif" font-weight="400" font-size="41" transform="matrix(1 0 0 1 5718.4 2690)">Delta S1</text></g><g clip-path="url(#clip30)"><rect x="5902" y="2667" width="23" height="22.9998" fill="#548235"/></g><g clip-path="url(#clip31)"><text fill="#595959" font-family="Calibri,Calibri_MSFontService,sans-serif" font-weight="400" font-size="41" transform="matrix(1 0 0 1 5934.73 2690)">Parquet S2</text></g><g clip-path="url(#clip32)"><rect x="6163" y="2667" width="23" height="22.9998" fill="#A9D18E"/></g><g clip-path="url(#clip33)"><text fill="#595959" font-family="Calibri,Calibri_MSFontService,sans-serif" font-weight="400" font-size="41" transform="matrix(1 0 0 1 6195.27 2690)">Delta S2</text></g><rect x="5046" y="2613" width="1650" height="1099" stroke="#898989" stroke-width="2.29167" stroke-linejoin="round" stroke-miterlimit="10" fill="none"/></g></svg>