<svg width="1653" height="1584" xmlns="http://www.w3.org/2000/svg" xmlns:xlink="http://www.w3.org/1999/xlink" overflow="hidden"><defs><clipPath id="clip0"><rect x="3870" y="3574" width="1653" height="1584"/></clipPath><clipPath id="clip1"><rect x="3870" y="3575" width="1650" height="1581"/></clipPath><clipPath id="clip2"><rect x="4182" y="3730" width="1208" height="1226"/></clipPath><clipPath id="clip3"><rect x="4182" y="3730" width="1208" height="1226"/></clipPath><clipPath id="clip4"><rect x="4182" y="3730" width="1208" height="1226"/></clipPath><clipPath id="clip5"><rect x="4182" y="3730" width="1208" height="1226"/></clipPath><clipPath id="clip6"><rect x="3870" y="3575" width="1650" height="1581"/></clipPath><clipPath id="clip7"><rect x="3870" y="3575" width="1650" height="1581"/></clipPath><clipPath id="clip8"><rect x="3870" y="3575" width="1650" height="1581"/></clipPath><clipPath id="clip9"><rect x="3870" y="3575" width="1650" height="1581"/></clipPath><clipPath id="clip10"><rect x="3870" y="3575" width="1650" height="1581"/></clipPath><clipPath id="clip11"><rect x="3870" y="3575" width="1650" height="1581"/></clipPath><clipPath id="clip12"><rect x="3870" y="3575" width="1650" height="1581"/></clipPath><clipPath id="clip13"><rect x="3870" y="3575" width="1650" height="1581"/></clipPath><clipPath id="clip14"><rect x="3870" y="3575" width="1650" height="1581"/></clipPath><clipPath id="clip15"><rect x="3870" y="3575" width="1650" height="1581"/></clipPath><clipPath id="clip16"><rect x="3870" y="3575" width="1650" height="1581"/></clipPath><clipPath id="clip17"><rect x="3870" y="3575" width="1650" height="1581"/></clipPath><clipPath id="clip18"><rect x="3870" y="3575" width="1650" height="1581"/></clipPath><clipPath id="clip19"><rect x="3870" y="3575" width="1650" height="1581"/></clipPath><clipPath id="clip20"><rect x="3870" y="3575" width="1650" height="1581"/></clipPath><clipPath id="clip21"><rect x="3870" y="3575" width="1650" height="1581"/></clipPath><clipPath id="clip22"><rect x="3870" y="3575" width="1650" height="1581"/></clipPath><clipPath id="clip23"><rect x="3870" y="3575" width="1650" height="1581"/></clipPath><clipPath id="clip24"><rect x="3870" y="3575" width="1650" height="1581"/></clipPath><clipPath id="clip25"><rect x="3870" y="3575" width="1650" height="1581"/></clipPath><clipPath id="clip26"><rect x="3870" y="3575" width="1650" height="1581"/></clipPath><clipPath id="clip27"><rect x="3870" y="3575" width="1650" height="1581"/></clipPath><clipPath id="clip28"><rect x="3870" y="3575" width="1650" height="1581"/></clipPath><clipPath id="clip29"><rect x="3870" y="3575" width="1650" height="1581"/></clipPath><clipPath id="clip30"><rect x="3870" y="3575" width="1650" height="1581"/></clipPath></defs><g clip-path="url(#clip0)" transform="translate(-3870 -3574)"><rect x="3871" y="3575" width="1650" height="1581" fill="#FFFFFF"/><g clip-path="url(#clip1)"><path d="M4422.65 3730.5 4422.65 4952.5M4663.65 3730.5 4663.65 4952.5M4904.66 3730.5 4904.66 4952.5M5145.67 3730.5 5145.67 4952.5M5386.5 3730.5 5386.5 4952.5" stroke="#D9D9D9" stroke-width="3.4375" stroke-linejoin="round" stroke-miterlimit="10" fill="none"/></g><g clip-path="url(#clip2)"><path d="M4190.14 4932.16 4182 4932.16 4182 4904.16 4190.14 4904.16ZM4202.14 4779.16 4182 4779.16 4182 4751.16 4202.14 4751.16ZM4222.14 4626.15 4182 4626.15 4182 4598.15 4222.14 4598.15ZM4242.14 4473.15 4182 4473.15 4182 4446.15 4242.14 4446.15ZM4262.14 4321.14 4182 4321.14 4182 4293.14 4262.14 4293.14ZM4381.14 4168.14 4182 4168.14 4182 4140.14 4381.14 4140.14ZM4581.15 4015.13 4182 4015.13 4182 3987.13 4581.15 3987.13ZM4782.16 3862.13 4182 3862.13 4182 3834.13 4782.16 3834.13Z" fill="#A9D18E"/></g><g clip-path="url(#clip3)"><path d="M4190.14 4904.16 4182 4904.16 4182 4876.16 4190.14 4876.16ZM4202.14 4751.16 4182 4751.16 4182 4723.15 4202.14 4723.15ZM4222.14 4598.15 4182 4598.15 4182 4571.15 4222.14 4571.15ZM4242.14 4446.15 4182 4446.15 4182 4418.15 4242.14 4418.15ZM4262.14 4293.14 4182 4293.14 4182 4265.14 4262.14 4265.14ZM4381.14 4140.14 4182 4140.14 4182 4112.13 4381.14 4112.13ZM4581.15 3987.13 4182 3987.13 4182 3959.13 4581.15 3959.13ZM4782.16 3834.13 4182 3834.13 4182 3807.12 4782.16 3807.12Z" fill="#548235"/></g><g clip-path="url(#clip4)"><path d="M4195.14 4876.16 4182 4876.16 4182 4848.16 4195.14 4848.16ZM4214.14 4723.15 4182 4723.15 4182 4696.15 4214.14 4696.15ZM4245.14 4571.15 4182 4571.15 4182 4543.15 4245.14 4543.15ZM4276.14 4418.15 4182 4418.15 4182 4390.14 4276.14 4390.14ZM4308.14 4265.14 4182 4265.14 4182 4237.14 4308.14 4237.14ZM4496.15 4112.13 4182 4112.13 4182 4084.13 4496.15 4084.13ZM4810.16 3959.13 4182 3959.13 4182 3932.13 4810.16 3932.13ZM5124.17 3807.12 4182 3807.12 4182 3779.12 5124.17 3779.12Z" fill="#8FAADC"/></g><g clip-path="url(#clip5)"><path d="M4190.14 4848.16 4182 4848.16 4182 4821.16 4190.14 4821.16ZM4202.14 4696.15 4182 4696.15 4182 4668.15 4202.14 4668.15ZM4222.14 4543.15 4182 4543.15 4182 4515.15 4222.14 4515.15ZM4242.14 4390.14 4182 4390.14 4182 4362.14 4242.14 4362.14ZM4262.14 4237.14 4182 4237.14 4182 4209.14 4262.14 4209.14ZM4382.14 4084.13 4182 4084.13 4182 4057.13 4382.14 4057.13ZM4581.15 3932.13 4182 3932.13 4182 3904.13 4581.15 3904.13ZM4781.16 3779.12 4182 3779.12 4182 3751.12 4781.16 3751.12Z" fill="#2F5597"/></g><g clip-path="url(#clip6)"><path d="M0 0 0.000360892 1222" stroke="#D9D9D9" stroke-width="3.4375" stroke-linejoin="round" stroke-miterlimit="10" fill="none" fill-rule="evenodd" transform="matrix(1 0 0 -1 4182.5 4952.5)"/></g><g clip-path="url(#clip7)"><text fill="#595959" font-family="Calibri,Calibri_MSFontService,sans-serif" font-weight="400" font-size="41" transform="matrix(1 0 0 1 4145.68 5018)">0,00</text></g><g clip-path="url(#clip8)"><text fill="#595959" font-family="Calibri,Calibri_MSFontService,sans-serif" font-weight="400" font-size="41" transform="matrix(1 0 0 1 4350.03 5018)">5.000,00</text></g><g clip-path="url(#clip9)"><text fill="#595959" font-family="Calibri,Calibri_MSFontService,sans-serif" font-weight="400" font-size="41" transform="matrix(1 0 0 1 4580.49 5018)">10.000,00</text></g><g clip-path="url(#clip10)"><text fill="#595959" font-family="Calibri,Calibri_MSFontService,sans-serif" font-weight="400" font-size="41" transform="matrix(1 0 0 1 4821.4 5018)">15.000,00</text></g><g clip-path="url(#clip11)"><text fill="#595959" font-family="Calibri,Calibri_MSFontService,sans-serif" font-weight="400" font-size="41" transform="matrix(1 0 0 1 5062.31 5018)">20.000,00</text></g><g clip-path="url(#clip12)"><text fill="#595959" font-family="Calibri,Calibri_MSFontService,sans-serif" font-weight="400" font-size="41" transform="matrix(1 0 0 1 5303.21 5018)">25.000,00</text></g><g clip-path="url(#clip13)"><text fill="#595959" font-family="Calibri,Calibri_MSFontService,sans-serif" font-weight="400" font-size="41" transform="matrix(1 0 0 1 4018.51 4888)">100000</text></g><g clip-path="url(#clip14)"><text fill="#595959" font-family="Calibri,Calibri_MSFontService,sans-serif" font-weight="400" font-size="41" transform="matrix(1 0 0 1 4018.51 4735)">250000</text></g><g clip-path="url(#clip15)"><text fill="#595959" font-family="Calibri,Calibri_MSFontService,sans-serif" font-weight="400" font-size="41" transform="matrix(1 0 0 1 4018.51 4582)">500000</text></g><g clip-path="url(#clip16)"><text fill="#595959" font-family="Calibri,Calibri_MSFontService,sans-serif" font-weight="400" font-size="41" transform="matrix(1 0 0 1 4018.51 4429)">750000</text></g><g clip-path="url(#clip17)"><text fill="#595959" font-family="Calibri,Calibri_MSFontService,sans-serif" font-weight="400" font-size="41" transform="matrix(1 0 0 1 3997.61 4277)">1000000</text></g><g clip-path="url(#clip18)"><text fill="#595959" font-family="Calibri,Calibri_MSFontService,sans-serif" font-weight="400" font-size="41" transform="matrix(1 0 0 1 3997.61 4124)">2500000</text></g><g clip-path="url(#clip19)"><text fill="#595959" font-family="Calibri,Calibri_MSFontService,sans-serif" font-weight="400" font-size="41" transform="matrix(1 0 0 1 3997.61 3971)">5000000</text></g><g clip-path="url(#clip20)"><text fill="#595959" font-family="Calibri,Calibri_MSFontService,sans-serif" font-weight="400" font-size="41" transform="matrix(1 0 0 1 3997.61 3818)">7500000</text></g><g clip-path="url(#clip21)"><text fill="#595959" font-family="Calibri,Calibri_MSFontService,sans-serif" font-weight="400" font-size="46" transform="matrix(1 0 0 1 4644.36 5087)">Speicher in MB</text></g><g clip-path="url(#clip22)"><text fill="#595959" font-family="Calibri,Calibri_MSFontService,sans-serif" font-weight="400" font-size="46" transform="matrix(6.12323e-17 -1 1 6.12323e-17 3971.92 4398)">Zeilen</text></g><g clip-path="url(#clip23)"><rect x="4052" y="3630" width="23" height="23" fill="#2F5597"/></g><g clip-path="url(#clip24)"><text fill="#595959" font-family="Calibri,Calibri_MSFontService,sans-serif" font-weight="400" font-size="41" transform="matrix(1 0 0 1 4084.34 3653)">Parquet aktualisiert</text></g><g clip-path="url(#clip25)"><rect x="4474" y="3630" width="23" height="23" fill="#8FAADC"/></g><g clip-path="url(#clip26)"><text fill="#595959" font-family="Calibri,Calibri_MSFontService,sans-serif" font-weight="400" font-size="41" transform="matrix(1 0 0 1 4506.19 3653)">Delta aktualisiert</text></g><g clip-path="url(#clip27)"><rect x="4852" y="3630" width="22" height="23" fill="#548235"/></g><g clip-path="url(#clip28)"><text fill="#595959" font-family="Calibri,Calibri_MSFontService,sans-serif" font-weight="400" font-size="41" transform="matrix(1 0 0 1 4883.82 3653)">Parquet CDC</text></g><g clip-path="url(#clip29)"><rect x="5156" y="3630" width="22" height="23" fill="#A9D18E"/></g><g clip-path="url(#clip30)"><text fill="#595959" font-family="Calibri,Calibri_MSFontService,sans-serif" font-weight="400" font-size="41" transform="matrix(1 0 0 1 5188.02 3653)">Delta CDC</text></g><rect x="3871.5" y="3575.5" width="1650" height="1581" stroke="#D9D9D9" stroke-width="3.4375" stroke-linejoin="round" stroke-miterlimit="10" fill="none"/></g></svg>