<svg width="1652" height="1102" xmlns="http://www.w3.org/2000/svg" xmlns:xlink="http://www.w3.org/1999/xlink" overflow="hidden"><defs><clipPath id="clip0"><rect x="2845" y="1374" width="1652" height="1102"/></clipPath><clipPath id="clip1"><rect x="2846" y="1375" width="1650" height="1100"/></clipPath><clipPath id="clip2"><rect x="2846" y="1375" width="1650" height="1100"/></clipPath><clipPath id="clip3"><rect x="3106" y="1530" width="1343" height="744"/></clipPath><clipPath id="clip4"><rect x="3106" y="1530" width="1343" height="744"/></clipPath><clipPath id="clip5"><rect x="3106" y="1530" width="1343" height="744"/></clipPath><clipPath id="clip6"><rect x="3106" y="1530" width="1343" height="744"/></clipPath><clipPath id="clip7"><rect x="2846" y="1375" width="1650" height="1100"/></clipPath><clipPath id="clip8"><rect x="2846" y="1375" width="1650" height="1100"/></clipPath><clipPath id="clip9"><rect x="2846" y="1375" width="1650" height="1100"/></clipPath><clipPath id="clip10"><rect x="2846" y="1375" width="1650" height="1100"/></clipPath><clipPath id="clip11"><rect x="2846" y="1375" width="1650" height="1100"/></clipPath><clipPath id="clip12"><rect x="2846" y="1375" width="1650" height="1100"/></clipPath><clipPath id="clip13"><rect x="2846" y="1375" width="1650" height="1100"/></clipPath><clipPath id="clip14"><rect x="2846" y="1375" width="1650" height="1100"/></clipPath><clipPath id="clip15"><rect x="2846" y="1375" width="1650" height="1100"/></clipPath><clipPath id="clip16"><rect x="2846" y="1375" width="1650" height="1100"/></clipPath><clipPath id="clip17"><rect x="2846" y="1375" width="1650" height="1100"/></clipPath><clipPath id="clip18"><rect x="2846" y="1375" width="1650" height="1100"/></clipPath><clipPath id="clip19"><rect x="2846" y="1375" width="1650" height="1100"/></clipPath><clipPath id="clip20"><rect x="2846" y="1375" width="1650" height="1100"/></clipPath><clipPath id="clip21"><rect x="2846" y="1375" width="1650" height="1100"/></clipPath><clipPath id="clip22"><rect x="2846" y="1375" width="1650" height="1100"/></clipPath><clipPath id="clip23"><rect x="2846" y="1375" width="1650" height="1100"/></clipPath><clipPath id="clip24"><rect x="2846" y="1375" width="1650" height="1100"/></clipPath><clipPath id="clip25"><rect x="2846" y="1375" width="1650" height="1100"/></clipPath><clipPath id="clip26"><rect x="2846" y="1375" width="1650" height="1100"/></clipPath><clipPath id="clip27"><rect x="2846" y="1375" width="1650" height="1100"/></clipPath><clipPath id="clip28"><rect x="2846" y="1375" width="1650" height="1100"/></clipPath><clipPath id="clip29"><rect x="2846" y="1375" width="1650" height="1100"/></clipPath><clipPath id="clip30"><rect x="2846" y="1375" width="1650" height="1100"/></clipPath><clipPath id="clip31"><rect x="2846" y="1375" width="1650" height="1100"/></clipPath><clipPath id="clip32"><rect x="2846" y="1375" width="1650" height="1100"/></clipPath><clipPath id="clip33"><rect x="2846" y="1375" width="1650" height="1100"/></clipPath><clipPath id="clip34"><rect x="2846" y="1375" width="1650" height="1100"/></clipPath><clipPath id="clip35"><rect x="2846" y="1375" width="1650" height="1100"/></clipPath><clipPath id="clip36"><rect x="2846" y="1375" width="1650" height="1100"/></clipPath></defs><g clip-path="url(#clip0)" transform="translate(-2845 -1374)"><rect x="2846" y="1375" width="1650" height="1100" fill="#FFFFFF"/><g clip-path="url(#clip1)"><rect x="3106" y="1530" width="1340" height="741" fill="#FFFFFF"/></g><g clip-path="url(#clip2)"><path d="M3106.5 2197.57 4445.5 2197.57M3106.5 2123.57 4445.5 2123.57M3106.5 2049.57 4445.5 2049.57M3106.5 1974.56 4445.5 1974.56M3106.5 1900.56 4445.5 1900.56M3106.5 1826.56 4445.5 1826.56M3106.5 1752.56 4445.5 1752.56M3106.5 1678.56 4445.5 1678.56M3106.5 1604.55 4445.5 1604.55M3106.5 1530.5 4445.5 1530.5" stroke="#D9D9D9" stroke-width="3.4375" stroke-linejoin="round" stroke-miterlimit="10" fill="none"/></g><g clip-path="url(#clip3)"><path d="M3129.1 2256.07 3159.1 2256.07 3159.1 2271 3129.1 2271ZM3296.11 2251.07 3327.11 2251.07 3327.11 2271 3296.11 2271ZM3464.11 2244.07 3494.11 2244.07 3494.11 2271 3464.11 2271ZM3631.12 2237.07 3662.12 2237.07 3662.12 2271 3631.12 2271ZM3799.12 2232.07 3829.13 2232.07 3829.13 2271 3799.12 2271ZM3966.13 2189.07 3997.13 2189.07 3997.13 2271 3966.13 2271ZM4134.14 2120.07 4164.14 2120.07 4164.14 2271 4134.14 2271ZM4301.14 2045.07 4332.14 2045.07 4332.14 2271 4301.14 2271Z" fill="#2F5597"/></g><g clip-path="url(#clip4)"><path d="M3159.1 2227.07 3190.1 2227.07 3190.1 2271 3159.1 2271ZM3327.11 2213.07 3357.11 2213.07 3357.11 2271 3327.11 2271ZM3494.11 2199.07 3525.12 2199.07 3525.12 2271 3494.11 2271ZM3662.12 2186.07 3692.12 2186.07 3692.12 2271 3662.12 2271ZM3829.13 2175.07 3860.13 2175.07 3860.13 2271 3829.13 2271ZM3997.13 2074.07 4027.13 2074.07 4027.13 2271 3997.13 2271ZM4164.14 1904.06 4195.14 1904.06 4195.14 2271 4164.14 2271ZM4332.14 1736.06 4362.14 1736.06 4362.14 2271 4332.14 2271Z" fill="#8FAADC"/></g><g clip-path="url(#clip5)"><path d="M3190.1 2254.07 3220.11 2254.07 3220.11 2271 3190.1 2271ZM3357.11 2251.07 3388.11 2251.07 3388.11 2271 3357.11 2271ZM3525.12 2239.07 3555.12 2239.07 3555.12 2271 3525.12 2271ZM3692.12 2230.07 3723.12 2230.07 3723.12 2271 3692.12 2271ZM3860.13 2220.07 3890.13 2220.07 3890.13 2271 3860.13 2271ZM4027.13 2162.07 4057.13 2162.07 4057.13 2271 4027.13 2271ZM4195.14 2062.07 4225.14 2062.07 4225.14 2271 4195.14 2271ZM4362.14 1949.06 4392.14 1949.06 4392.14 2271 4362.14 2271Z" fill="#548235"/></g><g clip-path="url(#clip6)"><path d="M3220.11 2227.07 3251.11 2227.07 3251.11 2271 3220.11 2271ZM3388.11 2217.07 3418.11 2217.07 3418.11 2271 3388.11 2271ZM3555.12 2199.07 3586.12 2199.07 3586.12 2271 3555.12 2271ZM3723.12 2175.07 3753.12 2175.07 3753.12 2271 3723.12 2271ZM3890.13 2138.07 3920.13 2138.07 3920.13 2271 3890.13 2271ZM4057.13 2036.07 4088.13 2036.07 4088.13 2271 4057.13 2271ZM4225.14 1801.06 4255.14 1801.06 4255.14 2271 4225.14 2271ZM4392.14 1573.05 4423.15 1573.05 4423.15 2271 4392.14 2271Z" fill="#A9D18E"/></g><g clip-path="url(#clip7)"><path d="M3106.5 2271.5 4445.5 2271.5" stroke="#D9D9D9" stroke-width="3.4375" stroke-linejoin="round" stroke-miterlimit="10" fill="none" fill-rule="evenodd"/></g><g clip-path="url(#clip8)"><text fill="#595959" font-family="Calibri,Calibri_MSFontService,sans-serif" font-weight="400" font-size="41" transform="matrix(1 0 0 1 2973.23 2283)">00:00</text></g><g clip-path="url(#clip9)"><text fill="#595959" font-family="Calibri,Calibri_MSFontService,sans-serif" font-weight="400" font-size="41" transform="matrix(1 0 0 1 2973.23 2209)">00:43</text></g><g clip-path="url(#clip10)"><text fill="#595959" font-family="Calibri,Calibri_MSFontService,sans-serif" font-weight="400" font-size="41" transform="matrix(1 0 0 1 2973.23 2135)">01:26</text></g><g clip-path="url(#clip11)"><text fill="#595959" font-family="Calibri,Calibri_MSFontService,sans-serif" font-weight="400" font-size="41" transform="matrix(1 0 0 1 2973.23 2061)">02:10</text></g><g clip-path="url(#clip12)"><text fill="#595959" font-family="Calibri,Calibri_MSFontService,sans-serif" font-weight="400" font-size="41" transform="matrix(1 0 0 1 2973.23 1987)">02:53</text></g><g clip-path="url(#clip13)"><text fill="#595959" font-family="Calibri,Calibri_MSFontService,sans-serif" font-weight="400" font-size="41" transform="matrix(1 0 0 1 2973.23 1912)">03:36</text></g><g clip-path="url(#clip14)"><text fill="#595959" font-family="Calibri,Calibri_MSFontService,sans-serif" font-weight="400" font-size="41" transform="matrix(1 0 0 1 2973.23 1838)">04:19</text></g><g clip-path="url(#clip15)"><text fill="#595959" font-family="Calibri,Calibri_MSFontService,sans-serif" font-weight="400" font-size="41" transform="matrix(1 0 0 1 2973.23 1764)">05:02</text></g><g clip-path="url(#clip16)"><text fill="#595959" font-family="Calibri,Calibri_MSFontService,sans-serif" font-weight="400" font-size="41" transform="matrix(1 0 0 1 2973.23 1690)">05:46</text></g><g clip-path="url(#clip17)"><text fill="#595959" font-family="Calibri,Calibri_MSFontService,sans-serif" font-weight="400" font-size="41" transform="matrix(1 0 0 1 2973.23 1616)">06:29</text></g><g clip-path="url(#clip18)"><text fill="#595959" font-family="Calibri,Calibri_MSFontService,sans-serif" font-weight="400" font-size="41" transform="matrix(1 0 0 1 2973.23 1542)">07:12</text></g><g clip-path="url(#clip19)"><text fill="#595959" font-family="Calibri,Calibri_MSFontService,sans-serif" font-weight="400" font-size="41" transform="matrix(1 0 0 1 3127.17 2337)">100000</text></g><g clip-path="url(#clip20)"><text fill="#595959" font-family="Calibri,Calibri_MSFontService,sans-serif" font-weight="400" font-size="41" transform="matrix(1 0 0 1 3294.64 2337)">250000</text></g><g clip-path="url(#clip21)"><text fill="#595959" font-family="Calibri,Calibri_MSFontService,sans-serif" font-weight="400" font-size="41" transform="matrix(1 0 0 1 3462.1 2337)">500000</text></g><g clip-path="url(#clip22)"><text fill="#595959" font-family="Calibri,Calibri_MSFontService,sans-serif" font-weight="400" font-size="41" transform="matrix(1 0 0 1 3629.56 2337)">750000</text></g><g clip-path="url(#clip23)"><text fill="#595959" font-family="Calibri,Calibri_MSFontService,sans-serif" font-weight="400" font-size="41" transform="matrix(1 0 0 1 3786.57 2337)">1000000</text></g><g clip-path="url(#clip24)"><text fill="#595959" font-family="Calibri,Calibri_MSFontService,sans-serif" font-weight="400" font-size="41" transform="matrix(1 0 0 1 3954.03 2337)">2500000</text></g><g clip-path="url(#clip25)"><text fill="#595959" font-family="Calibri,Calibri_MSFontService,sans-serif" font-weight="400" font-size="41" transform="matrix(1 0 0 1 4121.49 2337)">5000000</text></g><g clip-path="url(#clip26)"><text fill="#595959" font-family="Calibri,Calibri_MSFontService,sans-serif" font-weight="400" font-size="41" transform="matrix(1 0 0 1 4288.95 2337)">7500000</text></g><g clip-path="url(#clip27)"><text fill="#595959" font-family="Calibri,Calibri_MSFontService,sans-serif" font-weight="400" font-size="46" transform="matrix(6.12323e-17 -1 1 6.12323e-17 2947.54 1936)">Zeit</text></g><g clip-path="url(#clip28)"><text fill="#595959" font-family="Calibri,Calibri_MSFontService,sans-serif" font-weight="400" font-size="46" transform="matrix(1 0 0 1 3719.89 2406)">Zeilen</text></g><g clip-path="url(#clip29)"><rect x="3226" y="1430" width="22" height="23" fill="#2F5597"/></g><g clip-path="url(#clip30)"><text fill="#595959" font-family="Calibri,Calibri_MSFontService,sans-serif" font-weight="400" font-size="41" transform="matrix(1 0 0 1 3257.86 1453)">Paruqet S1</text></g><g clip-path="url(#clip31)"><rect x="3486" y="1430" width="23" height="23" fill="#8FAADC"/></g><g clip-path="url(#clip32)"><text fill="#595959" font-family="Calibri,Calibri_MSFontService,sans-serif" font-weight="400" font-size="41" transform="matrix(1 0 0 1 3518.4 1453)">Delta S1</text></g><g clip-path="url(#clip33)"><rect x="3702" y="1430" width="23" height="23" fill="#548235"/></g><g clip-path="url(#clip34)"><text fill="#595959" font-family="Calibri,Calibri_MSFontService,sans-serif" font-weight="400" font-size="41" transform="matrix(1 0 0 1 3734.73 1453)">Parquet S2</text></g><g clip-path="url(#clip35)"><rect x="3963" y="1430" width="23" height="23" fill="#A9D18E"/></g><g clip-path="url(#clip36)"><text fill="#595959" font-family="Calibri,Calibri_MSFontService,sans-serif" font-weight="400" font-size="41" transform="matrix(1 0 0 1 3995.27 1453)">Delta S2</text></g><rect x="2846" y="1375" width="1650" height="1100" stroke="#898989" stroke-width="2.29167" stroke-linejoin="round" stroke-miterlimit="10" fill="none"/></g></svg>