<svg width="1928" height="1584" xmlns="http://www.w3.org/2000/svg" xmlns:xlink="http://www.w3.org/1999/xlink" overflow="hidden"><defs><clipPath id="clip0"><rect x="6070" y="137" width="1928" height="1584"/></clipPath><clipPath id="clip1"><rect x="6070" y="137" width="1925" height="1581"/></clipPath><clipPath id="clip2"><rect x="6382" y="292" width="1493" height="1226"/></clipPath><clipPath id="clip3"><rect x="6382" y="292" width="1493" height="1226"/></clipPath><clipPath id="clip4"><rect x="6070" y="137" width="1925" height="1581"/></clipPath><clipPath id="clip5"><rect x="6070" y="137" width="1925" height="1581"/></clipPath><clipPath id="clip6"><rect x="6070" y="137" width="1925" height="1581"/></clipPath><clipPath id="clip7"><rect x="6070" y="137" width="1925" height="1581"/></clipPath><clipPath id="clip8"><rect x="6070" y="137" width="1925" height="1581"/></clipPath><clipPath id="clip9"><rect x="6070" y="137" width="1925" height="1581"/></clipPath><clipPath id="clip10"><rect x="6070" y="137" width="1925" height="1581"/></clipPath><clipPath id="clip11"><rect x="6070" y="137" width="1925" height="1581"/></clipPath><clipPath id="clip12"><rect x="6070" y="137" width="1925" height="1581"/></clipPath><clipPath id="clip13"><rect x="6070" y="137" width="1925" height="1581"/></clipPath><clipPath id="clip14"><rect x="6070" y="137" width="1925" height="1581"/></clipPath><clipPath id="clip15"><rect x="6070" y="137" width="1925" height="1581"/></clipPath><clipPath id="clip16"><rect x="6070" y="137" width="1925" height="1581"/></clipPath><clipPath id="clip17"><rect x="6070" y="137" width="1925" height="1581"/></clipPath><clipPath id="clip18"><rect x="6070" y="137" width="1925" height="1581"/></clipPath><clipPath id="clip19"><rect x="6070" y="137" width="1925" height="1581"/></clipPath><clipPath id="clip20"><rect x="6070" y="137" width="1925" height="1581"/></clipPath><clipPath id="clip21"><rect x="6070" y="137" width="1925" height="1581"/></clipPath><clipPath id="clip22"><rect x="6070" y="137" width="1925" height="1581"/></clipPath><clipPath id="clip23"><rect x="6070" y="137" width="1925" height="1581"/></clipPath><clipPath id="clip24"><rect x="6070" y="137" width="1925" height="1581"/></clipPath><clipPath id="clip25"><rect x="6070" y="137" width="1925" height="1581"/></clipPath></defs><g clip-path="url(#clip0)" transform="translate(-6070 -137)"><rect x="6071" y="138" width="1925" height="1581" fill="#FFFFFF"/><g clip-path="url(#clip1)"><path d="M6630.72 292.5 6630.72 1515.5M6878.73 292.5 6878.73 1515.5M7126.73 292.5 7126.73 1515.5M7375.74 292.5 7375.74 1515.5M7623.75 292.5 7623.75 1515.5M7872.5 292.5 7872.5 1515.5" stroke="#D9D9D9" stroke-width="3.4375" stroke-linejoin="round" stroke-miterlimit="10" fill="none"/></g><g clip-path="url(#clip2)"><path d="M6398.21 1482.05 6382 1482.05 6382 1439.05 6398.21 1439.05ZM6421.21 1330.04 6382 1330.04 6382 1286.04 6421.21 1286.04ZM6461.21 1177.04 6382 1177.04 6382 1133.04 6461.21 1133.04ZM6500.21 1024.03 6382 1024.03 6382 980.032 6500.21 980.032ZM6540.21 871.029 6382 871.029 6382 828.027 6540.21 828.027ZM6777.22 718.024 6382 718.024 6382 675.022 6777.22 675.022ZM7172.24 566.019 6382 566.019 6382 522.017 7172.24 522.017ZM7567.25 413.014 6382 413.014 6382 369.012 7567.25 369.012Z" fill="#8FAADC"/></g><g clip-path="url(#clip3)"><path d="M6398.21 1439.05 6382 1439.05 6382 1395.05 6398.21 1395.05ZM6421.21 1286.04 6382 1286.04 6382 1242.04 6421.21 1242.04ZM6461.21 1133.04 6382 1133.04 6382 1090.04 6461.21 1090.04ZM6500.21 980.032 6382 980.032 6382 937.031 6500.21 937.031ZM6540.21 828.027 6382 828.027 6382 784.026 6540.21 784.026ZM6777.22 675.022 6382 675.022 6382 631.021 6777.22 631.021ZM7172.24 522.017 6382 522.017 6382 478.016 7172.24 478.016ZM7567.25 369.012 6382 369.012 6382 325.011 7567.25 325.011Z" fill="#2F5597"/></g><g clip-path="url(#clip4)"><path d="M0 0 0.000360892 1223" stroke="#D9D9D9" stroke-width="3.4375" stroke-linejoin="round" stroke-miterlimit="10" fill="none" fill-rule="evenodd" transform="matrix(1 0 0 -1 6382.5 1515.5)"/></g><g clip-path="url(#clip5)"><text fill="#595959" font-family="Calibri,Calibri_MSFontService,sans-serif" font-weight="400" font-size="41" transform="matrix(1 0 0 1 6345.68 1580)">0,00</text></g><g clip-path="url(#clip6)"><text fill="#595959" font-family="Calibri,Calibri_MSFontService,sans-serif" font-weight="400" font-size="41" transform="matrix(1 0 0 1 6557.46 1580)">1.000,00</text></g><g clip-path="url(#clip7)"><text fill="#595959" font-family="Calibri,Calibri_MSFontService,sans-serif" font-weight="400" font-size="41" transform="matrix(1 0 0 1 6805.79 1580)">2.000,00</text></g><g clip-path="url(#clip8)"><text fill="#595959" font-family="Calibri,Calibri_MSFontService,sans-serif" font-weight="400" font-size="41" transform="matrix(1 0 0 1 7054.12 1580)">3.000,00</text></g><g clip-path="url(#clip9)"><text fill="#595959" font-family="Calibri,Calibri_MSFontService,sans-serif" font-weight="400" font-size="41" transform="matrix(1 0 0 1 7302.45 1580)">4.000,00</text></g><g clip-path="url(#clip10)"><text fill="#595959" font-family="Calibri,Calibri_MSFontService,sans-serif" font-weight="400" font-size="41" transform="matrix(1 0 0 1 7550.78 1580)">5.000,00</text></g><g clip-path="url(#clip11)"><text fill="#595959" font-family="Calibri,Calibri_MSFontService,sans-serif" font-weight="400" font-size="41" transform="matrix(1 0 0 1 7799.11 1580)">6.000,00</text></g><g clip-path="url(#clip12)"><text fill="#595959" font-family="Calibri,Calibri_MSFontService,sans-serif" font-weight="400" font-size="41" transform="matrix(1 0 0 1 6218.51 1450)">100000</text></g><g clip-path="url(#clip13)"><text fill="#595959" font-family="Calibri,Calibri_MSFontService,sans-serif" font-weight="400" font-size="41" transform="matrix(1 0 0 1 6218.51 1298)">250000</text></g><g clip-path="url(#clip14)"><text fill="#595959" font-family="Calibri,Calibri_MSFontService,sans-serif" font-weight="400" font-size="41" transform="matrix(1 0 0 1 6218.51 1145)">500000</text></g><g clip-path="url(#clip15)"><text fill="#595959" font-family="Calibri,Calibri_MSFontService,sans-serif" font-weight="400" font-size="41" transform="matrix(1 0 0 1 6218.51 992)">750000</text></g><g clip-path="url(#clip16)"><text fill="#595959" font-family="Calibri,Calibri_MSFontService,sans-serif" font-weight="400" font-size="41" transform="matrix(1 0 0 1 6197.61 839)">1000000</text></g><g clip-path="url(#clip17)"><text fill="#595959" font-family="Calibri,Calibri_MSFontService,sans-serif" font-weight="400" font-size="41" transform="matrix(1 0 0 1 6197.61 686)">2500000</text></g><g clip-path="url(#clip18)"><text fill="#595959" font-family="Calibri,Calibri_MSFontService,sans-serif" font-weight="400" font-size="41" transform="matrix(1 0 0 1 6197.61 534)">5000000</text></g><g clip-path="url(#clip19)"><text fill="#595959" font-family="Calibri,Calibri_MSFontService,sans-serif" font-weight="400" font-size="41" transform="matrix(1 0 0 1 6197.61 381)">7500000</text></g><g clip-path="url(#clip20)"><text fill="#595959" font-family="Calibri,Calibri_MSFontService,sans-serif" font-weight="400" font-size="46" transform="matrix(1 0 0 1 6987.09 1650)">Speicher in MB</text></g><g clip-path="url(#clip21)"><text fill="#595959" font-family="Calibri,Calibri_MSFontService,sans-serif" font-weight="400" font-size="46" transform="matrix(6.12323e-17 -1 1 6.12323e-17 6171.92 960)">Zeilen</text></g><g clip-path="url(#clip22)"><rect x="6881" y="192" width="23" height="22.9997" fill="#2F5597"/></g><g clip-path="url(#clip23)"><text fill="#595959" font-family="Calibri,Calibri_MSFontService,sans-serif" font-weight="400" font-size="41" transform="matrix(1 0 0 1 6913.36 215)">Parquet</text></g><g clip-path="url(#clip24)"><rect x="7080" y="192" width="23" height="22.9997" fill="#8FAADC"/></g><g clip-path="url(#clip25)"><text fill="#595959" font-family="Calibri,Calibri_MSFontService,sans-serif" font-weight="400" font-size="41" transform="matrix(1 0 0 1 7112.69 215)">Delta</text></g><rect x="6071.5" y="138.5" width="1925" height="1581" stroke="#D9D9D9" stroke-width="3.4375" stroke-linejoin="round" stroke-miterlimit="10" fill="none"/></g></svg>