<svg width="1928" height="1584" xmlns="http://www.w3.org/2000/svg" xmlns:xlink="http://www.w3.org/1999/xlink" overflow="hidden"><defs><clipPath id="clip0"><rect x="3870" y="137" width="1928" height="1584"/></clipPath><clipPath id="clip1"><rect x="3870" y="137" width="1925" height="1581"/></clipPath><clipPath id="clip2"><rect x="4182" y="292" width="1493" height="1226"/></clipPath><clipPath id="clip3"><rect x="4182" y="292" width="1493" height="1226"/></clipPath><clipPath id="clip4"><rect x="3870" y="137" width="1925" height="1581"/></clipPath><clipPath id="clip5"><rect x="3870" y="137" width="1925" height="1581"/></clipPath><clipPath id="clip6"><rect x="3870" y="137" width="1925" height="1581"/></clipPath><clipPath id="clip7"><rect x="3870" y="137" width="1925" height="1581"/></clipPath><clipPath id="clip8"><rect x="3870" y="137" width="1925" height="1581"/></clipPath><clipPath id="clip9"><rect x="3870" y="137" width="1925" height="1581"/></clipPath><clipPath id="clip10"><rect x="3870" y="137" width="1925" height="1581"/></clipPath><clipPath id="clip11"><rect x="3870" y="137" width="1925" height="1581"/></clipPath><clipPath id="clip12"><rect x="3870" y="137" width="1925" height="1581"/></clipPath><clipPath id="clip13"><rect x="3870" y="137" width="1925" height="1581"/></clipPath><clipPath id="clip14"><rect x="3870" y="137" width="1925" height="1581"/></clipPath><clipPath id="clip15"><rect x="3870" y="137" width="1925" height="1581"/></clipPath><clipPath id="clip16"><rect x="3870" y="137" width="1925" height="1581"/></clipPath><clipPath id="clip17"><rect x="3870" y="137" width="1925" height="1581"/></clipPath><clipPath id="clip18"><rect x="3870" y="137" width="1925" height="1581"/></clipPath><clipPath id="clip19"><rect x="3870" y="137" width="1925" height="1581"/></clipPath><clipPath id="clip20"><rect x="3870" y="137" width="1925" height="1581"/></clipPath><clipPath id="clip21"><rect x="3870" y="137" width="1925" height="1581"/></clipPath><clipPath id="clip22"><rect x="3870" y="137" width="1925" height="1581"/></clipPath><clipPath id="clip23"><rect x="3870" y="137" width="1925" height="1581"/></clipPath><clipPath id="clip24"><rect x="3870" y="137" width="1925" height="1581"/></clipPath><clipPath id="clip25"><rect x="3870" y="137" width="1925" height="1581"/></clipPath><clipPath id="clip26"><rect x="3870" y="137" width="1925" height="1581"/></clipPath><clipPath id="clip27"><rect x="3870" y="137" width="1925" height="1581"/></clipPath></defs><g clip-path="url(#clip0)" transform="translate(-3870 -137)"><rect x="3871" y="138" width="1925" height="1581" fill="#FFFFFF"/><g clip-path="url(#clip1)"><path d="M4368.64 292.5 4368.64 1515.5M4554.65 292.5 4554.65 1515.5M4740.66 292.5 4740.66 1515.5M4927.66 292.5 4927.66 1515.5M5113.67 292.5 5113.67 1515.5M5299.67 292.5 5299.67 1515.5M5485.68 292.5 5485.68 1515.5M5672.5 292.5 5672.5 1515.5" stroke="#D9D9D9" stroke-width="3.4375" stroke-linejoin="round" stroke-miterlimit="10" fill="none"/></g><g clip-path="url(#clip2)"><path d="M4200.14 1482.05 4182 1482.05 4182 1439.05 4200.14 1439.05ZM4226.14 1330.04 4182 1330.04 4182 1286.04 4226.14 1286.04ZM4270.14 1177.04 4182 1177.04 4182 1133.04 4270.14 1133.04ZM4314.14 1024.03 4182 1024.03 4182 980.032 4314.14 980.032ZM4359.14 871.029 4182 871.029 4182 828.027 4359.14 828.027ZM4624.15 718.024 4182 718.024 4182 675.022 4624.15 675.022ZM5066.17 566.019 4182 566.019 4182 522.017 5066.17 522.017ZM5509.18 413.014 4182 413.014 4182 369.012 5509.18 369.012Z" fill="#8FAADC"/></g><g clip-path="url(#clip3)"><path d="M4200.14 1439.05 4182 1439.05 4182 1395.05 4200.14 1395.05ZM4226.14 1286.04 4182 1286.04 4182 1242.04 4226.14 1242.04ZM4270.14 1133.04 4182 1133.04 4182 1090.04 4270.14 1090.04ZM4314.14 980.032 4182 980.032 4182 937.031 4314.14 937.031ZM4359.14 828.027 4182 828.027 4182 784.026 4359.14 784.026ZM4624.15 675.022 4182 675.022 4182 631.021 4624.15 631.021ZM5066.17 522.017 4182 522.017 4182 478.016 5066.17 478.016ZM5509.18 369.012 4182 369.012 4182 325.011 5509.18 325.011Z" fill="#2F5597"/></g><g clip-path="url(#clip4)"><path d="M0 0 0.000360892 1223" stroke="#D9D9D9" stroke-width="3.4375" stroke-linejoin="round" stroke-miterlimit="10" fill="none" fill-rule="evenodd" transform="matrix(1 0 0 -1 4182.5 1515.5)"/></g><g clip-path="url(#clip5)"><text fill="#595959" font-family="Calibri,Calibri_MSFontService,sans-serif" font-weight="400" font-size="41" transform="matrix(1 0 0 1 4145.68 1580)">0,00</text></g><g clip-path="url(#clip6)"><text fill="#595959" font-family="Calibri,Calibri_MSFontService,sans-serif" font-weight="400" font-size="41" transform="matrix(1 0 0 1 4295.38 1580)">1.000,00</text></g><g clip-path="url(#clip7)"><text fill="#595959" font-family="Calibri,Calibri_MSFontService,sans-serif" font-weight="400" font-size="41" transform="matrix(1 0 0 1 4481.62 1580)">2.000,00</text></g><g clip-path="url(#clip8)"><text fill="#595959" font-family="Calibri,Calibri_MSFontService,sans-serif" font-weight="400" font-size="41" transform="matrix(1 0 0 1 4667.87 1580)">3.000,00</text></g><g clip-path="url(#clip9)"><text fill="#595959" font-family="Calibri,Calibri_MSFontService,sans-serif" font-weight="400" font-size="41" transform="matrix(1 0 0 1 4854.12 1580)">4.000,00</text></g><g clip-path="url(#clip10)"><text fill="#595959" font-family="Calibri,Calibri_MSFontService,sans-serif" font-weight="400" font-size="41" transform="matrix(1 0 0 1 5040.37 1580)">5.000,00</text></g><g clip-path="url(#clip11)"><text fill="#595959" font-family="Calibri,Calibri_MSFontService,sans-serif" font-weight="400" font-size="41" transform="matrix(1 0 0 1 5226.62 1580)">6.000,00</text></g><g clip-path="url(#clip12)"><text fill="#595959" font-family="Calibri,Calibri_MSFontService,sans-serif" font-weight="400" font-size="41" transform="matrix(1 0 0 1 5412.87 1580)">7.000,00</text></g><g clip-path="url(#clip13)"><text fill="#595959" font-family="Calibri,Calibri_MSFontService,sans-serif" font-weight="400" font-size="41" transform="matrix(1 0 0 1 5599.11 1580)">8.000,00</text></g><g clip-path="url(#clip14)"><text fill="#595959" font-family="Calibri,Calibri_MSFontService,sans-serif" font-weight="400" font-size="41" transform="matrix(1 0 0 1 4018.51 1450)">100000</text></g><g clip-path="url(#clip15)"><text fill="#595959" font-family="Calibri,Calibri_MSFontService,sans-serif" font-weight="400" font-size="41" transform="matrix(1 0 0 1 4018.51 1298)">250000</text></g><g clip-path="url(#clip16)"><text fill="#595959" font-family="Calibri,Calibri_MSFontService,sans-serif" font-weight="400" font-size="41" transform="matrix(1 0 0 1 4018.51 1145)">500000</text></g><g clip-path="url(#clip17)"><text fill="#595959" font-family="Calibri,Calibri_MSFontService,sans-serif" font-weight="400" font-size="41" transform="matrix(1 0 0 1 4018.51 992)">750000</text></g><g clip-path="url(#clip18)"><text fill="#595959" font-family="Calibri,Calibri_MSFontService,sans-serif" font-weight="400" font-size="41" transform="matrix(1 0 0 1 3997.61 839)">1000000</text></g><g clip-path="url(#clip19)"><text fill="#595959" font-family="Calibri,Calibri_MSFontService,sans-serif" font-weight="400" font-size="41" transform="matrix(1 0 0 1 3997.61 686)">2500000</text></g><g clip-path="url(#clip20)"><text fill="#595959" font-family="Calibri,Calibri_MSFontService,sans-serif" font-weight="400" font-size="41" transform="matrix(1 0 0 1 3997.61 534)">5000000</text></g><g clip-path="url(#clip21)"><text fill="#595959" font-family="Calibri,Calibri_MSFontService,sans-serif" font-weight="400" font-size="41" transform="matrix(1 0 0 1 3997.61 381)">7500000</text></g><g clip-path="url(#clip22)"><text fill="#595959" font-family="Calibri,Calibri_MSFontService,sans-serif" font-weight="400" font-size="46" transform="matrix(1 0 0 1 4787.09 1650)">Speicher in MB</text></g><g clip-path="url(#clip23)"><text fill="#595959" font-family="Calibri,Calibri_MSFontService,sans-serif" font-weight="400" font-size="46" transform="matrix(6.12323e-17 -1 1 6.12323e-17 3971.92 960)">Zeilen</text></g><g clip-path="url(#clip24)"><rect x="4681" y="192" width="23" height="22.9997" fill="#2F5597"/></g><g clip-path="url(#clip25)"><text fill="#595959" font-family="Calibri,Calibri_MSFontService,sans-serif" font-weight="400" font-size="41" transform="matrix(1 0 0 1 4713.36 215)">Parquet</text></g><g clip-path="url(#clip26)"><rect x="4880" y="192" width="23" height="22.9997" fill="#8FAADC"/></g><g clip-path="url(#clip27)"><text fill="#595959" font-family="Calibri,Calibri_MSFontService,sans-serif" font-weight="400" font-size="41" transform="matrix(1 0 0 1 4912.69 215)">Delta</text></g><rect x="3871.5" y="138.5" width="1925" height="1581" stroke="#D9D9D9" stroke-width="3.4375" stroke-linejoin="round" stroke-miterlimit="10" fill="none"/></g></svg>