<svg width="1928" height="1584" xmlns="http://www.w3.org/2000/svg" xmlns:xlink="http://www.w3.org/1999/xlink" overflow="hidden"><defs><clipPath id="clip0"><rect x="6070" y="3574" width="1928" height="1584"/></clipPath><clipPath id="clip1"><rect x="6070" y="3575" width="1925" height="1581"/></clipPath><clipPath id="clip2"><rect x="6382" y="3730" width="1483" height="1226"/></clipPath><clipPath id="clip3"><rect x="6382" y="3730" width="1483" height="1226"/></clipPath><clipPath id="clip4"><rect x="6382" y="3730" width="1483" height="1226"/></clipPath><clipPath id="clip5"><rect x="6382" y="3730" width="1483" height="1226"/></clipPath><clipPath id="clip6"><rect x="6070" y="3575" width="1925" height="1581"/></clipPath><clipPath id="clip7"><rect x="6070" y="3575" width="1925" height="1581"/></clipPath><clipPath id="clip8"><rect x="6070" y="3575" width="1925" height="1581"/></clipPath><clipPath id="clip9"><rect x="6070" y="3575" width="1925" height="1581"/></clipPath><clipPath id="clip10"><rect x="6070" y="3575" width="1925" height="1581"/></clipPath><clipPath id="clip11"><rect x="6070" y="3575" width="1925" height="1581"/></clipPath><clipPath id="clip12"><rect x="6070" y="3575" width="1925" height="1581"/></clipPath><clipPath id="clip13"><rect x="6070" y="3575" width="1925" height="1581"/></clipPath><clipPath id="clip14"><rect x="6070" y="3575" width="1925" height="1581"/></clipPath><clipPath id="clip15"><rect x="6070" y="3575" width="1925" height="1581"/></clipPath><clipPath id="clip16"><rect x="6070" y="3575" width="1925" height="1581"/></clipPath><clipPath id="clip17"><rect x="6070" y="3575" width="1925" height="1581"/></clipPath><clipPath id="clip18"><rect x="6070" y="3575" width="1925" height="1581"/></clipPath><clipPath id="clip19"><rect x="6070" y="3575" width="1925" height="1581"/></clipPath><clipPath id="clip20"><rect x="6070" y="3575" width="1925" height="1581"/></clipPath><clipPath id="clip21"><rect x="6070" y="3575" width="1925" height="1581"/></clipPath><clipPath id="clip22"><rect x="6070" y="3575" width="1925" height="1581"/></clipPath><clipPath id="clip23"><rect x="6070" y="3575" width="1925" height="1581"/></clipPath><clipPath id="clip24"><rect x="6070" y="3575" width="1925" height="1581"/></clipPath><clipPath id="clip25"><rect x="6070" y="3575" width="1925" height="1581"/></clipPath><clipPath id="clip26"><rect x="6070" y="3575" width="1925" height="1581"/></clipPath><clipPath id="clip27"><rect x="6070" y="3575" width="1925" height="1581"/></clipPath><clipPath id="clip28"><rect x="6070" y="3575" width="1925" height="1581"/></clipPath><clipPath id="clip29"><rect x="6070" y="3575" width="1925" height="1581"/></clipPath><clipPath id="clip30"><rect x="6070" y="3575" width="1925" height="1581"/></clipPath><clipPath id="clip31"><rect x="6070" y="3575" width="1925" height="1581"/></clipPath><clipPath id="clip32"><rect x="6070" y="3575" width="1925" height="1581"/></clipPath></defs><g clip-path="url(#clip0)" transform="translate(-6070 -3574)"><rect x="6071" y="3575" width="1925" height="1581" fill="#FFFFFF"/><g clip-path="url(#clip1)"><path d="M6593.72 3730.5 6593.72 4952.5M6804.72 3730.5 6804.72 4952.5M7016.73 3730.5 7016.73 4952.5M7227.74 3730.5 7227.74 4952.5M7438.74 3730.5 7438.74 4952.5M7650.75 3730.5 7650.75 4952.5M7861.5 3730.5 7861.5 4952.5" stroke="#D9D9D9" stroke-width="3.4375" stroke-linejoin="round" stroke-miterlimit="10" fill="none"/></g><g clip-path="url(#clip2)"><path d="M6394.21 4932.16 6382 4932.16 6382 4904.16 6394.21 4904.16ZM6411.21 4779.16 6382 4779.16 6382 4751.16 6411.21 4751.16ZM6441.21 4626.15 6382 4626.15 6382 4598.15 6441.21 4598.15ZM6470.21 4473.15 6382 4473.15 6382 4446.15 6470.21 4446.15ZM6500.21 4321.14 6382 4321.14 6382 4293.14 6500.21 4293.14ZM6676.22 4168.14 6382 4168.14 6382 4140.14 6676.22 4140.14ZM6971.23 4015.13 6382 4015.13 6382 3987.13 6971.23 3987.13ZM7271.24 3862.13 6382 3862.13 6382 3834.13 7271.24 3834.13Z" fill="#A9D18E"/></g><g clip-path="url(#clip3)"><path d="M6394.21 4904.16 6382 4904.16 6382 4876.16 6394.21 4876.16ZM6411.21 4751.16 6382 4751.16 6382 4723.15 6411.21 4723.15ZM6441.21 4598.15 6382 4598.15 6382 4571.15 6441.21 4571.15ZM6470.21 4446.15 6382 4446.15 6382 4418.15 6470.21 4418.15ZM6500.21 4293.14 6382 4293.14 6382 4265.14 6500.21 4265.14ZM6676.22 4140.14 6382 4140.14 6382 4112.13 6676.22 4112.13ZM6971.23 3987.13 6382 3987.13 6382 3959.13 6971.23 3959.13ZM7271.24 3834.13 6382 3834.13 6382 3807.12 7271.24 3807.12Z" fill="#548235"/></g><g clip-path="url(#clip4)"><path d="M6401.21 4876.16 6382 4876.16 6382 4848.16 6401.21 4848.16ZM6429.21 4723.15 6382 4723.15 6382 4696.15 6429.21 4696.15ZM6475.21 4571.15 6382 4571.15 6382 4543.15 6475.21 4543.15ZM6521.21 4418.15 6382 4418.15 6382 4390.14 6521.21 4390.14ZM6567.22 4265.14 6382 4265.14 6382 4237.14 6567.22 4237.14ZM6841.22 4112.13 6382 4112.13 6382 4084.13 6841.22 4084.13ZM7288.24 3959.13 6382 3959.13 6382 3932.13 7288.24 3932.13ZM7759.25 3807.12 6382 3807.12 6382 3779.12 7759.25 3779.12Z" fill="#8FAADC"/></g><g clip-path="url(#clip5)"><path d="M6394.21 4848.16 6382 4848.16 6382 4821.16 6394.21 4821.16ZM6411.21 4696.15 6382 4696.15 6382 4668.15 6411.21 4668.15ZM6441.21 4543.15 6382 4543.15 6382 4515.15 6441.21 4515.15ZM6470.21 4390.14 6382 4390.14 6382 4362.14 6470.21 4362.14ZM6500.21 4237.14 6382 4237.14 6382 4209.14 6500.21 4209.14ZM6676.22 4084.13 6382 4084.13 6382 4057.13 6676.22 4057.13ZM6970.23 3932.13 6382 3932.13 6382 3904.13 6970.23 3904.13ZM7265.24 3779.12 6382 3779.12 6382 3751.12 7265.24 3751.12Z" fill="#2F5597"/></g><g clip-path="url(#clip6)"><path d="M0 0 0.000360892 1222" stroke="#D9D9D9" stroke-width="3.4375" stroke-linejoin="round" stroke-miterlimit="10" fill="none" fill-rule="evenodd" transform="matrix(1 0 0 -1 6382.5 4952.5)"/></g><g clip-path="url(#clip7)"><text fill="#595959" font-family="Calibri,Calibri_MSFontService,sans-serif" font-weight="400" font-size="41" transform="matrix(1 0 0 1 6345.68 5018)">0,00</text></g><g clip-path="url(#clip8)"><text fill="#595959" font-family="Calibri,Calibri_MSFontService,sans-serif" font-weight="400" font-size="41" transform="matrix(1 0 0 1 6520.49 5018)">2.000,00</text></g><g clip-path="url(#clip9)"><text fill="#595959" font-family="Calibri,Calibri_MSFontService,sans-serif" font-weight="400" font-size="41" transform="matrix(1 0 0 1 6731.85 5018)">4.000,00</text></g><g clip-path="url(#clip10)"><text fill="#595959" font-family="Calibri,Calibri_MSFontService,sans-serif" font-weight="400" font-size="41" transform="matrix(1 0 0 1 6943.21 5018)">6.000,00</text></g><g clip-path="url(#clip11)"><text fill="#595959" font-family="Calibri,Calibri_MSFontService,sans-serif" font-weight="400" font-size="41" transform="matrix(1 0 0 1 7154.58 5018)">8.000,00</text></g><g clip-path="url(#clip12)"><text fill="#595959" font-family="Calibri,Calibri_MSFontService,sans-serif" font-weight="400" font-size="41" transform="matrix(1 0 0 1 7355.49 5018)">10.000,00</text></g><g clip-path="url(#clip13)"><text fill="#595959" font-family="Calibri,Calibri_MSFontService,sans-serif" font-weight="400" font-size="41" transform="matrix(1 0 0 1 7566.85 5018)">12.000,00</text></g><g clip-path="url(#clip14)"><text fill="#595959" font-family="Calibri,Calibri_MSFontService,sans-serif" font-weight="400" font-size="41" transform="matrix(1 0 0 1 7778.21 5018)">14.000,00</text></g><g clip-path="url(#clip15)"><text fill="#595959" font-family="Calibri,Calibri_MSFontService,sans-serif" font-weight="400" font-size="41" transform="matrix(1 0 0 1 6218.51 4888)">100000</text></g><g clip-path="url(#clip16)"><text fill="#595959" font-family="Calibri,Calibri_MSFontService,sans-serif" font-weight="400" font-size="41" transform="matrix(1 0 0 1 6218.51 4735)">250000</text></g><g clip-path="url(#clip17)"><text fill="#595959" font-family="Calibri,Calibri_MSFontService,sans-serif" font-weight="400" font-size="41" transform="matrix(1 0 0 1 6218.51 4582)">500000</text></g><g clip-path="url(#clip18)"><text fill="#595959" font-family="Calibri,Calibri_MSFontService,sans-serif" font-weight="400" font-size="41" transform="matrix(1 0 0 1 6218.51 4429)">750000</text></g><g clip-path="url(#clip19)"><text fill="#595959" font-family="Calibri,Calibri_MSFontService,sans-serif" font-weight="400" font-size="41" transform="matrix(1 0 0 1 6197.61 4277)">1000000</text></g><g clip-path="url(#clip20)"><text fill="#595959" font-family="Calibri,Calibri_MSFontService,sans-serif" font-weight="400" font-size="41" transform="matrix(1 0 0 1 6197.61 4124)">2500000</text></g><g clip-path="url(#clip21)"><text fill="#595959" font-family="Calibri,Calibri_MSFontService,sans-serif" font-weight="400" font-size="41" transform="matrix(1 0 0 1 6197.61 3971)">5000000</text></g><g clip-path="url(#clip22)"><text fill="#595959" font-family="Calibri,Calibri_MSFontService,sans-serif" font-weight="400" font-size="41" transform="matrix(1 0 0 1 6197.61 3818)">7500000</text></g><g clip-path="url(#clip23)"><text fill="#595959" font-family="Calibri,Calibri_MSFontService,sans-serif" font-weight="400" font-size="46" transform="matrix(1 0 0 1 6981.86 5087)">Speicher in MB</text></g><g clip-path="url(#clip24)"><text fill="#595959" font-family="Calibri,Calibri_MSFontService,sans-serif" font-weight="400" font-size="46" transform="matrix(6.12323e-17 -1 1 6.12323e-17 6171.92 4398)">Zeilen</text></g><g clip-path="url(#clip25)"><rect x="6390" y="3630" width="22" height="23" fill="#2F5597"/></g><g clip-path="url(#clip26)"><text fill="#595959" font-family="Calibri,Calibri_MSFontService,sans-serif" font-weight="400" font-size="41" transform="matrix(1 0 0 1 6421.84 3653)">Parquet aktualisiert</text></g><g clip-path="url(#clip27)"><rect x="6811" y="3630" width="23" height="23" fill="#8FAADC"/></g><g clip-path="url(#clip28)"><text fill="#595959" font-family="Calibri,Calibri_MSFontService,sans-serif" font-weight="400" font-size="41" transform="matrix(1 0 0 1 6843.69 3653)">Delta aktualisiert</text></g><g clip-path="url(#clip29)"><rect x="7189" y="3630" width="23" height="23" fill="#548235"/></g><g clip-path="url(#clip30)"><text fill="#595959" font-family="Calibri,Calibri_MSFontService,sans-serif" font-weight="400" font-size="41" transform="matrix(1 0 0 1 7221.32 3653)">Parquet CDC</text></g><g clip-path="url(#clip31)"><rect x="7493" y="3630" width="23" height="23" fill="#A9D18E"/></g><g clip-path="url(#clip32)"><text fill="#595959" font-family="Calibri,Calibri_MSFontService,sans-serif" font-weight="400" font-size="41" transform="matrix(1 0 0 1 7525.52 3653)">Delta CDC</text></g><rect x="6071.5" y="3575.5" width="1925" height="1581" stroke="#D9D9D9" stroke-width="3.4375" stroke-linejoin="round" stroke-miterlimit="10" fill="none"/></g></svg>