<svg width="1928" height="1584" xmlns="http://www.w3.org/2000/svg" xmlns:xlink="http://www.w3.org/1999/xlink" overflow="hidden"><defs><clipPath id="clip0"><rect x="3870" y="1855" width="1928" height="1584"/></clipPath><clipPath id="clip1"><rect x="3870" y="1856" width="1925" height="1581"/></clipPath><clipPath id="clip2"><rect x="4182" y="2011" width="1483" height="1226"/></clipPath><clipPath id="clip3"><rect x="4182" y="2011" width="1483" height="1226"/></clipPath><clipPath id="clip4"><rect x="4182" y="2011" width="1483" height="1226"/></clipPath><clipPath id="clip5"><rect x="4182" y="2011" width="1483" height="1226"/></clipPath><clipPath id="clip6"><rect x="3870" y="1856" width="1925" height="1581"/></clipPath><clipPath id="clip7"><rect x="3870" y="1856" width="1925" height="1581"/></clipPath><clipPath id="clip8"><rect x="3870" y="1856" width="1925" height="1581"/></clipPath><clipPath id="clip9"><rect x="3870" y="1856" width="1925" height="1581"/></clipPath><clipPath id="clip10"><rect x="3870" y="1856" width="1925" height="1581"/></clipPath><clipPath id="clip11"><rect x="3870" y="1856" width="1925" height="1581"/></clipPath><clipPath id="clip12"><rect x="3870" y="1856" width="1925" height="1581"/></clipPath><clipPath id="clip13"><rect x="3870" y="1856" width="1925" height="1581"/></clipPath><clipPath id="clip14"><rect x="3870" y="1856" width="1925" height="1581"/></clipPath><clipPath id="clip15"><rect x="3870" y="1856" width="1925" height="1581"/></clipPath><clipPath id="clip16"><rect x="3870" y="1856" width="1925" height="1581"/></clipPath><clipPath id="clip17"><rect x="3870" y="1856" width="1925" height="1581"/></clipPath><clipPath id="clip18"><rect x="3870" y="1856" width="1925" height="1581"/></clipPath><clipPath id="clip19"><rect x="3870" y="1856" width="1925" height="1581"/></clipPath><clipPath id="clip20"><rect x="3870" y="1856" width="1925" height="1581"/></clipPath><clipPath id="clip21"><rect x="3870" y="1856" width="1925" height="1581"/></clipPath><clipPath id="clip22"><rect x="3870" y="1856" width="1925" height="1581"/></clipPath><clipPath id="clip23"><rect x="3870" y="1856" width="1925" height="1581"/></clipPath><clipPath id="clip24"><rect x="3870" y="1856" width="1925" height="1581"/></clipPath><clipPath id="clip25"><rect x="3870" y="1856" width="1925" height="1581"/></clipPath><clipPath id="clip26"><rect x="3870" y="1856" width="1925" height="1581"/></clipPath><clipPath id="clip27"><rect x="3870" y="1856" width="1925" height="1581"/></clipPath><clipPath id="clip28"><rect x="3870" y="1856" width="1925" height="1581"/></clipPath><clipPath id="clip29"><rect x="3870" y="1856" width="1925" height="1581"/></clipPath><clipPath id="clip30"><rect x="3870" y="1856" width="1925" height="1581"/></clipPath><clipPath id="clip31"><rect x="3870" y="1856" width="1925" height="1581"/></clipPath><clipPath id="clip32"><rect x="3870" y="1856" width="1925" height="1581"/></clipPath><clipPath id="clip33"><rect x="3870" y="1856" width="1925" height="1581"/></clipPath></defs><g clip-path="url(#clip0)" transform="translate(-3870 -1855)"><rect x="3871" y="1856" width="1925" height="1581" fill="#FFFFFF"/><g clip-path="url(#clip1)"><path d="M4366.64 2011.5 4366.64 3233.5M4551.65 2011.5 4551.65 3233.5M4736.66 2011.5 4736.66 3233.5M4921.66 2011.5 4921.66 3233.5M5106.67 2011.5 5106.67 3233.5M5291.67 2011.5 5291.67 3233.5M5476.68 2011.5 5476.68 3233.5M5661.5 2011.5 5661.5 3233.5" stroke="#D9D9D9" stroke-width="3.4375" stroke-linejoin="round" stroke-miterlimit="10" fill="none"/></g><g clip-path="url(#clip2)"><path d="M4192.14 3213.11 4182 3213.11 4182 3185.1 4192.14 3185.1ZM4207.14 3060.1 4182 3060.1 4182 3032.1 4207.14 3032.1ZM4231.14 2907.1 4182 2907.1 4182 2880.09 4231.14 2880.09ZM4256.14 2755.09 4182 2755.09 4182 2727.09 4256.14 2727.09ZM4280.14 2602.09 4182 2602.09 4182 2574.08 4280.14 2574.08ZM4428.15 2449.08 4182 2449.08 4182 2421.08 4428.15 2421.08ZM4674.15 2296.08 4182 2296.08 4182 2268.07 4674.15 2268.07ZM4920.16 2143.07 4182 2143.07 4182 2116.07 4920.16 2116.07Z" fill="#A9D18E"/></g><g clip-path="url(#clip3)"><path d="M4192.14 3185.1 4182 3185.1 4182 3157.1 4192.14 3157.1ZM4207.14 3032.1 4182 3032.1 4182 3005.1 4207.14 3005.1ZM4231.14 2880.09 4182 2880.09 4182 2852.09 4231.14 2852.09ZM4256.14 2727.09 4182 2727.09 4182 2699.09 4256.14 2699.09ZM4280.14 2574.08 4182 2574.08 4182 2546.08 4280.14 2546.08ZM4428.15 2421.08 4182 2421.08 4182 2393.08 4428.15 2393.08ZM4674.15 2268.07 4182 2268.07 4182 2241.07 4674.15 2241.07ZM4920.16 2116.07 4182 2116.07 4182 2088.07 4920.16 2088.07Z" fill="#548235"/></g><g clip-path="url(#clip4)"><path d="M4201.14 3157.1 4182 3157.1 4182 3130.1 4201.14 3130.1ZM4229.14 3005.1 4182 3005.1 4182 2977.1 4229.14 2977.1ZM4275.14 2852.09 4182 2852.09 4182 2824.09 4275.14 2824.09ZM4322.14 2699.09 4182 2699.09 4182 2671.09 4322.14 2671.09ZM4368.14 2546.08 4182 2546.08 4182 2518.08 4368.14 2518.08ZM4647.15 2393.08 4182 2393.08 4182 2366.08 4647.15 2366.08ZM5111.17 2241.07 4182 2241.07 4182 2213.07 5111.17 2213.07ZM5574.18 2088.07 4182 2088.07 4182 2060.07 5574.18 2060.07Z" fill="#8FAADC"/></g><g clip-path="url(#clip5)"><path d="M4192.14 3130.1 4182 3130.1 4182 3102.1 4192.14 3102.1ZM4206.14 2977.1 4182 2977.1 4182 2949.1 4206.14 2949.1ZM4231.14 2824.09 4182 2824.09 4182 2796.09 4231.14 2796.09ZM4256.14 2671.09 4182 2671.09 4182 2643.09 4256.14 2643.09ZM4280.14 2518.08 4182 2518.08 4182 2491.08 4280.14 2491.08ZM4427.15 2366.08 4182 2366.08 4182 2338.08 4427.15 2338.08ZM4673.15 2213.07 4182 2213.07 4182 2185.07 4673.15 2185.07ZM4918.16 2060.07 4182 2060.07 4182 2032.07 4918.16 2032.07Z" fill="#2F5597"/></g><g clip-path="url(#clip6)"><path d="M0 0 0.000360892 1222" stroke="#D9D9D9" stroke-width="3.4375" stroke-linejoin="round" stroke-miterlimit="10" fill="none" fill-rule="evenodd" transform="matrix(1 0 0 -1 4182.5 3233.5)"/></g><g clip-path="url(#clip7)"><text fill="#595959" font-family="Calibri,Calibri_MSFontService,sans-serif" font-weight="400" font-size="41" transform="matrix(1 0 0 1 4145.68 3299)">0,00</text></g><g clip-path="url(#clip8)"><text fill="#595959" font-family="Calibri,Calibri_MSFontService,sans-serif" font-weight="400" font-size="41" transform="matrix(1 0 0 1 4294.07 3299)">2.000,00</text></g><g clip-path="url(#clip9)"><text fill="#595959" font-family="Calibri,Calibri_MSFontService,sans-serif" font-weight="400" font-size="41" transform="matrix(1 0 0 1 4479.01 3299)">4.000,00</text></g><g clip-path="url(#clip10)"><text fill="#595959" font-family="Calibri,Calibri_MSFontService,sans-serif" font-weight="400" font-size="41" transform="matrix(1 0 0 1 4663.95 3299)">6.000,00</text></g><g clip-path="url(#clip11)"><text fill="#595959" font-family="Calibri,Calibri_MSFontService,sans-serif" font-weight="400" font-size="41" transform="matrix(1 0 0 1 4848.9 3299)">8.000,00</text></g><g clip-path="url(#clip12)"><text fill="#595959" font-family="Calibri,Calibri_MSFontService,sans-serif" font-weight="400" font-size="41" transform="matrix(1 0 0 1 5023.39 3299)">10.000,00</text></g><g clip-path="url(#clip13)"><text fill="#595959" font-family="Calibri,Calibri_MSFontService,sans-serif" font-weight="400" font-size="41" transform="matrix(1 0 0 1 5208.33 3299)">12.000,00</text></g><g clip-path="url(#clip14)"><text fill="#595959" font-family="Calibri,Calibri_MSFontService,sans-serif" font-weight="400" font-size="41" transform="matrix(1 0 0 1 5393.27 3299)">14.000,00</text></g><g clip-path="url(#clip15)"><text fill="#595959" font-family="Calibri,Calibri_MSFontService,sans-serif" font-weight="400" font-size="41" transform="matrix(1 0 0 1 5578.21 3299)">16.000,00</text></g><g clip-path="url(#clip16)"><text fill="#595959" font-family="Calibri,Calibri_MSFontService,sans-serif" font-weight="400" font-size="41" transform="matrix(1 0 0 1 4018.51 3169)">100000</text></g><g clip-path="url(#clip17)"><text fill="#595959" font-family="Calibri,Calibri_MSFontService,sans-serif" font-weight="400" font-size="41" transform="matrix(1 0 0 1 4018.51 3016)">250000</text></g><g clip-path="url(#clip18)"><text fill="#595959" font-family="Calibri,Calibri_MSFontService,sans-serif" font-weight="400" font-size="41" transform="matrix(1 0 0 1 4018.51 2864)">500000</text></g><g clip-path="url(#clip19)"><text fill="#595959" font-family="Calibri,Calibri_MSFontService,sans-serif" font-weight="400" font-size="41" transform="matrix(1 0 0 1 4018.51 2711)">750000</text></g><g clip-path="url(#clip20)"><text fill="#595959" font-family="Calibri,Calibri_MSFontService,sans-serif" font-weight="400" font-size="41" transform="matrix(1 0 0 1 3997.61 2558)">1000000</text></g><g clip-path="url(#clip21)"><text fill="#595959" font-family="Calibri,Calibri_MSFontService,sans-serif" font-weight="400" font-size="41" transform="matrix(1 0 0 1 3997.61 2405)">2500000</text></g><g clip-path="url(#clip22)"><text fill="#595959" font-family="Calibri,Calibri_MSFontService,sans-serif" font-weight="400" font-size="41" transform="matrix(1 0 0 1 3997.61 2252)">5000000</text></g><g clip-path="url(#clip23)"><text fill="#595959" font-family="Calibri,Calibri_MSFontService,sans-serif" font-weight="400" font-size="41" transform="matrix(1 0 0 1 3997.61 2099)">7500000</text></g><g clip-path="url(#clip24)"><text fill="#595959" font-family="Calibri,Calibri_MSFontService,sans-serif" font-weight="400" font-size="46" transform="matrix(1 0 0 1 4781.86 3368)">Speicher in MB</text></g><g clip-path="url(#clip25)"><text fill="#595959" font-family="Calibri,Calibri_MSFontService,sans-serif" font-weight="400" font-size="46" transform="matrix(6.12323e-17 -1 1 6.12323e-17 3971.92 2679)">Zeilen</text></g><g clip-path="url(#clip26)"><rect x="4190" y="1911" width="22" height="23" fill="#2F5597"/></g><g clip-path="url(#clip27)"><text fill="#595959" font-family="Calibri,Calibri_MSFontService,sans-serif" font-weight="400" font-size="41" transform="matrix(1 0 0 1 4221.84 1934)">Parquet aktualisiert</text></g><g clip-path="url(#clip28)"><rect x="4611" y="1911" width="23" height="23" fill="#8FAADC"/></g><g clip-path="url(#clip29)"><text fill="#595959" font-family="Calibri,Calibri_MSFontService,sans-serif" font-weight="400" font-size="41" transform="matrix(1 0 0 1 4643.69 1934)">Delta aktualisiert</text></g><g clip-path="url(#clip30)"><rect x="4989" y="1911" width="23" height="23" fill="#548235"/></g><g clip-path="url(#clip31)"><text fill="#595959" font-family="Calibri,Calibri_MSFontService,sans-serif" font-weight="400" font-size="41" transform="matrix(1 0 0 1 5021.32 1934)">Parquet CDC</text></g><g clip-path="url(#clip32)"><rect x="5293" y="1911" width="23" height="23" fill="#A9D18E"/></g><g clip-path="url(#clip33)"><text fill="#595959" font-family="Calibri,Calibri_MSFontService,sans-serif" font-weight="400" font-size="41" transform="matrix(1 0 0 1 5325.52 1934)">Delta CDC</text></g><rect x="3871.5" y="1856.5" width="1925" height="1581" stroke="#D9D9D9" stroke-width="3.4375" stroke-linejoin="round" stroke-miterlimit="10" fill="none"/></g></svg>