<svg width="1653" height="1102" xmlns="http://www.w3.org/2000/svg" xmlns:xlink="http://www.w3.org/1999/xlink" overflow="hidden"><defs><clipPath id="clip0"><rect x="2845" y="137" width="1653" height="1102"/></clipPath><clipPath id="clip1"><rect x="2846" y="137" width="1650" height="1100"/></clipPath><clipPath id="clip2"><rect x="3106" y="292" width="1343" height="745"/></clipPath><clipPath id="clip3"><rect x="3106" y="292" width="1343" height="745"/></clipPath><clipPath id="clip4"><rect x="2846" y="137" width="1650" height="1100"/></clipPath><clipPath id="clip5"><rect x="2846" y="137" width="1650" height="1100"/></clipPath><clipPath id="clip6"><rect x="2846" y="137" width="1650" height="1100"/></clipPath><clipPath id="clip7"><rect x="2846" y="137" width="1650" height="1100"/></clipPath><clipPath id="clip8"><rect x="2846" y="137" width="1650" height="1100"/></clipPath><clipPath id="clip9"><rect x="2846" y="137" width="1650" height="1100"/></clipPath><clipPath id="clip10"><rect x="2846" y="137" width="1650" height="1100"/></clipPath><clipPath id="clip11"><rect x="2846" y="137" width="1650" height="1100"/></clipPath><clipPath id="clip12"><rect x="2846" y="137" width="1650" height="1100"/></clipPath><clipPath id="clip13"><rect x="2846" y="137" width="1650" height="1100"/></clipPath><clipPath id="clip14"><rect x="2846" y="137" width="1650" height="1100"/></clipPath><clipPath id="clip15"><rect x="2846" y="137" width="1650" height="1100"/></clipPath><clipPath id="clip16"><rect x="2846" y="137" width="1650" height="1100"/></clipPath><clipPath id="clip17"><rect x="2846" y="137" width="1650" height="1100"/></clipPath><clipPath id="clip18"><rect x="2846" y="137" width="1650" height="1100"/></clipPath><clipPath id="clip19"><rect x="2846" y="137" width="1650" height="1100"/></clipPath><clipPath id="clip20"><rect x="2846" y="137" width="1650" height="1100"/></clipPath><clipPath id="clip21"><rect x="2846" y="137" width="1650" height="1100"/></clipPath><clipPath id="clip22"><rect x="2846" y="137" width="1650" height="1100"/></clipPath><clipPath id="clip23"><rect x="2846" y="137" width="1650" height="1100"/></clipPath><clipPath id="clip24"><rect x="2846" y="137" width="1650" height="1100"/></clipPath><clipPath id="clip25"><rect x="2846" y="137" width="1650" height="1100"/></clipPath><clipPath id="clip26"><rect x="2846" y="137" width="1650" height="1100"/></clipPath></defs><g clip-path="url(#clip0)" transform="translate(-2845 -137)"><rect x="2846" y="138" width="1650" height="1099" fill="#FFFFFF"/><g clip-path="url(#clip1)"><path d="M3106.5 928.531 4445.5 928.531M3106.5 822.527 4445.5 822.527M3106.5 716.524 4445.5 716.524M3106.5 610.52 4445.5 610.52M3106.5 504.517 4445.5 504.517M3106.5 398.513 4445.5 398.513M3106.5 292.5 4445.5 292.5" stroke="#D9D9D9" stroke-width="3.4375" stroke-linejoin="round" stroke-miterlimit="10" fill="none"/></g><g clip-path="url(#clip2)"><path d="M3142.1 979.032 3190.1 979.032 3190.1 1034 3142.1 1034ZM3309.11 967.032 3357.11 967.032 3357.11 1034 3309.11 1034ZM3477.11 945.031 3525.12 945.031 3525.12 1034 3477.11 1034ZM3644.12 927.03 3692.12 927.03 3692.12 1034 3644.12 1034ZM3812.13 905.03 3860.13 905.03 3860.13 1034 3812.13 1034ZM3979.13 792.026 4027.13 792.026 4027.13 1034 3979.13 1034ZM4147.14 577.019 4195.14 577.019 4195.14 1034 4147.14 1034ZM4314.14 384.013 4362.14 384.013 4362.14 1034 4314.14 1034Z" fill="#2F5597"/></g><g clip-path="url(#clip3)"><path d="M3190.1 948.031 3238.11 948.031 3238.11 1034 3190.1 1034ZM3357.11 936.031 3405.11 936.031 3405.11 1034 3357.11 1034ZM3525.12 914.03 3573.12 914.03 3573.12 1034 3525.12 1034ZM3692.12 893.029 3740.12 893.029 3740.12 1034 3692.12 1034ZM3860.13 869.029 3907.13 869.029 3907.13 1034 3860.13 1034ZM4027.13 752.025 4075.13 752.025 4075.13 1034 4027.13 1034ZM4195.14 553.018 4242.14 553.018 4242.14 1034 4195.14 1034ZM4362.14 342.011 4410.14 342.011 4410.14 1034 4362.14 1034Z" fill="#8FAADC"/></g><g clip-path="url(#clip4)"><path d="M3106.5 1033.5 4445.5 1033.5" stroke="#D9D9D9" stroke-width="3.4375" stroke-linejoin="round" stroke-miterlimit="10" fill="none" fill-rule="evenodd"/></g><g clip-path="url(#clip5)"><text fill="#595959" font-family="Calibri,Calibri_MSFontService,sans-serif" font-weight="400" font-size="41" transform="matrix(1 0 0 1 2973.23 1046)">00:00</text></g><g clip-path="url(#clip6)"><text fill="#595959" font-family="Calibri,Calibri_MSFontService,sans-serif" font-weight="400" font-size="41" transform="matrix(1 0 0 1 2973.23 940)">00:17</text></g><g clip-path="url(#clip7)"><text fill="#595959" font-family="Calibri,Calibri_MSFontService,sans-serif" font-weight="400" font-size="41" transform="matrix(1 0 0 1 2973.23 834)">00:35</text></g><g clip-path="url(#clip8)"><text fill="#595959" font-family="Calibri,Calibri_MSFontService,sans-serif" font-weight="400" font-size="41" transform="matrix(1 0 0 1 2973.23 728)">00:52</text></g><g clip-path="url(#clip9)"><text fill="#595959" font-family="Calibri,Calibri_MSFontService,sans-serif" font-weight="400" font-size="41" transform="matrix(1 0 0 1 2973.23 622)">01:09</text></g><g clip-path="url(#clip10)"><text fill="#595959" font-family="Calibri,Calibri_MSFontService,sans-serif" font-weight="400" font-size="41" transform="matrix(1 0 0 1 2973.23 516)">01:26</text></g><g clip-path="url(#clip11)"><text fill="#595959" font-family="Calibri,Calibri_MSFontService,sans-serif" font-weight="400" font-size="41" transform="matrix(1 0 0 1 2973.23 410)">01:44</text></g><g clip-path="url(#clip12)"><text fill="#595959" font-family="Calibri,Calibri_MSFontService,sans-serif" font-weight="400" font-size="41" transform="matrix(1 0 0 1 2973.23 304)">02:01</text></g><g clip-path="url(#clip13)"><text fill="#595959" font-family="Calibri,Calibri_MSFontService,sans-serif" font-weight="400" font-size="41" transform="matrix(1 0 0 1 3127.17 1099)">100000</text></g><g clip-path="url(#clip14)"><text fill="#595959" font-family="Calibri,Calibri_MSFontService,sans-serif" font-weight="400" font-size="41" transform="matrix(1 0 0 1 3294.64 1099)">250000</text></g><g clip-path="url(#clip15)"><text fill="#595959" font-family="Calibri,Calibri_MSFontService,sans-serif" font-weight="400" font-size="41" transform="matrix(1 0 0 1 3462.1 1099)">500000</text></g><g clip-path="url(#clip16)"><text fill="#595959" font-family="Calibri,Calibri_MSFontService,sans-serif" font-weight="400" font-size="41" transform="matrix(1 0 0 1 3629.56 1099)">750000</text></g><g clip-path="url(#clip17)"><text fill="#595959" font-family="Calibri,Calibri_MSFontService,sans-serif" font-weight="400" font-size="41" transform="matrix(1 0 0 1 3786.57 1099)">1000000</text></g><g clip-path="url(#clip18)"><text fill="#595959" font-family="Calibri,Calibri_MSFontService,sans-serif" font-weight="400" font-size="41" transform="matrix(1 0 0 1 3954.03 1099)">2500000</text></g><g clip-path="url(#clip19)"><text fill="#595959" font-family="Calibri,Calibri_MSFontService,sans-serif" font-weight="400" font-size="41" transform="matrix(1 0 0 1 4121.49 1099)">5000000</text></g><g clip-path="url(#clip20)"><text fill="#595959" font-family="Calibri,Calibri_MSFontService,sans-serif" font-weight="400" font-size="41" transform="matrix(1 0 0 1 4288.95 1099)">7500000</text></g><g clip-path="url(#clip21)"><text fill="#595959" font-family="Calibri,Calibri_MSFontService,sans-serif" font-weight="400" font-size="46" transform="matrix(6.12323e-17 -1 1 6.12323e-17 2947.54 698)">Zeit</text></g><g clip-path="url(#clip22)"><text fill="#595959" font-family="Calibri,Calibri_MSFontService,sans-serif" font-weight="400" font-size="46" transform="matrix(1 0 0 1 3719.89 1168)">Zeilen</text></g><g clip-path="url(#clip23)"><rect x="3519" y="192" width="23" height="22.9997" fill="#2F5597"/></g><g clip-path="url(#clip24)"><text fill="#595959" font-family="Calibri,Calibri_MSFontService,sans-serif" font-weight="400" font-size="41" transform="matrix(1 0 0 1 3551.49 215)">Paruqet</text></g><g clip-path="url(#clip25)"><rect x="3719" y="192" width="22" height="22.9997" fill="#8FAADC"/></g><g clip-path="url(#clip26)"><text fill="#595959" font-family="Calibri,Calibri_MSFontService,sans-serif" font-weight="400" font-size="41" transform="matrix(1 0 0 1 3750.82 215)">Delta</text></g><rect x="2846.5" y="138.5" width="1650" height="1099" stroke="#D9D9D9" stroke-width="3.4375" stroke-linejoin="round" stroke-miterlimit="10" fill="none"/></g></svg>