<svg width="2753" height="1102" xmlns="http://www.w3.org/2000/svg" xmlns:xlink="http://www.w3.org/1999/xlink" overflow="hidden"><defs><clipPath id="clip0"><rect x="2677" y="137" width="2753" height="1102"/></clipPath><clipPath id="clip1"><rect x="2677" y="137" width="2750" height="1100"/></clipPath><clipPath id="clip2"><rect x="2989" y="292" width="2391" height="745"/></clipPath><clipPath id="clip3"><rect x="2989" y="292" width="2391" height="745"/></clipPath><clipPath id="clip4"><rect x="2989" y="292" width="2391" height="745"/></clipPath><clipPath id="clip5"><rect x="2989" y="292" width="2391" height="745"/></clipPath><clipPath id="clip6"><rect x="2677" y="137" width="2750" height="1100"/></clipPath><clipPath id="clip7"><rect x="2677" y="137" width="2750" height="1100"/></clipPath><clipPath id="clip8"><rect x="2677" y="137" width="2750" height="1100"/></clipPath><clipPath id="clip9"><rect x="2677" y="137" width="2750" height="1100"/></clipPath><clipPath id="clip10"><rect x="2677" y="137" width="2750" height="1100"/></clipPath><clipPath id="clip11"><rect x="2677" y="137" width="2750" height="1100"/></clipPath><clipPath id="clip12"><rect x="2677" y="137" width="2750" height="1100"/></clipPath><clipPath id="clip13"><rect x="2677" y="137" width="2750" height="1100"/></clipPath><clipPath id="clip14"><rect x="2677" y="137" width="2750" height="1100"/></clipPath><clipPath id="clip15"><rect x="2677" y="137" width="2750" height="1100"/></clipPath><clipPath id="clip16"><rect x="2677" y="137" width="2750" height="1100"/></clipPath><clipPath id="clip17"><rect x="2677" y="137" width="2750" height="1100"/></clipPath><clipPath id="clip18"><rect x="2677" y="137" width="2750" height="1100"/></clipPath><clipPath id="clip19"><rect x="2677" y="137" width="2750" height="1100"/></clipPath><clipPath id="clip20"><rect x="2677" y="137" width="2750" height="1100"/></clipPath><clipPath id="clip21"><rect x="2677" y="137" width="2750" height="1100"/></clipPath><clipPath id="clip22"><rect x="2677" y="137" width="2750" height="1100"/></clipPath><clipPath id="clip23"><rect x="2677" y="137" width="2750" height="1100"/></clipPath><clipPath id="clip24"><rect x="2677" y="137" width="2750" height="1100"/></clipPath><clipPath id="clip25"><rect x="2677" y="137" width="2750" height="1100"/></clipPath><clipPath id="clip26"><rect x="2677" y="137" width="2750" height="1100"/></clipPath><clipPath id="clip27"><rect x="2677" y="137" width="2750" height="1100"/></clipPath><clipPath id="clip28"><rect x="2677" y="137" width="2750" height="1100"/></clipPath><clipPath id="clip29"><rect x="2677" y="137" width="2750" height="1100"/></clipPath><clipPath id="clip30"><rect x="2677" y="137" width="2750" height="1100"/></clipPath><clipPath id="clip31"><rect x="2677" y="137" width="2750" height="1100"/></clipPath><clipPath id="clip32"><rect x="2677" y="137" width="2750" height="1100"/></clipPath><clipPath id="clip33"><rect x="2677" y="137" width="2750" height="1100"/></clipPath></defs><g clip-path="url(#clip0)" transform="translate(-2677 -137)"><rect x="2678" y="138" width="2750" height="1099" fill="#FFFFFF"/><g clip-path="url(#clip1)"><path d="M2989.5 941.531 5377.5 941.531M2989.5 848.528 5377.5 848.528M2989.5 756.525 5377.5 756.525M2989.5 663.522 5377.5 663.522M2989.5 570.519 5377.5 570.519M2989.5 478.516 5377.5 478.516M2989.5 385.513 5377.5 385.513M2989.5 292.5 5377.5 292.5" stroke="#D9D9D9" stroke-width="3.4375" stroke-linejoin="round" stroke-miterlimit="10" fill="none"/></g><g clip-path="url(#clip2)"><path d="M3030.1 1025.03 3084.1 1025.03 3084.1 1034 3030.1 1034ZM3328.11 1012.03 3383.11 1012.03 3383.11 1034 3328.11 1034ZM3627.12 990.032 3681.12 990.032 3681.12 1034 3627.12 1034ZM3925.13 968.032 3980.13 968.032 3980.13 1034 3925.13 1034ZM4224.14 946.031 4278.14 946.031 4278.14 1034 4224.14 1034ZM4522.15 814.027 4577.15 814.027 4577.15 1034 4522.15 1034ZM4821.16 594.02 4875.16 594.02 4875.16 1034 4821.16 1034ZM5119.17 374.012 5174.17 374.012 5174.17 1034 5119.17 1034Z" fill="#2F5597"/></g><g clip-path="url(#clip3)"><path d="M3084.1 1025.03 3138.1 1025.03 3138.1 1034 3084.1 1034ZM3383.11 1012.03 3437.11 1012.03 3437.11 1034 3383.11 1034ZM3681.12 990.032 3735.12 990.032 3735.12 1034 3681.12 1034ZM3980.13 968.032 4034.13 968.032 4034.13 1034 3980.13 1034ZM4278.14 946.031 4332.14 946.031 4332.14 1034 4278.14 1034ZM4577.15 814.027 4631.15 814.027 4631.15 1034 4577.15 1034ZM4875.16 594.02 4929.16 594.02 4929.16 1034 4875.16 1034ZM5174.17 374.012 5228.17 374.012 5228.17 1034 5174.17 1034Z" fill="#8FAADC"/></g><g clip-path="url(#clip4)"><path d="M3138.1 1028.03 3193.1 1028.03 3193.1 1034 3138.1 1034ZM3437.11 1019.03 3491.11 1019.03 3491.11 1034 3437.11 1034ZM3735.12 1004.03 3790.12 1004.03 3790.12 1034 3735.12 1034ZM4034.13 990.032 4088.13 990.032 4088.13 1034 4034.13 1034ZM4332.14 975.032 4387.14 975.032 4387.14 1034 4332.14 1034ZM4631.15 887.029 4685.15 887.029 4685.15 1034 4631.15 1034ZM4929.16 739.024 4984.16 739.024 4984.16 1034 4929.16 1034ZM5228.17 592.019 5282.17 592.019 5282.17 1034 5228.17 1034Z" fill="#C55A11"/></g><g clip-path="url(#clip5)"><path d="M3193.1 1028.03 3247.11 1028.03 3247.11 1034 3193.1 1034ZM3491.11 1019.03 3545.12 1019.03 3545.12 1034 3491.11 1034ZM3790.12 1004.03 3844.13 1004.03 3844.13 1034 3790.12 1034ZM4088.13 990.032 4142.14 990.032 4142.14 1034 4088.13 1034ZM4387.14 975.032 4441.15 975.032 4441.15 1034 4387.14 1034ZM4685.15 887.029 4739.16 887.029 4739.16 1034 4685.15 1034ZM4984.16 739.024 5038.17 739.024 5038.17 1034 4984.16 1034ZM5282.17 592.019 5337.18 592.019 5337.18 1034 5282.17 1034Z" fill="#F4B183"/></g><g clip-path="url(#clip6)"><path d="M2989.5 1033.5 5377.5 1033.5" stroke="#D9D9D9" stroke-width="3.4375" stroke-linejoin="round" stroke-miterlimit="10" fill="none" fill-rule="evenodd"/></g><g clip-path="url(#clip7)"><text fill="#595959" font-family="Calibri,Calibri_MSFontService,sans-serif" font-weight="400" font-size="41" transform="matrix(1 0 0 1 2877.9 1046)">0,00</text></g><g clip-path="url(#clip8)"><text fill="#595959" font-family="Calibri,Calibri_MSFontService,sans-serif" font-weight="400" font-size="41" transform="matrix(1 0 0 1 2804.79 953)">1.000,00</text></g><g clip-path="url(#clip9)"><text fill="#595959" font-family="Calibri,Calibri_MSFontService,sans-serif" font-weight="400" font-size="41" transform="matrix(1 0 0 1 2804.79 860)">2.000,00</text></g><g clip-path="url(#clip10)"><text fill="#595959" font-family="Calibri,Calibri_MSFontService,sans-serif" font-weight="400" font-size="41" transform="matrix(1 0 0 1 2804.79 768)">3.000,00</text></g><g clip-path="url(#clip11)"><text fill="#595959" font-family="Calibri,Calibri_MSFontService,sans-serif" font-weight="400" font-size="41" transform="matrix(1 0 0 1 2804.79 675)">4.000,00</text></g><g clip-path="url(#clip12)"><text fill="#595959" font-family="Calibri,Calibri_MSFontService,sans-serif" font-weight="400" font-size="41" transform="matrix(1 0 0 1 2804.79 582)">5.000,00</text></g><g clip-path="url(#clip13)"><text fill="#595959" font-family="Calibri,Calibri_MSFontService,sans-serif" font-weight="400" font-size="41" transform="matrix(1 0 0 1 2804.79 490)">6.000,00</text></g><g clip-path="url(#clip14)"><text fill="#595959" font-family="Calibri,Calibri_MSFontService,sans-serif" font-weight="400" font-size="41" transform="matrix(1 0 0 1 2804.79 397)">7.000,00</text></g><g clip-path="url(#clip15)"><text fill="#595959" font-family="Calibri,Calibri_MSFontService,sans-serif" font-weight="400" font-size="41" transform="matrix(1 0 0 1 2804.79 304)">8.000,00</text></g><g clip-path="url(#clip16)"><text fill="#595959" font-family="Calibri,Calibri_MSFontService,sans-serif" font-weight="400" font-size="41" transform="matrix(1 0 0 1 3081.59 1099)">1,0E+5</text></g><g clip-path="url(#clip17)"><text fill="#595959" font-family="Calibri,Calibri_MSFontService,sans-serif" font-weight="400" font-size="41" transform="matrix(1 0 0 1 3380.12 1099)">2,5E+5</text></g><g clip-path="url(#clip18)"><text fill="#595959" font-family="Calibri,Calibri_MSFontService,sans-serif" font-weight="400" font-size="41" transform="matrix(1 0 0 1 3678.65 1099)">5,0E+5</text></g><g clip-path="url(#clip19)"><text fill="#595959" font-family="Calibri,Calibri_MSFontService,sans-serif" font-weight="400" font-size="41" transform="matrix(1 0 0 1 3977.18 1099)">7,5E+5</text></g><g clip-path="url(#clip20)"><text fill="#595959" font-family="Calibri,Calibri_MSFontService,sans-serif" font-weight="400" font-size="41" transform="matrix(1 0 0 1 4275.71 1099)">1,0E+6</text></g><g clip-path="url(#clip21)"><text fill="#595959" font-family="Calibri,Calibri_MSFontService,sans-serif" font-weight="400" font-size="41" transform="matrix(1 0 0 1 4574.24 1099)">2,5E+6</text></g><g clip-path="url(#clip22)"><text fill="#595959" font-family="Calibri,Calibri_MSFontService,sans-serif" font-weight="400" font-size="41" transform="matrix(1 0 0 1 4872.77 1099)">5,0E+6</text></g><g clip-path="url(#clip23)"><text fill="#595959" font-family="Calibri,Calibri_MSFontService,sans-serif" font-weight="400" font-size="41" transform="matrix(1 0 0 1 5171.3 1099)">7,5E+6</text></g><g clip-path="url(#clip24)"><text font-family="Calibri,Calibri_MSFontService,sans-serif" font-weight="700" font-size="46" transform="matrix(6.12323e-17 -1 1 6.12323e-17 2779.1 806)">Speicher in MB</text></g><g clip-path="url(#clip25)"><text font-family="Calibri,Calibri_MSFontService,sans-serif" font-weight="700" font-size="46" transform="matrix(1 0 0 1 4125.7 1168)">Zeilen</text></g><g clip-path="url(#clip26)"><rect x="3547" y="192" width="22.9998" height="22.9997" fill="#2F5597"/></g><g clip-path="url(#clip27)"><text fill="#595959" font-family="Calibri,Calibri_MSFontService,sans-serif" font-weight="400" font-size="41" transform="matrix(1 0 0 1 3579.28 215)">Parquet PG</text></g><g clip-path="url(#clip28)"><rect x="3819" y="192" width="23" height="22.9997" fill="#8FAADC"/></g><g clip-path="url(#clip29)"><text fill="#595959" font-family="Calibri,Calibri_MSFontService,sans-serif" font-weight="400" font-size="41" transform="matrix(1 0 0 1 3851.62 215)">Delta PG</text></g><g clip-path="url(#clip30)"><rect x="4047" y="192" width="23" height="22.9997" fill="#C55A11"/></g><g clip-path="url(#clip31)"><text fill="#595959" font-family="Calibri,Calibri_MSFontService,sans-serif" font-weight="400" font-size="41" transform="matrix(1 0 0 1 4079.73 215)">Parquet JSON</text></g><g clip-path="url(#clip32)"><rect x="4359" y="192" width="22" height="22.9997" fill="#F4B183"/></g><g clip-path="url(#clip33)"><text fill="#595959" font-family="Calibri,Calibri_MSFontService,sans-serif" font-weight="400" font-size="41" transform="matrix(1 0 0 1 4390.77 215)">Delta JSON</text></g><rect x="2678.5" y="138.5" width="2750" height="1099" stroke="#D9D9D9" stroke-width="3.4375" stroke-linejoin="round" stroke-miterlimit="10" fill="none"/></g></svg>