<svg width="2753" height="1102" xmlns="http://www.w3.org/2000/svg" xmlns:xlink="http://www.w3.org/1999/xlink" overflow="hidden"><defs><clipPath id="clip0"><rect x="2677" y="2612" width="2753" height="1102"/></clipPath><clipPath id="clip1"><rect x="2677" y="2612" width="2750" height="1100"/></clipPath><clipPath id="clip2"><rect x="3010" y="2767" width="2370" height="745"/></clipPath><clipPath id="clip3"><rect x="3010" y="2767" width="2370" height="745"/></clipPath><clipPath id="clip4"><rect x="3010" y="2767" width="2370" height="745"/></clipPath><clipPath id="clip5"><rect x="3010" y="2767" width="2370" height="745"/></clipPath><clipPath id="clip6"><rect x="3010" y="2767" width="2370" height="745"/></clipPath><clipPath id="clip7"><rect x="3010" y="2767" width="2370" height="745"/></clipPath><clipPath id="clip8"><rect x="3010" y="2767" width="2370" height="745"/></clipPath><clipPath id="clip9"><rect x="3010" y="2767" width="2370" height="745"/></clipPath><clipPath id="clip10"><rect x="2677" y="2612" width="2750" height="1100"/></clipPath><clipPath id="clip11"><rect x="2677" y="2612" width="2750" height="1100"/></clipPath><clipPath id="clip12"><rect x="2677" y="2612" width="2750" height="1100"/></clipPath><clipPath id="clip13"><rect x="2677" y="2612" width="2750" height="1100"/></clipPath><clipPath id="clip14"><rect x="2677" y="2612" width="2750" height="1100"/></clipPath><clipPath id="clip15"><rect x="2677" y="2612" width="2750" height="1100"/></clipPath><clipPath id="clip16"><rect x="2677" y="2612" width="2750" height="1100"/></clipPath><clipPath id="clip17"><rect x="2677" y="2612" width="2750" height="1100"/></clipPath><clipPath id="clip18"><rect x="2677" y="2612" width="2750" height="1100"/></clipPath><clipPath id="clip19"><rect x="2677" y="2612" width="2750" height="1100"/></clipPath><clipPath id="clip20"><rect x="2677" y="2612" width="2750" height="1100"/></clipPath><clipPath id="clip21"><rect x="2677" y="2612" width="2750" height="1100"/></clipPath><clipPath id="clip22"><rect x="2677" y="2612" width="2750" height="1100"/></clipPath><clipPath id="clip23"><rect x="2677" y="2612" width="2750" height="1100"/></clipPath><clipPath id="clip24"><rect x="2677" y="2612" width="2750" height="1100"/></clipPath><clipPath id="clip25"><rect x="2677" y="2612" width="2750" height="1100"/></clipPath><clipPath id="clip26"><rect x="2677" y="2612" width="2750" height="1100"/></clipPath><clipPath id="clip27"><rect x="2677" y="2612" width="2750" height="1100"/></clipPath><clipPath id="clip28"><rect x="2677" y="2612" width="2750" height="1100"/></clipPath><clipPath id="clip29"><rect x="2677" y="2612" width="2750" height="1100"/></clipPath><clipPath id="clip30"><rect x="2677" y="2612" width="2750" height="1100"/></clipPath><clipPath id="clip31"><rect x="2677" y="2612" width="2750" height="1100"/></clipPath><clipPath id="clip32"><rect x="2677" y="2612" width="2750" height="1100"/></clipPath><clipPath id="clip33"><rect x="2677" y="2612" width="2750" height="1100"/></clipPath><clipPath id="clip34"><rect x="2677" y="2612" width="2750" height="1100"/></clipPath><clipPath id="clip35"><rect x="2677" y="2612" width="2750" height="1100"/></clipPath><clipPath id="clip36"><rect x="2677" y="2612" width="2750" height="1100"/></clipPath><clipPath id="clip37"><rect x="2677" y="2612" width="2750" height="1100"/></clipPath><clipPath id="clip38"><rect x="2677" y="2612" width="2750" height="1100"/></clipPath><clipPath id="clip39"><rect x="2677" y="2612" width="2750" height="1100"/></clipPath><clipPath id="clip40"><rect x="2677" y="2612" width="2750" height="1100"/></clipPath><clipPath id="clip41"><rect x="2677" y="2612" width="2750" height="1100"/></clipPath><clipPath id="clip42"><rect x="2677" y="2612" width="2750" height="1100"/></clipPath></defs><g clip-path="url(#clip0)" transform="translate(-2677 -2612)"><rect x="2678" y="2613" width="2750" height="1099" fill="#FFFFFF"/><g clip-path="url(#clip1)"><path d="M3010.5 3360.61 5377.5 3360.61M3010.5 3212.61 5377.5 3212.61M3010.5 3064.6 5377.5 3064.6M3010.5 2915.6 5377.5 2915.6M3010.5 2767.5 5377.5 2767.5" stroke="#D9D9D9" stroke-width="3.4375" stroke-linejoin="round" stroke-miterlimit="10" fill="none"/></g><g clip-path="url(#clip2)"><path d="M3033.1 3506.11 3064.1 3506.11 3064.1 3509 3033.1 3509ZM3329.11 3501.11 3360.11 3501.11 3360.11 3509 3329.11 3509ZM3625.12 3493.11 3656.12 3493.11 3656.12 3509 3625.12 3509ZM3921.13 3485.11 3952.13 3485.11 3952.13 3509 3921.13 3509ZM4217.14 3477.11 4248.14 3477.11 4248.14 3509 4217.14 3509ZM4513.15 3430.11 4544.15 3430.11 4544.15 3509 4513.15 3509ZM4809.16 3351.11 4840.16 3351.11 4840.16 3509 4809.16 3509ZM5105.17 3272.11 5136.17 3272.11 5136.17 3509 5105.17 3509Z" fill="#2F5597"/></g><g clip-path="url(#clip3)"><path d="M3064.1 3503.11 3096.1 3503.11 3096.1 3509 3064.1 3509ZM3360.11 3494.11 3392.11 3494.11 3392.11 3509 3360.11 3509ZM3656.12 3479.11 3687.12 3479.11 3687.12 3509 3656.12 3509ZM3952.13 3464.11 3983.13 3464.11 3983.13 3509 3952.13 3509ZM4248.14 3449.11 4279.14 3449.11 4279.14 3509 4248.14 3509ZM4544.15 3360.11 4575.15 3360.11 4575.15 3509 4544.15 3509ZM4840.16 3211.11 4871.16 3211.11 4871.16 3509 4840.16 3509ZM5136.17 3062.1 5167.17 3062.1 5167.17 3509 5136.17 3509Z" fill="#8FAADC"/></g><g clip-path="url(#clip4)"><path d="M3096.1 3507.11 3127.1 3507.11 3127.1 3509 3096.1 3509ZM3392.11 3503.11 3423.11 3503.11 3423.11 3509 3392.11 3509ZM3687.12 3498.11 3719.12 3498.11 3719.12 3509 3687.12 3509ZM3983.13 3492.11 4014.13 3492.11 4014.13 3509 3983.13 3509ZM4279.14 3486.11 4310.14 3486.11 4310.14 3509 4279.14 3509ZM4575.15 3452.11 4606.15 3452.11 4606.15 3509 4575.15 3509ZM4871.16 3396.11 4902.16 3396.11 4902.16 3509 4871.16 3509ZM5167.17 3339.11 5198.17 3339.11 5198.17 3509 5167.17 3509Z" fill="#C55A11"/></g><g clip-path="url(#clip5)"><path d="M3127.1 3505.11 3158.1 3505.11 3158.1 3509 3127.1 3509ZM3423.11 3498.11 3454.11 3498.11 3454.11 3509 3423.11 3509ZM3719.12 3488.11 3750.12 3488.11 3750.12 3509 3719.12 3509ZM4014.13 3478.11 4046.13 3478.11 4046.13 3509 4014.13 3509ZM4310.14 3467.11 4342.14 3467.11 4342.14 3509 4310.14 3509ZM4606.15 3405.11 4637.15 3405.11 4637.15 3509 4606.15 3509ZM4902.16 3305.11 4933.16 3305.11 4933.16 3509 4902.16 3509ZM5198.17 3202.1 5229.17 3202.1 5229.17 3509 5198.17 3509Z" fill="#F4B183"/></g><g clip-path="url(#clip6)"><path d="M3158.1 3504.11 3189.1 3504.11 3189.1 3509 3158.1 3509ZM3454.11 3497.11 3485.11 3497.11 3485.11 3509 3454.11 3509ZM3750.12 3484.11 3781.12 3484.11 3781.12 3509 3750.12 3509ZM4046.13 3472.11 4077.13 3472.11 4077.13 3509 4046.13 3509ZM4342.14 3460.11 4373.14 3460.11 4373.14 3509 4342.14 3509ZM4637.15 3386.11 4669.15 3386.11 4669.15 3509 4637.15 3509ZM4933.16 3263.11 4965.16 3263.11 4965.16 3509 4933.16 3509ZM5229.17 3140.1 5260.17 3140.1 5260.17 3509 5229.17 3509Z" fill="#548235"/></g><g clip-path="url(#clip7)"><path d="M3189.1 3501.11 3220.11 3501.11 3220.11 3509 3189.1 3509ZM3485.11 3489.11 3516.12 3489.11 3516.12 3509 3485.11 3509ZM3781.12 3470.11 3812.12 3470.11 3812.12 3509 3781.12 3509ZM4077.13 3451.11 4108.13 3451.11 4108.13 3509 4077.13 3509ZM4373.14 3432.11 4404.14 3432.11 4404.14 3509 4373.14 3509ZM4669.15 3316.11 4700.15 3316.11 4700.15 3509 4669.15 3509ZM4965.16 3122.1 4996.16 3122.1 4996.16 3509 4965.16 3509ZM5260.17 2929.1 5292.17 2929.1 5292.17 3509 5260.17 3509Z" fill="#A9D18E"/></g><g clip-path="url(#clip8)"><path d="M3220.11 3506.11 3251.11 3506.11 3251.11 3509 3220.11 3509ZM3516.12 3501.11 3547.12 3501.11 3547.12 3509 3516.12 3509ZM3812.12 3492.11 3843.13 3492.11 3843.13 3509 3812.12 3509ZM4108.13 3484.11 4139.14 3484.11 4139.14 3509 4108.13 3509ZM4404.14 3476.11 4435.15 3476.11 4435.15 3509 4404.14 3509ZM4700.15 3426.11 4731.16 3426.11 4731.16 3509 4700.15 3509ZM4996.16 3344.11 5027.17 3344.11 5027.17 3509 4996.16 3509ZM5292.17 3259.11 5323.17 3259.11 5323.17 3509 5292.17 3509Z" fill="#BF9000"/></g><g clip-path="url(#clip9)"><path d="M3251.11 3504.11 3283.11 3504.11 3283.11 3509 3251.11 3509ZM3547.12 3496.11 3578.12 3496.11 3578.12 3509 3547.12 3509ZM3843.13 3483.11 3874.13 3483.11 3874.13 3509 3843.13 3509ZM4139.14 3470.11 4170.14 3470.11 4170.14 3509 4139.14 3509ZM4435.15 3457.11 4466.15 3457.11 4466.15 3509 4435.15 3509ZM4731.16 3379.11 4762.16 3379.11 4762.16 3509 4731.16 3509ZM5027.17 3253.11 5058.17 3253.11 5058.17 3509 5027.17 3509ZM5323.17 3123.1 5354.18 3123.1 5354.18 3509 5323.17 3509Z" fill="#FFD966"/></g><g clip-path="url(#clip10)"><path d="M3010.5 3508.5 5377.5 3508.5" stroke="#D9D9D9" stroke-width="3.4375" stroke-linejoin="round" stroke-miterlimit="10" fill="none" fill-rule="evenodd"/></g><g clip-path="url(#clip11)"><text fill="#595959" font-family="Calibri,Calibri_MSFontService,sans-serif" font-weight="400" font-size="41" transform="matrix(1 0 0 1 2898.8 3521)">0,00</text></g><g clip-path="url(#clip12)"><text fill="#595959" font-family="Calibri,Calibri_MSFontService,sans-serif" font-weight="400" font-size="41" transform="matrix(1 0 0 1 2825.69 3372)">5.000,00</text></g><g clip-path="url(#clip13)"><text fill="#595959" font-family="Calibri,Calibri_MSFontService,sans-serif" font-weight="400" font-size="41" transform="matrix(1 0 0 1 2804.79 3224)">10.000,00</text></g><g clip-path="url(#clip14)"><text fill="#595959" font-family="Calibri,Calibri_MSFontService,sans-serif" font-weight="400" font-size="41" transform="matrix(1 0 0 1 2804.79 3076)">15.000,00</text></g><g clip-path="url(#clip15)"><text fill="#595959" font-family="Calibri,Calibri_MSFontService,sans-serif" font-weight="400" font-size="41" transform="matrix(1 0 0 1 2804.79 2928)">20.000,00</text></g><g clip-path="url(#clip16)"><text fill="#595959" font-family="Calibri,Calibri_MSFontService,sans-serif" font-weight="400" font-size="41" transform="matrix(1 0 0 1 2804.79 2779)">25.000,00</text></g><g clip-path="url(#clip17)"><text fill="#595959" font-family="Calibri,Calibri_MSFontService,sans-serif" font-weight="400" font-size="41" transform="matrix(1 0 0 1 3101.18 3574)">1,0E+5</text></g><g clip-path="url(#clip18)"><text fill="#595959" font-family="Calibri,Calibri_MSFontService,sans-serif" font-weight="400" font-size="41" transform="matrix(1 0 0 1 3397.1 3574)">2,5E+5</text></g><g clip-path="url(#clip19)"><text fill="#595959" font-family="Calibri,Calibri_MSFontService,sans-serif" font-weight="400" font-size="41" transform="matrix(1 0 0 1 3693.02 3574)">5,0E+5</text></g><g clip-path="url(#clip20)"><text fill="#595959" font-family="Calibri,Calibri_MSFontService,sans-serif" font-weight="400" font-size="41" transform="matrix(1 0 0 1 3988.93 3574)">7,5E+5</text></g><g clip-path="url(#clip21)"><text fill="#595959" font-family="Calibri,Calibri_MSFontService,sans-serif" font-weight="400" font-size="41" transform="matrix(1 0 0 1 4284.85 3574)">1,0E+6</text></g><g clip-path="url(#clip22)"><text fill="#595959" font-family="Calibri,Calibri_MSFontService,sans-serif" font-weight="400" font-size="41" transform="matrix(1 0 0 1 4580.77 3574)">2,5E+6</text></g><g clip-path="url(#clip23)"><text fill="#595959" font-family="Calibri,Calibri_MSFontService,sans-serif" font-weight="400" font-size="41" transform="matrix(1 0 0 1 4876.69 3574)">5,0E+6</text></g><g clip-path="url(#clip24)"><text fill="#595959" font-family="Calibri,Calibri_MSFontService,sans-serif" font-weight="400" font-size="41" transform="matrix(1 0 0 1 5172.6 3574)">7,5E+6</text></g><g clip-path="url(#clip25)"><text font-family="Calibri,Calibri_MSFontService,sans-serif" font-weight="700" font-size="46" transform="matrix(6.12323e-17 -1 1 6.12323e-17 2779.1 3281)">Speicher in MB</text></g><g clip-path="url(#clip26)"><text font-family="Calibri,Calibri_MSFontService,sans-serif" font-weight="700" font-size="46" transform="matrix(1 0 0 1 4136.15 3643)">Zeilen</text></g><g clip-path="url(#clip27)"><rect x="2855" y="2667" width="22" height="22.9998" fill="#2F5597"/></g><g clip-path="url(#clip28)"><text fill="#595959" font-family="Calibri,Calibri_MSFontService,sans-serif" font-weight="400" font-size="41" transform="matrix(1 0 0 1 2887.06 2690)">Parquet PG S1</text></g><g clip-path="url(#clip29)"><rect x="3164" y="2667" width="22" height="22.9998" fill="#8FAADC"/></g><g clip-path="url(#clip30)"><text fill="#595959" font-family="Calibri,Calibri_MSFontService,sans-serif" font-weight="400" font-size="41" transform="matrix(1 0 0 1 3196.1 2690)">Delta PG S1</text></g><g clip-path="url(#clip31)"><rect x="3429" y="2667" width="22" height="22.9998" fill="#C55A11"/></g><g clip-path="url(#clip32)"><text fill="#595959" font-family="Calibri,Calibri_MSFontService,sans-serif" font-weight="400" font-size="41" transform="matrix(1 0 0 1 3460.92 2690)">Parquet JSON S1</text></g><g clip-path="url(#clip33)"><rect x="3776" y="2667" width="23" height="22.9998" fill="#F4B183"/></g><g clip-path="url(#clip34)"><text fill="#595959" font-family="Calibri,Calibri_MSFontService,sans-serif" font-weight="400" font-size="41" transform="matrix(1 0 0 1 3808.67 2690)">Delta JSON S1</text></g><g clip-path="url(#clip35)"><rect x="4080" y="2667" width="23" height="22.9998" fill="#548235"/></g><g clip-path="url(#clip36)"><text fill="#595959" font-family="Calibri,Calibri_MSFontService,sans-serif" font-weight="400" font-size="41" transform="matrix(1 0 0 1 4112.2 2690)">Parquet PG S2</text></g><g clip-path="url(#clip37)"><rect x="4389" y="2667" width="23" height="22.9998" fill="#A9D18E"/></g><g clip-path="url(#clip38)"><text fill="#595959" font-family="Calibri,Calibri_MSFontService,sans-serif" font-weight="400" font-size="41" transform="matrix(1 0 0 1 4421.24 2690)">Delta PG S2</text></g><g clip-path="url(#clip39)"><rect x="4654" y="2667" width="22" height="22.9998" fill="#BF9000"/></g><g clip-path="url(#clip40)"><text fill="#595959" font-family="Calibri,Calibri_MSFontService,sans-serif" font-weight="400" font-size="41" transform="matrix(1 0 0 1 4686.06 2690)">Parquet JSON S2</text></g><g clip-path="url(#clip41)"><rect x="5002" y="2667" width="22" height="22.9998" fill="#FFD966"/></g><g clip-path="url(#clip42)"><text fill="#595959" font-family="Calibri,Calibri_MSFontService,sans-serif" font-weight="400" font-size="41" transform="matrix(1 0 0 1 5033.81 2690)">Delta JSON S2</text></g><rect x="2678.5" y="2613.5" width="2750" height="1099" stroke="#D9D9D9" stroke-width="3.4375" stroke-linejoin="round" stroke-miterlimit="10" fill="none"/></g></svg>