<svg width="2753" height="1103" xmlns="http://www.w3.org/2000/svg" xmlns:xlink="http://www.w3.org/1999/xlink" overflow="hidden"><defs><clipPath id="clip0"><rect x="2677" y="1374" width="2753" height="1103"/></clipPath><clipPath id="clip1"><rect x="2677" y="1375" width="2750" height="1100"/></clipPath><clipPath id="clip2"><rect x="3010" y="1530" width="2370" height="744"/></clipPath><clipPath id="clip3"><rect x="3010" y="1530" width="2370" height="744"/></clipPath><clipPath id="clip4"><rect x="3010" y="1530" width="2370" height="744"/></clipPath><clipPath id="clip5"><rect x="3010" y="1530" width="2370" height="744"/></clipPath><clipPath id="clip6"><rect x="3010" y="1530" width="2370" height="744"/></clipPath><clipPath id="clip7"><rect x="3010" y="1530" width="2370" height="744"/></clipPath><clipPath id="clip8"><rect x="3010" y="1530" width="2370" height="744"/></clipPath><clipPath id="clip9"><rect x="3010" y="1530" width="2370" height="744"/></clipPath><clipPath id="clip10"><rect x="2677" y="1375" width="2750" height="1100"/></clipPath><clipPath id="clip11"><rect x="2677" y="1375" width="2750" height="1100"/></clipPath><clipPath id="clip12"><rect x="2677" y="1375" width="2750" height="1100"/></clipPath><clipPath id="clip13"><rect x="2677" y="1375" width="2750" height="1100"/></clipPath><clipPath id="clip14"><rect x="2677" y="1375" width="2750" height="1100"/></clipPath><clipPath id="clip15"><rect x="2677" y="1375" width="2750" height="1100"/></clipPath><clipPath id="clip16"><rect x="2677" y="1375" width="2750" height="1100"/></clipPath><clipPath id="clip17"><rect x="2677" y="1375" width="2750" height="1100"/></clipPath><clipPath id="clip18"><rect x="2677" y="1375" width="2750" height="1100"/></clipPath><clipPath id="clip19"><rect x="2677" y="1375" width="2750" height="1100"/></clipPath><clipPath id="clip20"><rect x="2677" y="1375" width="2750" height="1100"/></clipPath><clipPath id="clip21"><rect x="2677" y="1375" width="2750" height="1100"/></clipPath><clipPath id="clip22"><rect x="2677" y="1375" width="2750" height="1100"/></clipPath><clipPath id="clip23"><rect x="2677" y="1375" width="2750" height="1100"/></clipPath><clipPath id="clip24"><rect x="2677" y="1375" width="2750" height="1100"/></clipPath><clipPath id="clip25"><rect x="2677" y="1375" width="2750" height="1100"/></clipPath><clipPath id="clip26"><rect x="2677" y="1375" width="2750" height="1100"/></clipPath><clipPath id="clip27"><rect x="2677" y="1375" width="2750" height="1100"/></clipPath><clipPath id="clip28"><rect x="2677" y="1375" width="2750" height="1100"/></clipPath><clipPath id="clip29"><rect x="2677" y="1375" width="2750" height="1100"/></clipPath><clipPath id="clip30"><rect x="2677" y="1375" width="2750" height="1100"/></clipPath><clipPath id="clip31"><rect x="2677" y="1375" width="2750" height="1100"/></clipPath><clipPath id="clip32"><rect x="2677" y="1375" width="2750" height="1100"/></clipPath><clipPath id="clip33"><rect x="2677" y="1375" width="2750" height="1100"/></clipPath><clipPath id="clip34"><rect x="2677" y="1375" width="2750" height="1100"/></clipPath><clipPath id="clip35"><rect x="2677" y="1375" width="2750" height="1100"/></clipPath><clipPath id="clip36"><rect x="2677" y="1375" width="2750" height="1100"/></clipPath><clipPath id="clip37"><rect x="2677" y="1375" width="2750" height="1100"/></clipPath><clipPath id="clip38"><rect x="2677" y="1375" width="2750" height="1100"/></clipPath><clipPath id="clip39"><rect x="2677" y="1375" width="2750" height="1100"/></clipPath><clipPath id="clip40"><rect x="2677" y="1375" width="2750" height="1100"/></clipPath><clipPath id="clip41"><rect x="2677" y="1375" width="2750" height="1100"/></clipPath><clipPath id="clip42"><rect x="2677" y="1375" width="2750" height="1100"/></clipPath></defs><g clip-path="url(#clip0)" transform="translate(-2677 -1374)"><rect x="2678" y="1375" width="2750" height="1100" fill="#FFFFFF"/><g clip-path="url(#clip1)"><path d="M3010.5 2123.57 5377.5 2123.57M3010.5 1974.56 5377.5 1974.56M3010.5 1826.56 5377.5 1826.56M3010.5 1678.56 5377.5 1678.56M3010.5 1530.5 5377.5 1530.5" stroke="#D9D9D9" stroke-width="3.4375" stroke-linejoin="round" stroke-miterlimit="10" fill="none"/></g><g clip-path="url(#clip2)"><path d="M3033.1 2268.07 3064.1 2268.07 3064.1 2271 3033.1 2271ZM3329.11 2264.07 3360.11 2264.07 3360.11 2271 3329.11 2271ZM3625.12 2256.07 3656.12 2256.07 3656.12 2271 3625.12 2271ZM3921.13 2248.07 3952.13 2248.07 3952.13 2271 3921.13 2271ZM4217.14 2240.07 4248.14 2240.07 4248.14 2271 4217.14 2271ZM4513.15 2193.07 4544.15 2193.07 4544.15 2271 4513.15 2271ZM4809.16 2114.07 4840.16 2114.07 4840.16 2271 4809.16 2271ZM5105.17 2036.07 5136.17 2036.07 5136.17 2271 5105.17 2271Z" fill="#2F5597"/></g><g clip-path="url(#clip3)"><path d="M3064.1 2265.07 3096.1 2265.07 3096.1 2271 3064.1 2271ZM3360.11 2256.07 3392.11 2256.07 3392.11 2271 3360.11 2271ZM3656.12 2242.07 3687.12 2242.07 3687.12 2271 3656.12 2271ZM3952.13 2227.07 3983.13 2227.07 3983.13 2271 3952.13 2271ZM4248.14 2212.07 4279.14 2212.07 4279.14 2271 4248.14 2271ZM4544.15 2122.07 4575.15 2122.07 4575.15 2271 4544.15 2271ZM4840.16 1974.06 4871.16 1974.06 4871.16 2271 4840.16 2271ZM5136.17 1825.06 5167.17 1825.06 5167.17 2271 5136.17 2271Z" fill="#8FAADC"/></g><g clip-path="url(#clip4)"><path d="M3096.1 2269.07 3127.1 2269.07 3127.1 2271 3096.1 2271ZM3392.11 2266.07 3423.11 2266.07 3423.11 2271 3392.11 2271ZM3687.12 2260.07 3719.12 2260.07 3719.12 2271 3687.12 2271ZM3983.13 2254.07 4014.13 2254.07 4014.13 2271 3983.13 2271ZM4279.14 2249.07 4310.14 2249.07 4310.14 2271 4279.14 2271ZM4575.15 2215.07 4606.15 2215.07 4606.15 2271 4575.15 2271ZM4871.16 2158.07 4902.16 2158.07 4902.16 2271 4871.16 2271ZM5167.17 2102.07 5198.17 2102.07 5198.17 2271 5167.17 2271Z" fill="#C55A11"/></g><g clip-path="url(#clip5)"><path d="M3127.1 2267.07 3158.1 2267.07 3158.1 2271 3127.1 2271ZM3423.11 2261.07 3454.11 2261.07 3454.11 2271 3423.11 2271ZM3719.12 2250.07 3750.12 2250.07 3750.12 2271 3719.12 2271ZM4014.13 2240.07 4046.13 2240.07 4046.13 2271 4014.13 2271ZM4310.14 2230.07 4342.14 2230.07 4342.14 2271 4310.14 2271ZM4606.15 2168.07 4637.15 2168.07 4637.15 2271 4606.15 2271ZM4902.16 2067.07 4933.16 2067.07 4933.16 2271 4902.16 2271ZM5198.17 1964.06 5229.17 1964.06 5229.17 2271 5198.17 2271Z" fill="#F4B183"/></g><g clip-path="url(#clip6)"><path d="M3158.1 2267.07 3189.1 2267.07 3189.1 2271 3158.1 2271ZM3454.11 2259.07 3485.11 2259.07 3485.11 2271 3454.11 2271ZM3750.12 2247.07 3781.12 2247.07 3781.12 2271 3750.12 2271ZM4046.13 2235.07 4077.13 2235.07 4077.13 2271 4046.13 2271ZM4342.14 2222.07 4373.14 2222.07 4373.14 2271 4342.14 2271ZM4637.15 2149.07 4669.15 2149.07 4669.15 2271 4637.15 2271ZM4933.16 2026.07 4965.16 2026.07 4965.16 2271 4933.16 2271ZM5229.17 1903.06 5260.17 1903.06 5260.17 2271 5229.17 2271Z" fill="#548235"/></g><g clip-path="url(#clip7)"><path d="M3189.1 2264.07 3220.11 2264.07 3220.11 2271 3189.1 2271ZM3485.11 2252.07 3516.12 2252.07 3516.12 2271 3485.11 2271ZM3781.12 2233.07 3812.12 2233.07 3812.12 2271 3781.12 2271ZM4077.13 2213.07 4108.13 2213.07 4108.13 2271 4077.13 2271ZM4373.14 2194.07 4404.14 2194.07 4404.14 2271 4373.14 2271ZM4669.15 2078.07 4700.15 2078.07 4700.15 2271 4669.15 2271ZM4965.16 1885.06 4996.16 1885.06 4996.16 2271 4965.16 2271ZM5260.17 1692.06 5292.17 1692.06 5292.17 2271 5260.17 2271Z" fill="#A9D18E"/></g><g clip-path="url(#clip8)"><path d="M3220.11 2268.07 3251.11 2268.07 3251.11 2271 3220.11 2271ZM3516.12 2263.07 3547.12 2263.07 3547.12 2271 3516.12 2271ZM3812.12 2255.07 3843.13 2255.07 3843.13 2271 3812.12 2271ZM4108.13 2247.07 4139.14 2247.07 4139.14 2271 4108.13 2271ZM4404.14 2238.07 4435.15 2238.07 4435.15 2271 4404.14 2271ZM4700.15 2189.07 4731.16 2189.07 4731.16 2271 4700.15 2271ZM4996.16 2106.07 5027.17 2106.07 5027.17 2271 4996.16 2271ZM5292.17 2024.07 5323.17 2024.07 5323.17 2271 5292.17 2271Z" fill="#BF9000"/></g><g clip-path="url(#clip9)"><path d="M3251.11 2266.07 3283.11 2266.07 3283.11 2271 3251.11 2271ZM3547.12 2258.07 3578.12 2258.07 3578.12 2271 3547.12 2271ZM3843.13 2245.07 3874.13 2245.07 3874.13 2271 3843.13 2271ZM4139.14 2232.07 4170.14 2232.07 4170.14 2271 4139.14 2271ZM4435.15 2219.07 4466.15 2219.07 4466.15 2271 4435.15 2271ZM4731.16 2143.07 4762.16 2143.07 4762.16 2271 4731.16 2271ZM5027.17 2017.07 5058.17 2017.07 5058.17 2271 5027.17 2271ZM5323.17 1885.06 5354.18 1885.06 5354.18 2271 5323.17 2271Z" fill="#FFD966"/></g><g clip-path="url(#clip10)"><path d="M3010.5 2271.5 5377.5 2271.5" stroke="#D9D9D9" stroke-width="3.4375" stroke-linejoin="round" stroke-miterlimit="10" fill="none" fill-rule="evenodd"/></g><g clip-path="url(#clip11)"><text fill="#595959" font-family="Calibri,Calibri_MSFontService,sans-serif" font-weight="400" font-size="41" transform="matrix(1 0 0 1 2898.8 2283)">0,00</text></g><g clip-path="url(#clip12)"><text fill="#595959" font-family="Calibri,Calibri_MSFontService,sans-serif" font-weight="400" font-size="41" transform="matrix(1 0 0 1 2825.69 2135)">5.000,00</text></g><g clip-path="url(#clip13)"><text fill="#595959" font-family="Calibri,Calibri_MSFontService,sans-serif" font-weight="400" font-size="41" transform="matrix(1 0 0 1 2804.79 1987)">10.000,00</text></g><g clip-path="url(#clip14)"><text fill="#595959" font-family="Calibri,Calibri_MSFontService,sans-serif" font-weight="400" font-size="41" transform="matrix(1 0 0 1 2804.79 1838)">15.000,00</text></g><g clip-path="url(#clip15)"><text fill="#595959" font-family="Calibri,Calibri_MSFontService,sans-serif" font-weight="400" font-size="41" transform="matrix(1 0 0 1 2804.79 1690)">20.000,00</text></g><g clip-path="url(#clip16)"><text fill="#595959" font-family="Calibri,Calibri_MSFontService,sans-serif" font-weight="400" font-size="41" transform="matrix(1 0 0 1 2804.79 1542)">25.000,00</text></g><g clip-path="url(#clip17)"><text fill="#595959" font-family="Calibri,Calibri_MSFontService,sans-serif" font-weight="400" font-size="41" transform="matrix(1 0 0 1 3101.18 2337)">1,0E+5</text></g><g clip-path="url(#clip18)"><text fill="#595959" font-family="Calibri,Calibri_MSFontService,sans-serif" font-weight="400" font-size="41" transform="matrix(1 0 0 1 3397.1 2337)">2,5E+5</text></g><g clip-path="url(#clip19)"><text fill="#595959" font-family="Calibri,Calibri_MSFontService,sans-serif" font-weight="400" font-size="41" transform="matrix(1 0 0 1 3693.02 2337)">5,0E+5</text></g><g clip-path="url(#clip20)"><text fill="#595959" font-family="Calibri,Calibri_MSFontService,sans-serif" font-weight="400" font-size="41" transform="matrix(1 0 0 1 3988.93 2337)">7,5E+5</text></g><g clip-path="url(#clip21)"><text fill="#595959" font-family="Calibri,Calibri_MSFontService,sans-serif" font-weight="400" font-size="41" transform="matrix(1 0 0 1 4284.85 2337)">1,0E+6</text></g><g clip-path="url(#clip22)"><text fill="#595959" font-family="Calibri,Calibri_MSFontService,sans-serif" font-weight="400" font-size="41" transform="matrix(1 0 0 1 4580.77 2337)">2,5E+6</text></g><g clip-path="url(#clip23)"><text fill="#595959" font-family="Calibri,Calibri_MSFontService,sans-serif" font-weight="400" font-size="41" transform="matrix(1 0 0 1 4876.69 2337)">5,0E+6</text></g><g clip-path="url(#clip24)"><text fill="#595959" font-family="Calibri,Calibri_MSFontService,sans-serif" font-weight="400" font-size="41" transform="matrix(1 0 0 1 5172.6 2337)">7,5E+6</text></g><g clip-path="url(#clip25)"><text font-family="Calibri,Calibri_MSFontService,sans-serif" font-weight="700" font-size="46" transform="matrix(6.12323e-17 -1 1 6.12323e-17 2779.1 2044)">Speicher in MB</text></g><g clip-path="url(#clip26)"><text font-family="Calibri,Calibri_MSFontService,sans-serif" font-weight="700" font-size="46" transform="matrix(1 0 0 1 4136.15 2406)">Zeilen</text></g><g clip-path="url(#clip27)"><rect x="2855" y="1430" width="22" height="23" fill="#2F5597"/></g><g clip-path="url(#clip28)"><text fill="#595959" font-family="Calibri,Calibri_MSFontService,sans-serif" font-weight="400" font-size="41" transform="matrix(1 0 0 1 2887.06 1453)">Parquet PG S1</text></g><g clip-path="url(#clip29)"><rect x="3164" y="1430" width="22" height="23" fill="#8FAADC"/></g><g clip-path="url(#clip30)"><text fill="#595959" font-family="Calibri,Calibri_MSFontService,sans-serif" font-weight="400" font-size="41" transform="matrix(1 0 0 1 3196.1 1453)">Delta PG S1</text></g><g clip-path="url(#clip31)"><rect x="3429" y="1430" width="22" height="23" fill="#C55A11"/></g><g clip-path="url(#clip32)"><text fill="#595959" font-family="Calibri,Calibri_MSFontService,sans-serif" font-weight="400" font-size="41" transform="matrix(1 0 0 1 3460.92 1453)">Parquet JSON S1</text></g><g clip-path="url(#clip33)"><rect x="3776" y="1430" width="23" height="23" fill="#F4B183"/></g><g clip-path="url(#clip34)"><text fill="#595959" font-family="Calibri,Calibri_MSFontService,sans-serif" font-weight="400" font-size="41" transform="matrix(1 0 0 1 3808.67 1453)">Delta JSON S1</text></g><g clip-path="url(#clip35)"><rect x="4080" y="1430" width="23" height="23" fill="#548235"/></g><g clip-path="url(#clip36)"><text fill="#595959" font-family="Calibri,Calibri_MSFontService,sans-serif" font-weight="400" font-size="41" transform="matrix(1 0 0 1 4112.2 1453)">Parquet PG S2</text></g><g clip-path="url(#clip37)"><rect x="4389" y="1430" width="23" height="23" fill="#A9D18E"/></g><g clip-path="url(#clip38)"><text fill="#595959" font-family="Calibri,Calibri_MSFontService,sans-serif" font-weight="400" font-size="41" transform="matrix(1 0 0 1 4421.24 1453)">Delta PG S2</text></g><g clip-path="url(#clip39)"><rect x="4654" y="1430" width="22" height="23" fill="#BF9000"/></g><g clip-path="url(#clip40)"><text fill="#595959" font-family="Calibri,Calibri_MSFontService,sans-serif" font-weight="400" font-size="41" transform="matrix(1 0 0 1 4686.06 1453)">Parquet JSON S2</text></g><g clip-path="url(#clip41)"><rect x="5002" y="1430" width="22" height="23" fill="#FFD966"/></g><g clip-path="url(#clip42)"><text fill="#595959" font-family="Calibri,Calibri_MSFontService,sans-serif" font-weight="400" font-size="41" transform="matrix(1 0 0 1 5033.81 1453)">Delta JSON S2</text></g><rect x="2678.5" y="1375.5" width="2750" height="1100" stroke="#D9D9D9" stroke-width="3.4375" stroke-linejoin="round" stroke-miterlimit="10" fill="none"/></g></svg>