<svg width="2752" height="1101" xmlns="http://www.w3.org/2000/svg" xmlns:xlink="http://www.w3.org/1999/xlink" overflow="hidden"><defs><clipPath id="clip0"><rect x="2752" y="2612" width="2752" height="1101"/></clipPath><clipPath id="clip1"><rect x="2753" y="2612" width="2750" height="1100"/></clipPath><clipPath id="clip2"><rect x="2753" y="2612" width="2750" height="1100"/></clipPath><clipPath id="clip3"><rect x="3013" y="2767" width="2443" height="745"/></clipPath><clipPath id="clip4"><rect x="3013" y="2767" width="2443" height="745"/></clipPath><clipPath id="clip5"><rect x="3013" y="2767" width="2443" height="745"/></clipPath><clipPath id="clip6"><rect x="3013" y="2767" width="2443" height="745"/></clipPath><clipPath id="clip7"><rect x="3013" y="2767" width="2443" height="745"/></clipPath><clipPath id="clip8"><rect x="3013" y="2767" width="2443" height="745"/></clipPath><clipPath id="clip9"><rect x="3013" y="2767" width="2443" height="745"/></clipPath><clipPath id="clip10"><rect x="3013" y="2767" width="2443" height="745"/></clipPath><clipPath id="clip11"><rect x="2753" y="2612" width="2750" height="1100"/></clipPath><clipPath id="clip12"><rect x="2753" y="2612" width="2750" height="1100"/></clipPath><clipPath id="clip13"><rect x="2753" y="2612" width="2750" height="1100"/></clipPath><clipPath id="clip14"><rect x="2753" y="2612" width="2750" height="1100"/></clipPath><clipPath id="clip15"><rect x="2753" y="2612" width="2750" height="1100"/></clipPath><clipPath id="clip16"><rect x="2753" y="2612" width="2750" height="1100"/></clipPath><clipPath id="clip17"><rect x="2753" y="2612" width="2750" height="1100"/></clipPath><clipPath id="clip18"><rect x="2753" y="2612" width="2750" height="1100"/></clipPath><clipPath id="clip19"><rect x="2753" y="2612" width="2750" height="1100"/></clipPath><clipPath id="clip20"><rect x="2753" y="2612" width="2750" height="1100"/></clipPath><clipPath id="clip21"><rect x="2753" y="2612" width="2750" height="1100"/></clipPath><clipPath id="clip22"><rect x="2753" y="2612" width="2750" height="1100"/></clipPath><clipPath id="clip23"><rect x="2753" y="2612" width="2750" height="1100"/></clipPath><clipPath id="clip24"><rect x="2753" y="2612" width="2750" height="1100"/></clipPath><clipPath id="clip25"><rect x="2753" y="2612" width="2750" height="1100"/></clipPath><clipPath id="clip26"><rect x="2753" y="2612" width="2750" height="1100"/></clipPath><clipPath id="clip27"><rect x="2753" y="2612" width="2750" height="1100"/></clipPath><clipPath id="clip28"><rect x="2753" y="2612" width="2750" height="1100"/></clipPath><clipPath id="clip29"><rect x="2753" y="2612" width="2750" height="1100"/></clipPath><clipPath id="clip30"><rect x="2753" y="2612" width="2750" height="1100"/></clipPath><clipPath id="clip31"><rect x="2753" y="2612" width="2750" height="1100"/></clipPath><clipPath id="clip32"><rect x="2753" y="2612" width="2750" height="1100"/></clipPath><clipPath id="clip33"><rect x="2753" y="2612" width="2750" height="1100"/></clipPath><clipPath id="clip34"><rect x="2753" y="2612" width="2750" height="1100"/></clipPath><clipPath id="clip35"><rect x="2753" y="2612" width="2750" height="1100"/></clipPath><clipPath id="clip36"><rect x="2753" y="2612" width="2750" height="1100"/></clipPath><clipPath id="clip37"><rect x="2753" y="2612" width="2750" height="1100"/></clipPath><clipPath id="clip38"><rect x="2753" y="2612" width="2750" height="1100"/></clipPath><clipPath id="clip39"><rect x="2753" y="2612" width="2750" height="1100"/></clipPath><clipPath id="clip40"><rect x="2753" y="2612" width="2750" height="1100"/></clipPath><clipPath id="clip41"><rect x="2753" y="2612" width="2750" height="1100"/></clipPath><clipPath id="clip42"><rect x="2753" y="2612" width="2750" height="1100"/></clipPath><clipPath id="clip43"><rect x="2753" y="2612" width="2750" height="1100"/></clipPath><clipPath id="clip44"><rect x="2753" y="2612" width="2750" height="1100"/></clipPath></defs><g clip-path="url(#clip0)" transform="translate(-2752 -2612)"><rect x="2753" y="2613" width="2750" height="1099" fill="#FFFFFF"/><g clip-path="url(#clip1)"><rect x="3013" y="2768" width="2440" height="741" fill="#FFFFFF"/></g><g clip-path="url(#clip2)"><path d="M3013.5 3385.61 5453.5 3385.61M3013.5 3261.61 5453.5 3261.61M3013.5 3138.6 5453.5 3138.6M3013.5 3014.6 5453.5 3014.6M3013.5 2891.59 5453.5 2891.59M3013.5 2767.5 5453.5 2767.5" stroke="#D9D9D9" stroke-width="3.4375" stroke-linejoin="round" stroke-miterlimit="10" fill="none"/></g><g clip-path="url(#clip3)"><path d="M3037.1 3472.11 3069.1 3472.11 3069.1 3509 3037.1 3509ZM3342.11 3463.11 3374.11 3463.11 3374.11 3509 3342.11 3509ZM3647.12 3452.11 3679.12 3452.11 3679.12 3509 3647.12 3509ZM3952.13 3437.11 3984.13 3437.11 3984.13 3509 3952.13 3509ZM4257.14 3426.11 4289.14 3426.11 4289.14 3509 4257.14 3509ZM4562.15 3314.11 4594.15 3314.11 4594.15 3509 4562.15 3509ZM4867.16 3174.1 4899.16 3174.1 4899.16 3509 4867.16 3509ZM5172.17 3000.1 5204.17 3000.1 5204.17 3509 5172.17 3509Z" fill="#2F5597"/></g><g clip-path="url(#clip4)"><path d="M3069.1 3446.11 3102.1 3446.11 3102.1 3509 3069.1 3509ZM3374.11 3440.11 3406.11 3440.11 3406.11 3509 3374.11 3509ZM3679.12 3423.11 3711.12 3423.11 3711.12 3509 3679.12 3509ZM3984.13 3412.11 4016.13 3412.11 4016.13 3509 3984.13 3509ZM4289.14 3392.11 4321.14 3392.11 4321.14 3509 4289.14 3509ZM4594.15 3280.11 4626.15 3280.11 4626.15 3509 4594.15 3509ZM4899.16 3117.1 4931.16 3117.1 4931.16 3509 4899.16 3509ZM5204.17 2903.1 5236.17 2903.1 5236.17 3509 5204.17 3509Z" fill="#8FAADC"/></g><g clip-path="url(#clip5)"><path d="M3102.1 3475.11 3134.1 3475.11 3134.1 3509 3102.1 3509ZM3406.11 3469.11 3439.11 3469.11 3439.11 3509 3406.11 3509ZM3711.12 3460.11 3744.12 3460.11 3744.12 3509 3711.12 3509ZM4016.13 3455.11 4048.13 3455.11 4048.13 3509 4016.13 3509ZM4321.14 3446.11 4353.14 3446.11 4353.14 3509 4321.14 3509ZM4626.15 3403.11 4658.15 3403.11 4658.15 3509 4626.15 3509ZM4931.16 3306.11 4963.16 3306.11 4963.16 3509 4931.16 3509ZM5236.17 3217.11 5268.17 3217.11 5268.17 3509 5236.17 3509Z" fill="#C55A11"/></g><g clip-path="url(#clip6)"><path d="M3134.1 3449.11 3166.1 3449.11 3166.1 3509 3134.1 3509ZM3439.11 3440.11 3471.11 3440.11 3471.11 3509 3439.11 3509ZM3744.12 3429.11 3776.12 3429.11 3776.12 3509 3744.12 3509ZM4048.13 3420.11 4081.13 3420.11 4081.13 3509 4048.13 3509ZM4353.14 3412.11 4386.14 3412.11 4386.14 3509 4353.14 3509ZM4658.15 3352.11 4690.15 3352.11 4690.15 3509 4658.15 3509ZM4963.16 3272.11 4995.16 3272.11 4995.16 3509 4963.16 3509ZM5268.17 3163.1 5300.17 3163.1 5300.17 3509 5268.17 3509Z" fill="#F4B183"/></g><g clip-path="url(#clip7)"><path d="M3166.1 3475.11 3198.1 3475.11 3198.1 3509 3166.1 3509ZM3471.11 3469.11 3503.11 3469.11 3503.11 3509 3471.11 3509ZM3776.12 3460.11 3808.12 3460.11 3808.12 3509 3776.12 3509ZM4081.13 3449.11 4113.13 3449.11 4113.13 3509 4081.13 3509ZM4386.14 3423.11 4418.15 3423.11 4418.15 3509 4386.14 3509ZM4690.15 3372.11 4723.16 3372.11 4723.16 3509 4690.15 3509ZM4995.16 3237.11 5028.17 3237.11 5028.17 3509 4995.16 3509ZM5300.17 3114.1 5332.17 3114.1 5332.17 3509 5300.17 3509Z" fill="#548235"/></g><g clip-path="url(#clip8)"><path d="M3198.1 3449.11 3230.11 3449.11 3230.11 3509 3198.1 3509ZM3503.11 3440.11 3535.12 3440.11 3535.12 3509 3503.11 3509ZM3808.12 3435.11 3840.13 3435.11 3840.13 3509 3808.12 3509ZM4113.13 3412.11 4145.14 3412.11 4145.14 3509 4113.13 3509ZM4418.15 3400.11 4450.15 3400.11 4450.15 3509 4418.15 3509ZM4723.16 3332.11 4755.16 3332.11 4755.16 3509 4723.16 3509ZM5028.17 3191.1 5060.17 3191.1 5060.17 3509 5028.17 3509ZM5332.17 3054.1 5365.18 3054.1 5365.18 3509 5332.17 3509Z" fill="#A9D18E"/></g><g clip-path="url(#clip9)"><path d="M3230.11 3475.11 3262.11 3475.11 3262.11 3509 3230.11 3509ZM3535.12 3469.11 3567.12 3469.11 3567.12 3509 3535.12 3509ZM3840.13 3460.11 3872.13 3460.11 3872.13 3509 3840.13 3509ZM4145.14 3457.11 4177.14 3457.11 4177.14 3509 4145.14 3509ZM4450.15 3449.11 4482.15 3449.11 4482.15 3509 4450.15 3509ZM4755.16 3406.11 4787.16 3406.11 4787.16 3509 4755.16 3509ZM5060.17 3312.11 5092.17 3312.11 5092.17 3509 5060.17 3509ZM5365.18 3234.11 5397.18 3234.11 5397.18 3509 5365.18 3509Z" fill="#BF9000"/></g><g clip-path="url(#clip10)"><path d="M3262.11 3449.11 3294.11 3449.11 3294.11 3509 3262.11 3509ZM3567.12 3443.11 3599.12 3443.11 3599.12 3509 3567.12 3509ZM3872.13 3429.11 3904.13 3429.11 3904.13 3509 3872.13 3509ZM4177.14 3426.11 4209.14 3426.11 4209.14 3509 4177.14 3509ZM4482.15 3409.11 4514.15 3409.11 4514.15 3509 4482.15 3509ZM4787.16 3360.11 4819.16 3360.11 4819.16 3509 4787.16 3509ZM5092.17 3283.11 5124.17 3283.11 5124.17 3509 5092.17 3509ZM5397.18 3209.11 5429.18 3209.11 5429.18 3509 5397.18 3509Z" fill="#FFD966"/></g><g clip-path="url(#clip11)"><path d="M3013.5 3508.5 5453.5 3508.5" stroke="#D9D9D9" stroke-width="3.4375" stroke-linejoin="round" stroke-miterlimit="10" fill="none" fill-rule="evenodd"/></g><g clip-path="url(#clip12)"><text fill="#595959" font-family="Calibri,Calibri_MSFontService,sans-serif" font-weight="400" font-size="41" transform="matrix(1 0 0 1 2880.42 3521)">00:00</text></g><g clip-path="url(#clip13)"><text fill="#595959" font-family="Calibri,Calibri_MSFontService,sans-serif" font-weight="400" font-size="41" transform="matrix(1 0 0 1 2880.42 3397)">00:43</text></g><g clip-path="url(#clip14)"><text fill="#595959" font-family="Calibri,Calibri_MSFontService,sans-serif" font-weight="400" font-size="41" transform="matrix(1 0 0 1 2880.42 3273)">01:26</text></g><g clip-path="url(#clip15)"><text fill="#595959" font-family="Calibri,Calibri_MSFontService,sans-serif" font-weight="400" font-size="41" transform="matrix(1 0 0 1 2880.42 3150)">02:10</text></g><g clip-path="url(#clip16)"><text fill="#595959" font-family="Calibri,Calibri_MSFontService,sans-serif" font-weight="400" font-size="41" transform="matrix(1 0 0 1 2880.42 3026)">02:53</text></g><g clip-path="url(#clip17)"><text fill="#595959" font-family="Calibri,Calibri_MSFontService,sans-serif" font-weight="400" font-size="41" transform="matrix(1 0 0 1 2880.42 2903)">03:36</text></g><g clip-path="url(#clip18)"><text fill="#595959" font-family="Calibri,Calibri_MSFontService,sans-serif" font-weight="400" font-size="41" transform="matrix(1 0 0 1 2880.42 2779)">04:19</text></g><g clip-path="url(#clip19)"><text fill="#595959" font-family="Calibri,Calibri_MSFontService,sans-serif" font-weight="400" font-size="41" transform="matrix(1 0 0 1 3108.98 3574)">1,0E+5</text></g><g clip-path="url(#clip20)"><text fill="#595959" font-family="Calibri,Calibri_MSFontService,sans-serif" font-weight="400" font-size="41" transform="matrix(1 0 0 1 3413.94 3574)">2,5E+5</text></g><g clip-path="url(#clip21)"><text fill="#595959" font-family="Calibri,Calibri_MSFontService,sans-serif" font-weight="400" font-size="41" transform="matrix(1 0 0 1 3718.9 3574)">5,0E+5</text></g><g clip-path="url(#clip22)"><text fill="#595959" font-family="Calibri,Calibri_MSFontService,sans-serif" font-weight="400" font-size="41" transform="matrix(1 0 0 1 4023.86 3574)">7,5E+5</text></g><g clip-path="url(#clip23)"><text fill="#595959" font-family="Calibri,Calibri_MSFontService,sans-serif" font-weight="400" font-size="41" transform="matrix(1 0 0 1 4328.82 3574)">1,0E+6</text></g><g clip-path="url(#clip24)"><text fill="#595959" font-family="Calibri,Calibri_MSFontService,sans-serif" font-weight="400" font-size="41" transform="matrix(1 0 0 1 4633.78 3574)">2,5E+6</text></g><g clip-path="url(#clip25)"><text fill="#595959" font-family="Calibri,Calibri_MSFontService,sans-serif" font-weight="400" font-size="41" transform="matrix(1 0 0 1 4938.75 3574)">5,0E+6</text></g><g clip-path="url(#clip26)"><text fill="#595959" font-family="Calibri,Calibri_MSFontService,sans-serif" font-weight="400" font-size="41" transform="matrix(1 0 0 1 5243.71 3574)">7,5E+6</text></g><g clip-path="url(#clip27)"><text font-family="Calibri,Calibri_MSFontService,sans-serif" font-weight="700" font-size="46" transform="matrix(6.12323e-17 -1 1 6.12323e-17 2854.73 3196)">Dauer</text></g><g clip-path="url(#clip28)"><text font-family="Calibri,Calibri_MSFontService,sans-serif" font-weight="700" font-size="46" transform="matrix(1 0 0 1 4175.6 3643)">Zeilen</text></g><g clip-path="url(#clip29)"><rect x="2930" y="2667" width="23" height="22.9998" fill="#2F5597"/></g><g clip-path="url(#clip30)"><text fill="#595959" font-family="Calibri,Calibri_MSFontService,sans-serif" font-weight="400" font-size="41" transform="matrix(1 0 0 1 2962.68 2690)">Paruqet PG S1</text></g><g clip-path="url(#clip31)"><rect x="3239" y="2667" width="22.9998" height="22.9998" fill="#8FAADC"/></g><g clip-path="url(#clip32)"><text fill="#595959" font-family="Calibri,Calibri_MSFontService,sans-serif" font-weight="400" font-size="41" transform="matrix(1 0 0 1 3271.73 2690)">Delta PG S1</text></g><g clip-path="url(#clip33)"><rect x="3504" y="2667" width="23" height="22.9998" fill="#C55A11"/></g><g clip-path="url(#clip34)"><text fill="#595959" font-family="Calibri,Calibri_MSFontService,sans-serif" font-weight="400" font-size="41" transform="matrix(1 0 0 1 3536.55 2690)">Parquet JSON S1</text></g><g clip-path="url(#clip35)"><rect x="3852" y="2667" width="23" height="22.9998" fill="#F4B183"/></g><g clip-path="url(#clip36)"><text fill="#595959" font-family="Calibri,Calibri_MSFontService,sans-serif" font-weight="400" font-size="41" transform="matrix(1 0 0 1 3884.3 2690)">Delta JSON S1</text></g><g clip-path="url(#clip37)"><rect x="4156" y="2667" width="22" height="22.9998" fill="#548235"/></g><g clip-path="url(#clip38)"><text fill="#595959" font-family="Calibri,Calibri_MSFontService,sans-serif" font-weight="400" font-size="41" transform="matrix(1 0 0 1 4187.82 2690)">Parquet PG S2</text></g><g clip-path="url(#clip39)"><rect x="4465" y="2667" width="22" height="22.9998" fill="#A9D18E"/></g><g clip-path="url(#clip40)"><text fill="#595959" font-family="Calibri,Calibri_MSFontService,sans-serif" font-weight="400" font-size="41" transform="matrix(1 0 0 1 4496.87 2690)">Delta PG S2</text></g><g clip-path="url(#clip41)"><rect x="4729" y="2667" width="23" height="22.9998" fill="#BF9000"/></g><g clip-path="url(#clip42)"><text fill="#595959" font-family="Calibri,Calibri_MSFontService,sans-serif" font-weight="400" font-size="41" transform="matrix(1 0 0 1 4761.69 2690)">Parquet JSON S2</text></g><g clip-path="url(#clip43)"><rect x="5077" y="2667" width="23" height="22.9998" fill="#FFD966"/></g><g clip-path="url(#clip44)"><text fill="#595959" font-family="Calibri,Calibri_MSFontService,sans-serif" font-weight="400" font-size="41" transform="matrix(1 0 0 1 5109.44 2690)">Delta JSON S2</text></g><rect x="2753" y="2613" width="2750" height="1099" stroke="#898989" stroke-width="2.29167" stroke-linejoin="round" stroke-miterlimit="10" fill="none"/></g></svg>