<svg width="2752" height="1102" xmlns="http://www.w3.org/2000/svg" xmlns:xlink="http://www.w3.org/1999/xlink" overflow="hidden"><defs><clipPath id="clip0"><rect x="2752" y="1374" width="2752" height="1102"/></clipPath><clipPath id="clip1"><rect x="2753" y="1375" width="2750" height="1100"/></clipPath><clipPath id="clip2"><rect x="2753" y="1375" width="2750" height="1100"/></clipPath><clipPath id="clip3"><rect x="3013" y="1530" width="2443" height="744"/></clipPath><clipPath id="clip4"><rect x="3013" y="1530" width="2443" height="744"/></clipPath><clipPath id="clip5"><rect x="3013" y="1530" width="2443" height="744"/></clipPath><clipPath id="clip6"><rect x="3013" y="1530" width="2443" height="744"/></clipPath><clipPath id="clip7"><rect x="3013" y="1530" width="2443" height="744"/></clipPath><clipPath id="clip8"><rect x="3013" y="1530" width="2443" height="744"/></clipPath><clipPath id="clip9"><rect x="3013" y="1530" width="2443" height="744"/></clipPath><clipPath id="clip10"><rect x="3013" y="1530" width="2443" height="744"/></clipPath><clipPath id="clip11"><rect x="2753" y="1375" width="2750" height="1100"/></clipPath><clipPath id="clip12"><rect x="2753" y="1375" width="2750" height="1100"/></clipPath><clipPath id="clip13"><rect x="2753" y="1375" width="2750" height="1100"/></clipPath><clipPath id="clip14"><rect x="2753" y="1375" width="2750" height="1100"/></clipPath><clipPath id="clip15"><rect x="2753" y="1375" width="2750" height="1100"/></clipPath><clipPath id="clip16"><rect x="2753" y="1375" width="2750" height="1100"/></clipPath><clipPath id="clip17"><rect x="2753" y="1375" width="2750" height="1100"/></clipPath><clipPath id="clip18"><rect x="2753" y="1375" width="2750" height="1100"/></clipPath><clipPath id="clip19"><rect x="2753" y="1375" width="2750" height="1100"/></clipPath><clipPath id="clip20"><rect x="2753" y="1375" width="2750" height="1100"/></clipPath><clipPath id="clip21"><rect x="2753" y="1375" width="2750" height="1100"/></clipPath><clipPath id="clip22"><rect x="2753" y="1375" width="2750" height="1100"/></clipPath><clipPath id="clip23"><rect x="2753" y="1375" width="2750" height="1100"/></clipPath><clipPath id="clip24"><rect x="2753" y="1375" width="2750" height="1100"/></clipPath><clipPath id="clip25"><rect x="2753" y="1375" width="2750" height="1100"/></clipPath><clipPath id="clip26"><rect x="2753" y="1375" width="2750" height="1100"/></clipPath><clipPath id="clip27"><rect x="2753" y="1375" width="2750" height="1100"/></clipPath><clipPath id="clip28"><rect x="2753" y="1375" width="2750" height="1100"/></clipPath><clipPath id="clip29"><rect x="2753" y="1375" width="2750" height="1100"/></clipPath><clipPath id="clip30"><rect x="2753" y="1375" width="2750" height="1100"/></clipPath><clipPath id="clip31"><rect x="2753" y="1375" width="2750" height="1100"/></clipPath><clipPath id="clip32"><rect x="2753" y="1375" width="2750" height="1100"/></clipPath><clipPath id="clip33"><rect x="2753" y="1375" width="2750" height="1100"/></clipPath><clipPath id="clip34"><rect x="2753" y="1375" width="2750" height="1100"/></clipPath><clipPath id="clip35"><rect x="2753" y="1375" width="2750" height="1100"/></clipPath><clipPath id="clip36"><rect x="2753" y="1375" width="2750" height="1100"/></clipPath><clipPath id="clip37"><rect x="2753" y="1375" width="2750" height="1100"/></clipPath><clipPath id="clip38"><rect x="2753" y="1375" width="2750" height="1100"/></clipPath><clipPath id="clip39"><rect x="2753" y="1375" width="2750" height="1100"/></clipPath><clipPath id="clip40"><rect x="2753" y="1375" width="2750" height="1100"/></clipPath><clipPath id="clip41"><rect x="2753" y="1375" width="2750" height="1100"/></clipPath><clipPath id="clip42"><rect x="2753" y="1375" width="2750" height="1100"/></clipPath><clipPath id="clip43"><rect x="2753" y="1375" width="2750" height="1100"/></clipPath><clipPath id="clip44"><rect x="2753" y="1375" width="2750" height="1100"/></clipPath><clipPath id="clip45"><rect x="2753" y="1375" width="2750" height="1100"/></clipPath><clipPath id="clip46"><rect x="2753" y="1375" width="2750" height="1100"/></clipPath></defs><g clip-path="url(#clip0)" transform="translate(-2752 -1374)"><rect x="2753" y="1375" width="2750" height="1100" fill="#FFFFFF"/><g clip-path="url(#clip1)"><rect x="3013" y="1530" width="2440" height="741" fill="#FFFFFF"/></g><g clip-path="url(#clip2)"><path d="M3013.5 2178.57 5453.5 2178.57M3013.5 2086.57 5453.5 2086.57M3013.5 1993.57 5453.5 1993.57M3013.5 1900.56 5453.5 1900.56M3013.5 1808.56 5453.5 1808.56M3013.5 1715.56 5453.5 1715.56M3013.5 1622.55 5453.5 1622.55M3013.5 1530.5 5453.5 1530.5" stroke="#D9D9D9" stroke-width="3.4375" stroke-linejoin="round" stroke-miterlimit="10" fill="none"/></g><g clip-path="url(#clip3)"><path d="M3037.1 2262.07 3069.1 2262.07 3069.1 2271 3037.1 2271ZM3342.11 2259.07 3374.11 2259.07 3374.11 2271 3342.11 2271ZM3647.12 2254.07 3679.12 2254.07 3679.12 2271 3647.12 2271ZM3952.13 2250.07 3984.13 2250.07 3984.13 2271 3952.13 2271ZM4257.14 2247.07 4289.14 2247.07 4289.14 2271 4257.14 2271ZM4562.15 2220.07 4594.15 2220.07 4594.15 2271 4562.15 2271ZM4867.16 2177.07 4899.16 2177.07 4899.16 2271 4867.16 2271ZM5172.17 2130.07 5204.17 2130.07 5204.17 2271 5172.17 2271Z" fill="#2F5597"/></g><g clip-path="url(#clip4)"><path d="M3069.1 2244.07 3102.1 2244.07 3102.1 2271 3069.1 2271ZM3374.11 2239.07 3406.11 2239.07 3406.11 2271 3374.11 2271ZM3679.12 2230.07 3711.12 2230.07 3711.12 2271 3679.12 2271ZM3984.13 2219.07 4016.13 2219.07 4016.13 2271 3984.13 2271ZM4289.14 2212.07 4321.14 2212.07 4321.14 2271 4289.14 2271ZM4594.15 2157.07 4626.15 2157.07 4626.15 2271 4594.15 2271ZM4899.16 2043.07 4931.16 2043.07 4931.16 2271 4899.16 2271ZM5204.17 1940.06 5236.17 1940.06 5236.17 2271 5204.17 2271Z" fill="#8FAADC"/></g><g clip-path="url(#clip5)"><path d="M3102.1 2263.07 3134.1 2263.07 3134.1 2271 3102.1 2271ZM3406.11 2261.07 3439.11 2261.07 3439.11 2271 3406.11 2271ZM3711.12 2259.07 3744.12 2259.07 3744.12 2271 3711.12 2271ZM4016.13 2256.07 4048.13 2256.07 4048.13 2271 4016.13 2271ZM4321.14 2254.07 4353.14 2254.07 4353.14 2271 4321.14 2271ZM4626.15 2245.07 4658.15 2245.07 4658.15 2271 4626.15 2271ZM4931.16 2226.07 4963.16 2226.07 4963.16 2271 4931.16 2271ZM5236.17 2207.07 5268.17 2207.07 5268.17 2271 5236.17 2271Z" fill="#C55A11"/></g><g clip-path="url(#clip6)"><path d="M3134.1 2246.07 3166.1 2246.07 3166.1 2271 3134.1 2271ZM3439.11 2241.07 3471.11 2241.07 3471.11 2271 3439.11 2271ZM3744.12 2238.07 3776.12 2238.07 3776.12 2271 3744.12 2271ZM4048.13 2235.07 4081.13 2235.07 4081.13 2271 4048.13 2271ZM4353.14 2230.07 4386.14 2230.07 4386.14 2271 4353.14 2271ZM4658.15 2205.07 4690.15 2205.07 4690.15 2271 4658.15 2271ZM4963.16 2163.07 4995.16 2163.07 4995.16 2271 4963.16 2271ZM5268.17 2107.07 5300.17 2107.07 5300.17 2271 5268.17 2271Z" fill="#F4B183"/></g><g clip-path="url(#clip7)"><path d="M3166.1 2261.07 3198.1 2261.07 3198.1 2271 3166.1 2271ZM3471.11 2259.07 3503.11 2259.07 3503.11 2271 3471.11 2271ZM3776.12 2251.07 3808.12 2251.07 3808.12 2271 3776.12 2271ZM4081.13 2246.07 4113.13 2246.07 4113.13 2271 4081.13 2271ZM4386.14 2239.07 4418.15 2239.07 4418.15 2271 4386.14 2271ZM4690.15 2203.07 4723.16 2203.07 4723.16 2271 4690.15 2271ZM4995.16 2141.07 5028.17 2141.07 5028.17 2271 4995.16 2271ZM5300.17 2070.07 5332.17 2070.07 5332.17 2271 5300.17 2271Z" fill="#548235"/></g><g clip-path="url(#clip8)"><path d="M3198.1 2245.07 3230.11 2245.07 3230.11 2271 3198.1 2271ZM3503.11 2237.07 3535.12 2237.07 3535.12 2271 3503.11 2271ZM3808.12 2226.07 3840.13 2226.07 3840.13 2271 3808.12 2271ZM4113.13 2212.07 4145.14 2212.07 4145.14 2271 4113.13 2271ZM4418.15 2202.07 4450.15 2202.07 4450.15 2271 4418.15 2271ZM4723.16 2121.07 4755.16 2121.07 4755.16 2271 4723.16 2271ZM5028.17 1977.06 5060.17 1977.06 5060.17 2271 5028.17 2271ZM5332.17 1610.05 5365.18 1610.05 5365.18 2271 5332.17 2271Z" fill="#A9D18E"/></g><g clip-path="url(#clip9)"><path d="M3230.11 2263.07 3262.11 2263.07 3262.11 2271 3230.11 2271ZM3535.12 2261.07 3567.12 2261.07 3567.12 2271 3535.12 2271ZM3840.13 2257.07 3872.13 2257.07 3872.13 2271 3840.13 2271ZM4145.14 2255.07 4177.14 2255.07 4177.14 2271 4145.14 2271ZM4450.15 2252.07 4482.15 2252.07 4482.15 2271 4450.15 2271ZM4755.16 2237.07 4787.16 2237.07 4787.16 2271 4755.16 2271ZM5060.17 2207.07 5092.17 2207.07 5092.17 2271 5060.17 2271ZM5365.18 2180.07 5397.18 2180.07 5397.18 2271 5365.18 2271Z" fill="#BF9000"/></g><g clip-path="url(#clip10)"><path d="M3262.11 2246.07 3294.11 2246.07 3294.11 2271 3262.11 2271ZM3567.12 2241.07 3599.12 2241.07 3599.12 2271 3567.12 2271ZM3872.13 2234.07 3904.13 2234.07 3904.13 2271 3872.13 2271ZM4177.14 2231.07 4209.14 2231.07 4209.14 2271 4177.14 2271ZM4482.15 2225.07 4514.15 2225.07 4514.15 2271 4482.15 2271ZM4787.16 2195.07 4819.16 2195.07 4819.16 2271 4787.16 2271ZM5092.17 2141.07 5124.17 2141.07 5124.17 2271 5092.17 2271ZM5397.18 2073.07 5429.18 2073.07 5429.18 2271 5397.18 2271Z" fill="#FFD966"/></g><g clip-path="url(#clip11)"><path d="M3013.5 2271.5 5453.5 2271.5" stroke="#D9D9D9" stroke-width="3.4375" stroke-linejoin="round" stroke-miterlimit="10" fill="none" fill-rule="evenodd"/></g><g clip-path="url(#clip12)"><text fill="#595959" font-family="Calibri,Calibri_MSFontService,sans-serif" font-weight="400" font-size="41" transform="matrix(1 0 0 1 2880.42 2283)">00:00</text></g><g clip-path="url(#clip13)"><text fill="#595959" font-family="Calibri,Calibri_MSFontService,sans-serif" font-weight="400" font-size="41" transform="matrix(1 0 0 1 2880.42 2190)">01:26</text></g><g clip-path="url(#clip14)"><text fill="#595959" font-family="Calibri,Calibri_MSFontService,sans-serif" font-weight="400" font-size="41" transform="matrix(1 0 0 1 2880.42 2098)">02:53</text></g><g clip-path="url(#clip15)"><text fill="#595959" font-family="Calibri,Calibri_MSFontService,sans-serif" font-weight="400" font-size="41" transform="matrix(1 0 0 1 2880.42 2005)">04:19</text></g><g clip-path="url(#clip16)"><text fill="#595959" font-family="Calibri,Calibri_MSFontService,sans-serif" font-weight="400" font-size="41" transform="matrix(1 0 0 1 2880.42 1912)">05:46</text></g><g clip-path="url(#clip17)"><text fill="#595959" font-family="Calibri,Calibri_MSFontService,sans-serif" font-weight="400" font-size="41" transform="matrix(1 0 0 1 2880.42 1820)">07:12</text></g><g clip-path="url(#clip18)"><text fill="#595959" font-family="Calibri,Calibri_MSFontService,sans-serif" font-weight="400" font-size="41" transform="matrix(1 0 0 1 2880.42 1727)">08:38</text></g><g clip-path="url(#clip19)"><text fill="#595959" font-family="Calibri,Calibri_MSFontService,sans-serif" font-weight="400" font-size="41" transform="matrix(1 0 0 1 2880.42 1634)">10:05</text></g><g clip-path="url(#clip20)"><text fill="#595959" font-family="Calibri,Calibri_MSFontService,sans-serif" font-weight="400" font-size="41" transform="matrix(1 0 0 1 2880.42 1542)">11:31</text></g><g clip-path="url(#clip21)"><text fill="#595959" font-family="Calibri,Calibri_MSFontService,sans-serif" font-weight="400" font-size="41" transform="matrix(1 0 0 1 3108.98 2337)">1,0E+5</text></g><g clip-path="url(#clip22)"><text fill="#595959" font-family="Calibri,Calibri_MSFontService,sans-serif" font-weight="400" font-size="41" transform="matrix(1 0 0 1 3413.94 2337)">2,5E+5</text></g><g clip-path="url(#clip23)"><text fill="#595959" font-family="Calibri,Calibri_MSFontService,sans-serif" font-weight="400" font-size="41" transform="matrix(1 0 0 1 3718.9 2337)">5,0E+5</text></g><g clip-path="url(#clip24)"><text fill="#595959" font-family="Calibri,Calibri_MSFontService,sans-serif" font-weight="400" font-size="41" transform="matrix(1 0 0 1 4023.86 2337)">7,5E+5</text></g><g clip-path="url(#clip25)"><text fill="#595959" font-family="Calibri,Calibri_MSFontService,sans-serif" font-weight="400" font-size="41" transform="matrix(1 0 0 1 4328.82 2337)">1,0E+6</text></g><g clip-path="url(#clip26)"><text fill="#595959" font-family="Calibri,Calibri_MSFontService,sans-serif" font-weight="400" font-size="41" transform="matrix(1 0 0 1 4633.78 2337)">2,5E+6</text></g><g clip-path="url(#clip27)"><text fill="#595959" font-family="Calibri,Calibri_MSFontService,sans-serif" font-weight="400" font-size="41" transform="matrix(1 0 0 1 4938.75 2337)">5,0E+6</text></g><g clip-path="url(#clip28)"><text fill="#595959" font-family="Calibri,Calibri_MSFontService,sans-serif" font-weight="400" font-size="41" transform="matrix(1 0 0 1 5243.71 2337)">7,5E+6</text></g><g clip-path="url(#clip29)"><text font-family="Calibri,Calibri_MSFontService,sans-serif" font-weight="700" font-size="46" transform="matrix(6.12323e-17 -1 1 6.12323e-17 2854.73 1959)">Dauer</text></g><g clip-path="url(#clip30)"><text font-family="Calibri,Calibri_MSFontService,sans-serif" font-weight="700" font-size="46" transform="matrix(1 0 0 1 4175.6 2406)">Zeilen</text></g><g clip-path="url(#clip31)"><rect x="2930" y="1430" width="23" height="23" fill="#2F5597"/></g><g clip-path="url(#clip32)"><text fill="#595959" font-family="Calibri,Calibri_MSFontService,sans-serif" font-weight="400" font-size="41" transform="matrix(1 0 0 1 2962.68 1453)">Paruqet PG S1</text></g><g clip-path="url(#clip33)"><rect x="3239" y="1430" width="22.9998" height="23" fill="#8FAADC"/></g><g clip-path="url(#clip34)"><text fill="#595959" font-family="Calibri,Calibri_MSFontService,sans-serif" font-weight="400" font-size="41" transform="matrix(1 0 0 1 3271.73 1453)">Delta PG S1</text></g><g clip-path="url(#clip35)"><rect x="3504" y="1430" width="23" height="23" fill="#C55A11"/></g><g clip-path="url(#clip36)"><text fill="#595959" font-family="Calibri,Calibri_MSFontService,sans-serif" font-weight="400" font-size="41" transform="matrix(1 0 0 1 3536.55 1453)">Parquet JSON S1</text></g><g clip-path="url(#clip37)"><rect x="3852" y="1430" width="23" height="23" fill="#F4B183"/></g><g clip-path="url(#clip38)"><text fill="#595959" font-family="Calibri,Calibri_MSFontService,sans-serif" font-weight="400" font-size="41" transform="matrix(1 0 0 1 3884.3 1453)">Delta JSON S1</text></g><g clip-path="url(#clip39)"><rect x="4156" y="1430" width="22" height="23" fill="#548235"/></g><g clip-path="url(#clip40)"><text fill="#595959" font-family="Calibri,Calibri_MSFontService,sans-serif" font-weight="400" font-size="41" transform="matrix(1 0 0 1 4187.82 1453)">Parquet PG S2</text></g><g clip-path="url(#clip41)"><rect x="4465" y="1430" width="22" height="23" fill="#A9D18E"/></g><g clip-path="url(#clip42)"><text fill="#595959" font-family="Calibri,Calibri_MSFontService,sans-serif" font-weight="400" font-size="41" transform="matrix(1 0 0 1 4496.87 1453)">Delta PG S2</text></g><g clip-path="url(#clip43)"><rect x="4729" y="1430" width="23" height="23" fill="#BF9000"/></g><g clip-path="url(#clip44)"><text fill="#595959" font-family="Calibri,Calibri_MSFontService,sans-serif" font-weight="400" font-size="41" transform="matrix(1 0 0 1 4761.69 1453)">Parquet JSON S2</text></g><g clip-path="url(#clip45)"><rect x="5077" y="1430" width="23" height="23" fill="#FFD966"/></g><g clip-path="url(#clip46)"><text fill="#595959" font-family="Calibri,Calibri_MSFontService,sans-serif" font-weight="400" font-size="41" transform="matrix(1 0 0 1 5109.44 1453)">Delta JSON S2</text></g><rect x="2753" y="1375" width="2750" height="1100" stroke="#898989" stroke-width="2.29167" stroke-linejoin="round" stroke-miterlimit="10" fill="none"/></g></svg>