<svg width="2753" height="1102" xmlns="http://www.w3.org/2000/svg" xmlns:xlink="http://www.w3.org/1999/xlink" overflow="hidden"><defs><clipPath id="clip0"><rect x="2752" y="137" width="2753" height="1102"/></clipPath><clipPath id="clip1"><rect x="2753" y="137" width="2750" height="1100"/></clipPath><clipPath id="clip2"><rect x="3013" y="292" width="2443" height="745"/></clipPath><clipPath id="clip3"><rect x="3013" y="292" width="2443" height="745"/></clipPath><clipPath id="clip4"><rect x="3013" y="292" width="2443" height="745"/></clipPath><clipPath id="clip5"><rect x="3013" y="292" width="2443" height="745"/></clipPath><clipPath id="clip6"><rect x="2753" y="137" width="2750" height="1100"/></clipPath><clipPath id="clip7"><rect x="2753" y="137" width="2750" height="1100"/></clipPath><clipPath id="clip8"><rect x="2753" y="137" width="2750" height="1100"/></clipPath><clipPath id="clip9"><rect x="2753" y="137" width="2750" height="1100"/></clipPath><clipPath id="clip10"><rect x="2753" y="137" width="2750" height="1100"/></clipPath><clipPath id="clip11"><rect x="2753" y="137" width="2750" height="1100"/></clipPath><clipPath id="clip12"><rect x="2753" y="137" width="2750" height="1100"/></clipPath><clipPath id="clip13"><rect x="2753" y="137" width="2750" height="1100"/></clipPath><clipPath id="clip14"><rect x="2753" y="137" width="2750" height="1100"/></clipPath><clipPath id="clip15"><rect x="2753" y="137" width="2750" height="1100"/></clipPath><clipPath id="clip16"><rect x="2753" y="137" width="2750" height="1100"/></clipPath><clipPath id="clip17"><rect x="2753" y="137" width="2750" height="1100"/></clipPath><clipPath id="clip18"><rect x="2753" y="137" width="2750" height="1100"/></clipPath><clipPath id="clip19"><rect x="2753" y="137" width="2750" height="1100"/></clipPath><clipPath id="clip20"><rect x="2753" y="137" width="2750" height="1100"/></clipPath><clipPath id="clip21"><rect x="2753" y="137" width="2750" height="1100"/></clipPath><clipPath id="clip22"><rect x="2753" y="137" width="2750" height="1100"/></clipPath><clipPath id="clip23"><rect x="2753" y="137" width="2750" height="1100"/></clipPath><clipPath id="clip24"><rect x="2753" y="137" width="2750" height="1100"/></clipPath><clipPath id="clip25"><rect x="2753" y="137" width="2750" height="1100"/></clipPath><clipPath id="clip26"><rect x="2753" y="137" width="2750" height="1100"/></clipPath><clipPath id="clip27"><rect x="2753" y="137" width="2750" height="1100"/></clipPath><clipPath id="clip28"><rect x="2753" y="137" width="2750" height="1100"/></clipPath><clipPath id="clip29"><rect x="2753" y="137" width="2750" height="1100"/></clipPath><clipPath id="clip30"><rect x="2753" y="137" width="2750" height="1100"/></clipPath><clipPath id="clip31"><rect x="2753" y="137" width="2750" height="1100"/></clipPath><clipPath id="clip32"><rect x="2753" y="137" width="2750" height="1100"/></clipPath></defs><g clip-path="url(#clip0)" transform="translate(-2752 -137)"><rect x="2753" y="138" width="2750" height="1099" fill="#FFFFFF"/><g clip-path="url(#clip1)"><path d="M3013.5 928.531 5453.5 928.531M3013.5 822.527 5453.5 822.527M3013.5 716.524 5453.5 716.524M3013.5 610.52 5453.5 610.52M3013.5 504.517 5453.5 504.517M3013.5 398.513 5453.5 398.513M3013.5 292.5 5453.5 292.5" stroke="#D9D9D9" stroke-width="3.4375" stroke-linejoin="round" stroke-miterlimit="10" fill="none"/></g><g clip-path="url(#clip2)"><path d="M3055.1 979.032 3110.1 979.032 3110.1 1034 3055.1 1034ZM3360.11 967.032 3415.11 967.032 3415.11 1034 3360.11 1034ZM3665.12 945.031 3720.12 945.031 3720.12 1034 3665.12 1034ZM3970.13 927.03 4025.13 927.03 4025.13 1034 3970.13 1034ZM4275.14 905.03 4330.14 905.03 4330.14 1034 4275.14 1034ZM4580.15 792.026 4635.15 792.026 4635.15 1034 4580.15 1034ZM4885.16 577.019 4940.16 577.019 4940.16 1034 4885.16 1034ZM5189.17 384.013 5245.17 384.013 5245.17 1034 5189.17 1034Z" fill="#2F5597"/></g><g clip-path="url(#clip3)"><path d="M3110.1 948.031 3166.1 948.031 3166.1 1034 3110.1 1034ZM3415.11 936.031 3471.11 936.031 3471.11 1034 3415.11 1034ZM3720.12 918.03 3776.12 918.03 3776.12 1034 3720.12 1034ZM4025.13 893.029 4081.13 893.029 4081.13 1034 4025.13 1034ZM4330.14 875.029 4386.14 875.029 4386.14 1034 4330.14 1034ZM4635.15 761.025 4690.15 761.025 4690.15 1034 4635.15 1034ZM4940.16 553.018 4995.16 553.018 4995.16 1034 4940.16 1034ZM5245.17 357.012 5300.17 357.012 5300.17 1034 5245.17 1034Z" fill="#8FAADC"/></g><g clip-path="url(#clip4)"><path d="M3166.1 985.032 3221.11 985.032 3221.11 1034 3166.1 1034ZM3471.11 979.032 3526.12 979.032 3526.12 1034 3471.11 1034ZM3776.12 963.032 3831.13 963.032 3831.13 1034 3776.12 1034ZM4081.13 957.031 4136.14 957.031 4136.14 1034 4081.13 1034ZM4386.14 948.031 4441.15 948.031 4441.15 1034 4386.14 1034ZM4690.15 899.029 4746.16 899.029 4746.16 1034 4690.15 1034ZM4995.16 807.026 5051.17 807.026 5051.17 1034 4995.16 1034ZM5300.17 725.024 5356.18 725.024 5356.18 1034 5300.17 1034Z" fill="#C55A11"/></g><g clip-path="url(#clip5)"><path d="M3221.11 954.031 3277.11 954.031 3277.11 1034 3221.11 1034ZM3526.12 948.031 3582.12 948.031 3582.12 1034 3526.12 1034ZM3831.13 933.031 3887.13 933.031 3887.13 1034 3831.13 1034ZM4136.14 930.031 4191.14 930.031 4191.14 1034 4136.14 1034ZM4441.15 921.03 4496.15 921.03 4496.15 1034 4441.15 1034ZM4746.16 872.029 4801.16 872.029 4801.16 1034 4746.16 1034ZM5051.17 792.026 5106.17 792.026 5106.17 1034 5051.17 1034ZM5356.18 718.024 5411.18 718.024 5411.18 1034 5356.18 1034Z" fill="#F4B183"/></g><g clip-path="url(#clip6)"><path d="M3013.5 1033.5 5453.5 1033.5" stroke="#D9D9D9" stroke-width="3.4375" stroke-linejoin="round" stroke-miterlimit="10" fill="none" fill-rule="evenodd"/></g><g clip-path="url(#clip7)"><text fill="#595959" font-family="Calibri,Calibri_MSFontService,sans-serif" font-weight="400" font-size="41" transform="matrix(1 0 0 1 2880.42 1046)">00:00</text></g><g clip-path="url(#clip8)"><text fill="#595959" font-family="Calibri,Calibri_MSFontService,sans-serif" font-weight="400" font-size="41" transform="matrix(1 0 0 1 2880.42 940)">00:17</text></g><g clip-path="url(#clip9)"><text fill="#595959" font-family="Calibri,Calibri_MSFontService,sans-serif" font-weight="400" font-size="41" transform="matrix(1 0 0 1 2880.42 834)">00:35</text></g><g clip-path="url(#clip10)"><text fill="#595959" font-family="Calibri,Calibri_MSFontService,sans-serif" font-weight="400" font-size="41" transform="matrix(1 0 0 1 2880.42 728)">00:52</text></g><g clip-path="url(#clip11)"><text fill="#595959" font-family="Calibri,Calibri_MSFontService,sans-serif" font-weight="400" font-size="41" transform="matrix(1 0 0 1 2880.42 622)">01:09</text></g><g clip-path="url(#clip12)"><text fill="#595959" font-family="Calibri,Calibri_MSFontService,sans-serif" font-weight="400" font-size="41" transform="matrix(1 0 0 1 2880.42 516)">01:26</text></g><g clip-path="url(#clip13)"><text fill="#595959" font-family="Calibri,Calibri_MSFontService,sans-serif" font-weight="400" font-size="41" transform="matrix(1 0 0 1 2880.42 410)">01:44</text></g><g clip-path="url(#clip14)"><text fill="#595959" font-family="Calibri,Calibri_MSFontService,sans-serif" font-weight="400" font-size="41" transform="matrix(1 0 0 1 2880.42 304)">02:01</text></g><g clip-path="url(#clip15)"><text fill="#595959" font-family="Calibri,Calibri_MSFontService,sans-serif" font-weight="400" font-size="41" transform="matrix(1 0 0 1 3108.98 1099)">1,0E+5</text></g><g clip-path="url(#clip16)"><text fill="#595959" font-family="Calibri,Calibri_MSFontService,sans-serif" font-weight="400" font-size="41" transform="matrix(1 0 0 1 3413.94 1099)">2,5E+5</text></g><g clip-path="url(#clip17)"><text fill="#595959" font-family="Calibri,Calibri_MSFontService,sans-serif" font-weight="400" font-size="41" transform="matrix(1 0 0 1 3718.9 1099)">5,0E+5</text></g><g clip-path="url(#clip18)"><text fill="#595959" font-family="Calibri,Calibri_MSFontService,sans-serif" font-weight="400" font-size="41" transform="matrix(1 0 0 1 4023.86 1099)">7,5E+5</text></g><g clip-path="url(#clip19)"><text fill="#595959" font-family="Calibri,Calibri_MSFontService,sans-serif" font-weight="400" font-size="41" transform="matrix(1 0 0 1 4328.82 1099)">1,0E+6</text></g><g clip-path="url(#clip20)"><text fill="#595959" font-family="Calibri,Calibri_MSFontService,sans-serif" font-weight="400" font-size="41" transform="matrix(1 0 0 1 4633.78 1099)">2,5E+6</text></g><g clip-path="url(#clip21)"><text fill="#595959" font-family="Calibri,Calibri_MSFontService,sans-serif" font-weight="400" font-size="41" transform="matrix(1 0 0 1 4938.75 1099)">5,0E+6</text></g><g clip-path="url(#clip22)"><text fill="#595959" font-family="Calibri,Calibri_MSFontService,sans-serif" font-weight="400" font-size="41" transform="matrix(1 0 0 1 5243.71 1099)">7,5E+6</text></g><g clip-path="url(#clip23)"><text font-family="Calibri,Calibri_MSFontService,sans-serif" font-weight="700" font-size="46" transform="matrix(6.12323e-17 -1 1 6.12323e-17 2854.73 721)">Dauer</text></g><g clip-path="url(#clip24)"><text font-family="Calibri,Calibri_MSFontService,sans-serif" font-weight="700" font-size="46" transform="matrix(1 0 0 1 4175.6 1168)">Zeilen</text></g><g clip-path="url(#clip25)"><rect x="3623" y="192" width="22" height="22.9997" fill="#2F5597"/></g><g clip-path="url(#clip26)"><text fill="#595959" font-family="Calibri,Calibri_MSFontService,sans-serif" font-weight="400" font-size="41" transform="matrix(1 0 0 1 3654.91 215)">Paruqet PG</text></g><g clip-path="url(#clip27)"><rect x="3895" y="192" width="23" height="22.9997" fill="#8FAADC"/></g><g clip-path="url(#clip28)"><text fill="#595959" font-family="Calibri,Calibri_MSFontService,sans-serif" font-weight="400" font-size="41" transform="matrix(1 0 0 1 3927.24 215)">Delta PG</text></g><g clip-path="url(#clip29)"><rect x="4123" y="192" width="23" height="22.9997" fill="#C55A11"/></g><g clip-path="url(#clip30)"><text fill="#595959" font-family="Calibri,Calibri_MSFontService,sans-serif" font-weight="400" font-size="41" transform="matrix(1 0 0 1 4155.35 215)">Parquet JSON</text></g><g clip-path="url(#clip31)"><rect x="4434" y="192" width="23" height="22.9997" fill="#F4B183"/></g><g clip-path="url(#clip32)"><text fill="#595959" font-family="Calibri,Calibri_MSFontService,sans-serif" font-weight="400" font-size="41" transform="matrix(1 0 0 1 4466.4 215)">Delta JSON</text></g><rect x="2753.5" y="138.5" width="2750" height="1099" stroke="#D9D9D9" stroke-width="3.4375" stroke-linejoin="round" stroke-miterlimit="10" fill="none"/></g></svg>